<svg width="339" height="91" viewBox="0 0 339 91" xmlns="http://www.w3.org/2000/svg"><title>Fricandó Rostisseria</title><g fill="#1D1D1B" fill-rule="evenodd"><path d="M85.863 80.84c-12.406-.613-26.844.194-39.717-.324-.54.094-.68.4-1.075.571-2.951-1.17-8.147.138-11.423-.685-.837.914-3.515-.32-4.31.685-.846-.781-1.599-.453-3.667-.456-.603.168.552.477 0 .568-7.616-1.416-16.385-.157-24.564-.568-.417.086-.494.345-.92.425.051.609.055 1.228-.002 1.843 4.75-.16 9.633-1.473 14.5-.332.353-.686 3.073-.124 3.662-.683 2.268.471 7.511.74 9.049 0 4.365.435 9.641.928 13.364-.232.762.171 1.122.55 1.723.797.942-.107 1.168-.598 2.374-.565 1.305.677 4.178.66 5.387 0 3.618.719 9.883.551 14.006-.113.587.142.683.55 1.294.678 2.816-.336 5.026.08 8.191-.453.088.218.076.49.644.453.408.03.477-.125.863-.113.264-.196-.372-.958.645-1.023.595.267-.378.645.217.912 2.435-.34 5.415.748 7.113-.23.67.14 1.674.238 2.626.225a6.52 6.52 0 0 1 .02-1.38M338.93 81.359a2.875 2.875 0 0 1-.328.069c-.515-.146-.616-.512-.863-.797-4.83.141-10.636-.344-15.305.342-1.986-.731-5.58-.129-7.977 0-13.93-.98-24.431.29-37.924-.571-.524.144-.494.572-1.297.57-3.432-.517-7.836-.46-12.065 0-.852-.605-3.3-.09-4.743-.57-4.264.223-8.543.28-12.818.29a8.302 8.302 0 0 1-.447 1.561c2.558.066 5.48.42 6.802-.257.832.469 2.679.202 4.097.229.135-.573.989-.767 1.936-.912.249.473-.453.446-.433.8.314.173 1.105.096 1.73.112.47-.251-.215-.466 0-.912 1.322.378 2.807 1.52 4.522.683 11.989.596 25.79-.083 38.798.34-.278-.398-.697-.81.206-1.023.254.515 1.01.763 1.732 1.023 1.201-.492 2.038.062 2.8-.452-.02.197.046.352.217.452 1.508-.17 3.83.251 4.738-.452 1.019.826 3.199-.277 4.093.452.483-.161.998-.309 1.513-.452.565.154.736.514 1.503.565 4.3-.41 8.165-.293 13.367-.113.505-.108.51-.49.863-.684.686.4 1.882.524 2.8.797a24.137 24.137 0 0 1 2.326-.064c.048-.342.103-.684.158-1.026M101.855 79.857v-2.184c0-.425-.148-.788-.44-1.081a1.467 1.467 0 0 0-1.08-.44h-1.587c-.192 0-.287.087-.287.264v4.676c0 .191.095.287.287.287h1.587c.425 0 .785-.148 1.08-.443.292-.293.44-.654.44-1.079zm2.556 9.803c0 .132-.064.198-.195.198h-2.098c-.159 0-.268-.09-.326-.266l-1.572-5.406c-.059-.173-.178-.26-.356-.26h-1.113c-.193 0-.29.089-.29.265v5.403c0 .176-.088.264-.264.264H96.17c-.177 0-.265-.088-.265-.264V73.889c0-.19.088-.286.265-.286h4.165c1.13 0 2.093.4 2.886 1.197.794.799 1.19 1.76 1.19 2.889v2.174c0 1.216-.536 2.285-1.608 3.207-.103.058-.154.16-.154.308 0 .088.278 1.076.837 2.965l.925 3.317zM116.355 85.948v-8.412c0-.426-.148-.784-.44-1.077a1.477 1.477 0 0 0-1.08-.44h-.353c-.426 0-.785.148-1.08.44a1.46 1.46 0 0 0-.44 1.077v8.412c0 .41.15.765.451 1.065.301.3.657.45 1.07.45h.352c.425 0 .785-.146 1.08-.438.292-.293.44-.652.44-1.077zm2.557 0c0 1.128-.397 2.086-1.19 2.877-.794.79-1.757 1.186-2.887 1.186h-.353c-1.132 0-2.093-.395-2.887-1.186-.793-.79-1.19-1.75-1.19-2.877v-8.412c0-1.128.397-2.086 1.19-2.879.794-.79 1.755-1.186 2.887-1.186h.353c1.146 0 2.11.392 2.898 1.175.785.785 1.179 1.747 1.179 2.89v8.412zM133.412 85.948c0 1.128-.397 2.086-1.19 2.877-.793.79-1.757 1.186-2.887 1.186h-.352c-1.132 0-2.094-.395-2.887-1.186-.794-.79-1.19-1.75-1.19-2.877v-1.384c0-.19.088-.284.264-.284h2.028c.176 0 .264.094.264.284v1.384c0 .41.15.765.452 1.065.3.3.656.45 1.069.45h.352c.425 0 .786-.147 1.08-.44.293-.297.44-.656.44-1.086 0-.722-.221-1.274-.663-1.657a568.383 568.383 0 0 1-3.731-3.202c-1.037-.907-1.555-2.09-1.555-3.551 0-1.125.396-2.082 1.19-2.871.793-.79 1.755-1.185 2.887-1.185h.352c1.146 0 2.111.392 2.898 1.175.786.785 1.18 1.747 1.18 2.89v1.427c0 .191-.09.285-.265.285h-2.028c-.176 0-.264-.094-.264-.285v-1.427c0-.426-.148-.784-.441-1.077a1.477 1.477 0 0 0-1.08-.44h-.352c-.427 0-.786.148-1.08.44a1.46 1.46 0 0 0-.44 1.077c0 .688.226 1.229.682 1.624l3.702 3.207c1.042.909 1.565 2.103 1.565 3.58M147.912 75.91c0 .174-.088.264-.264.264h-2.446c-.177 0-.265.088-.265.263v13.158c0 .175-.088.263-.264.263h-2.028c-.176 0-.264-.088-.264-.263V76.437c0-.175-.096-.263-.286-.263h-2.425c-.176 0-.264-.09-.264-.264v-2.02c0-.176.088-.264.264-.264h7.978c.176 0 .264.088.264.263v2.021zM156.44 89.594c0 .176-.088.264-.265.264h-2.027c-.176 0-.264-.088-.264-.264V73.89c0-.176.088-.264.264-.264h2.027c.177 0 .265.088.265.264v15.705zM170.918 85.948c0 1.128-.396 2.086-1.19 2.877-.793.79-1.756 1.186-2.886 1.186h-.353c-1.132 0-2.093-.395-2.887-1.186-.793-.79-1.19-1.75-1.19-2.877v-1.384c0-.19.088-.284.265-.284h2.027c.176 0 .264.094.264.284v1.384c0 .41.15.765.452 1.065.3.3.657.45 1.069.45h.353c.425 0 .785-.147 1.08-.44.292-.297.44-.656.44-1.086 0-.722-.222-1.274-.664-1.657a568.383 568.383 0 0 1-3.73-3.202c-1.038-.907-1.556-2.09-1.556-3.551 0-1.125.397-2.082 1.19-2.871.794-.79 1.755-1.185 2.887-1.185h.353c1.146 0 2.11.392 2.897 1.175.786.785 1.18 1.747 1.18 2.89v1.427c0 .191-.09.285-.265.285h-2.027c-.177 0-.265-.094-.265-.285v-1.427c0-.426-.148-.784-.44-1.077a1.477 1.477 0 0 0-1.08-.44h-.353c-.427 0-.785.148-1.08.44a1.46 1.46 0 0 0-.44 1.077c0 .688.226 1.229.683 1.624l3.702 3.207c1.042.909 1.564 2.103 1.564 3.58M185.419 85.948c0 1.128-.397 2.086-1.19 2.877-.794.79-1.757 1.186-2.887 1.186h-.353c-1.132 0-2.095-.395-2.887-1.186-.793-.79-1.19-1.75-1.19-2.877v-1.384c0-.19.087-.284.265-.284h2.027c.177 0 .265.094.265.284v1.384c0 .41.15.765.451 1.065.301.3.658.45 1.07.45h.352a1.47 1.47 0 0 0 1.08-.44c.292-.297.44-.656.44-1.086 0-.722-.222-1.274-.665-1.657-.69-.585-1.933-1.652-3.73-3.202-1.037-.907-1.555-2.09-1.555-3.551 0-1.125.397-2.082 1.19-2.871.792-.79 1.755-1.185 2.887-1.185h.353c1.146 0 2.11.392 2.898 1.175.785.785 1.179 1.747 1.179 2.89v1.427c0 .191-.09.285-.265.285h-2.027c-.176 0-.265-.094-.265-.285v-1.427c0-.426-.148-.784-.44-1.077a1.475 1.475 0 0 0-1.08-.44h-.353c-.426 0-.785.148-1.08.44-.295.293-.44.65-.44 1.077 0 .688.226 1.229.681 1.624l3.704 3.207c1.042.909 1.565 2.103 1.565 3.58M199.919 89.594c0 .176-.09.264-.265.264h-7.977c-.178 0-.264-.088-.264-.264V73.89c0-.176.086-.264.264-.264h7.977c.175 0 .265.088.265.264v2.02c0 .176-.09.264-.265.264h-5.4c-.19 0-.285.088-.285.265v3.775c0 .178.094.266.285.266h4.74c.174 0 .264.094.264.282v1.983c0 .188-.09.283-.265.283h-4.74c-.19 0-.284.087-.284.263v3.756c0 .176.094.264.285.264h5.4c.175 0 .265.088.265.263v2.021zM211.863 79.857v-2.184c0-.425-.148-.788-.44-1.081a1.464 1.464 0 0 0-1.08-.44h-1.589c-.19 0-.285.087-.285.264v4.676c0 .191.095.287.285.287h1.588c.427 0 .786-.148 1.08-.443.293-.293.44-.654.44-1.079zm2.556 9.803c0 .132-.066.198-.195.198h-2.098c-.16 0-.268-.09-.325-.266l-1.572-5.406c-.06-.173-.178-.26-.357-.26h-1.115c-.192 0-.288.089-.288.265v5.403c0 .176-.088.264-.264.264h-2.028c-.178 0-.264-.088-.264-.264V73.889c0-.19.086-.286.264-.286h4.165c1.13 0 2.094.4 2.887 1.197.793.799 1.19 1.76 1.19 2.889v2.174c0 1.216-.537 2.285-1.609 3.207-.103.058-.154.16-.154.308 0 .088.279 1.076.838 2.965l.925 3.317zM222.947 89.594c0 .176-.09.264-.264.264h-2.027c-.177 0-.265-.088-.265-.264V73.89c0-.176.088-.264.265-.264h2.027c.175 0 .264.088.264.264v15.705zM233.868 84.54c0 .117-.194-.9-.584-3.05 0-.059-.04-.088-.118-.088-.05 0-.087.028-.119.084-.393 2.151-.59 3.166-.59 3.05 0 .151.074.226.227.226h.955c.153 0 .229-.073.229-.223zm3.577 5.099c0 .146-.072.22-.218.22h-2.062c-.19 0-.301-.09-.33-.266l-.387-2.02c-.028-.176-.14-.263-.33-.263h-1.897c-.19 0-.3.087-.33.264l-.39 2.018c-.03.177-.14.266-.33.266h-2.057c-.145 0-.217-.073-.217-.22v-.043l3.019-15.71c.044-.187.148-.283.311-.283h1.89c.177 0 .281.09.31.264l3.018 15.773z"/><g><path d="M33.66 16.162l-.054-.053-.053.213-.054.16v.32l.16-.16.054-.373-.053-.107zm-.75-.427l-.16.054-.321.053h-.052l.32.107-.161.32.053.107.054.053h.16l.16-.16v-.427l-.053-.107zm-.533 4.32l-.27.108v.319l.11.055h.105l.16-.055v-.212l-.105-.215zm-.216-.159l-.214-.213h-.107l-.16-.055-.054.162v.106l.107.054.107.105.321-.159zm-.482-.695l.11-.318-.11-.054-.319.32h-.27l-.106.214v.32l.107.107.053.106.16-.106.108-.054.16-.373.108-.162zm-.802 1.974l-.106.108-.055.372.107.162.109.212.105-.426-.053-.375-.107-.053zm.374-4.746l.214-.213.161-.054-.214-.053h-.213l-.162.107-.533.213v.053l.267.054.48-.107zm-1.068 1.44l.212-.053.216-.16v-.107l-.107-.106-.109-.054-.16.107-.108.107.056.106v.16zm.266 2.294l-.266.052-.268.161.052.054.053.107.056.053h.32l.108-.108.052-.16-.052-.107-.055-.052zm0-1.173l-.641.638h-.054l-.055.162v.053l.109.107.107.053.052.052.321-.159.16-.213.163-.32.053-.427h-.108l-.107.054zm-1.178-3.201l.216.053.212-.053.16-.107-.105-.107-.267-.053h-.16l-.108.107.052.053v.107zm.376 2.774v-.054l-.269.054-.107.106-.16.054-.052.16-.055.107h.107l.055.053.16-.053.321-.214v-.053l.052-.108-.052-.052zm-.376.96l-.16.16-.213.16-.16.212-.107.16h.107l.16-.052.268-.267.105-.16.055-.108v-.052l-.055-.053zm-.64-1.387v.053l.051.054.11-.054.16-.16-.109-.053-.105.053-.107.107zm.051 5.12l-.105.106v.107l.054.053.107-.053.053-.107-.109-.106zm8.35 1.226l.106-3.732v-1.92l-.214-1.868-.214-.586-.535-.267-.696-.053v1.76l-.053 1.867-.054 1.812.214 1.974-.053 1.92-.054.374-.16.587-.214.373-.482.267-1.23.266-1.872.16-1.606-.053-1.338.107v.853l.321.534.64.213 1.661.107 1.658-.16 1.659.053 1.606-.16.695-.16.375-.48.053-1.867-.214-1.92zm-8.937-3.625l-.16.051-.109.109v.051h.055l.054-.051.16-.054.054-.106h-.054zm-.16.426l-.109.052-.052.055v.053h.107l.054-.053h.052l.055-.107h-.107zm.16-1.867l-.053-.053-.107-.053h-.109l-.105.158v.215h.214v.053l.107-.053.107-.107-.054-.053v-.107zm-1.07 1.92v.054l.053-.055.108-.052.107-.108-.107.053-.161.107zm-.055-.16h-.052l-.109.16.16-.16zm-.213-.746v.212l.107-.052.106-.108.216-.427v-.265l-.161.053-.055.16-.106.107-.107.32zm.696-1.76l.107-.107.16-.107.161-.32.054-.16.107-.213.16-.054.107-.053.322-.107h.32l.108-.053v-.16l-.16-.054-.268-.106-.216.213-.48-.107-.16-.106-.161-.16v-.16l-.107-.054-.214.054-.054.106-.107.107v.32l-.054.16-.053.214-.16.053-.108.053-.053.16-.054.054v.16l-.053.16v.16l.053.106.16.054.108.106.107.214.053.267h.215l.32-.054.053-.106.055-.054.16-.053.16-.107.108-.053v-.16l.053-.108h-.053l-.054-.052-.108.052-.052.054-.16.107-.161.053-.216-.053.055-.053v-.054zm-.644 2.933l-.159.107-.16.052-.107.055h.053l.107-.055.16-.052.106-.107zm-.426-1.76h.16l.107.053h.054l.053-.053.107-.215-.055-.105v-.055l-.212-.318-.107-.054-.107.054h-.107l-.107.16.214.533zm-.321-3.52l.16-.054h.107l.054.053h.107l.053.267-.16.16v.16h.214l.107-.107h.105l.751-.32h.054l.052-.16.108-.106.107-.32-.535-.16h-.91l-.107.053-.16.053-.268.054-.16.213.212.107.109.106zm.053 1.653l-.107-.16h-.16v.373l-.161.32.054.16.16.107.16-.32h.108l.053-.48h-.107zm-1.07-.053l-.054.213-.16.107v.266h.053l.214-.106.16-.214.054-.213v-.053h-.267zm-.107-2.988l.214-.213-.054-.107h-.053l-.16.054-.054.106v.107l.107.053zm.91 2.08l-.161-.426-.321-.373h-.054l-.267.106-.16.32-.054-.053-.16.32-.161.373.32.427.161.054.321-.054h.054l.321-.32v-.053l.16-.32zm-1.338 3.467v-.16l.107-.212-.16-.16-.215.105.054.215v.106l-.054.054v.267l.214.211.107.055.054-.055.053-.211-.16-.215zm-.268-4.907l.054.214h.107l.053-.214-.107-.213-.107.213zm.16-.586l.108-.214-.054-.053h-.107l-.16.16v.32l.214-.213zm-.535 17.655h-.16l-.054.16.107.107.214-.107-.053-.106-.054-.054zm.054-14.988h-.16l-.161.16-.054.213.054.054.16.053.428.053.429-.053-.375-.213-.268-.16-.053-.107zm.053 1.067l-.32-.214-.108-.106-.107-.054-.053.16.053.16v.374l-.053.213.16.212.268.055.214-.213.214-.054-.054-.213-.214-.32zm-.481 1.387l.267-.267-.214-.107-.16.054-.054.16.054.105.107.055zm0-3.628l-.054.107.16.32.054-.053.375.16.214-.16h.054l.214-.534-.214-.266-.375.053-.268-.16-.32.107.053.213.107.213zm.107 4.108h-.268l-.32-.053-.161-.055h-.054l-.054.108.054.318.535.16h.107l.214-.211-.053-.267zm-1.178 11.84l.268.428.321.106.107-.106.054-.107-.321-.107-.429-.213zm-.428-13.92l-.053.16v.266h.267l.054-.267-.16-.213-.108.053zm.054-2.775l.16-.053.054-.053-.054-.16-.16-.054h-.107l-.107.16.107.107.107.053zm-.107 1.868l.053.053.107-.213v-.16l-.053-.054h-.107l-.107-.053h-.16l-.161.053.053.107.107.053.107.107.16.053v.054zm-.321 14.774l-.161.054v.16l.054.107h.053l.16-.054.054-.213h-.107l-.053-.054zm-.214 1.014l-.108.107-.053.106v.054l.053.106.108-.053.053-.053v-.107l-.053-.16zm-.643-2.08l.107.32h.16l.108-.054v-.373l-.214-.267-.16.374zm0-11.096l.054-.105-.054-.107h-.107l-.107.052-.053.055.214.105h.053zm-.053-3.68l.107-.106-.054-.16h-.16l-.054.053-.053.107.214.107zm-.054 18.563l-.16.053-.054.214v.106l.16.054.161-.108.16-.159-.106-.107-.16-.053zm-.16-15.842l.214-.055.107-.211-.107-.107-.16-.054-.215.107-.107.16.16.105.108.055zm.214 15.255l-.16-.213-.268-.16-.16.107-.108.16.107.213.214.053.16-.053.215-.107zm-.75-3.52l-.053.32h.321l.107-.32-.214-.214-.16.053v.16zm.59 1.547l-.75 1.493.75-.32.534-.48.054-.373-.268-.32h-.32zm-.59-17.443l.108-.053v-.107l-.161-.16-.107.054v.106l.053.107.108.053zm-.053 5.015l-.16-.16h-.215l-.053.265.321.107.214-.052.214-.16h-.321zm0 11.947l.268.16.428-.106-.268-.16-.267-.107h-.054l-.107.053-.482-.266-.535.373.482.107.535-.054zm-.803 1.227l-.16-.213-.214-.213.107.533.91-.16-.322-.267-.32.32zm-.267-15.521l.053-.214-.107-.16-.107-.213-.16.16-.108.213.108.214.107.053.214-.053zm.32 16.588h-.16l-.107.107-.267.213-.268.267v.052l.053.055.375-.107.482-.16.053-.16-.053-.16-.107-.107zm-.16-3.2v-.054h-.267l-.375.054.321.213.268-.053.053-.16zm-.642-15.416h.16l.054-.213h.321l.16.267.268.107.268.053.321-.053.16-.107-.106-.214-.108-.053-.32-.053-.215-.214-.053-.213v-.053l-.16.053-.054.053.16.16-.374-.053-.321-.053-.215.106-.107.16.054.214.107.106zm-.321 18.456l.589.214h.053l.107-.054.268-.213-.107-.32h-.268l-.428-.054-.375-.213.16.64zm.214-2.24l.053-.054v-.16h-.32l-.108.107.107.107.107.053.16-.053zm-.589-14.242l-.107.214.16.106.108-.16.053-.32-.214.16zm-.267 14.989l.053.266.214.16.054-.053.053-.107-.107-.213-.267-.053zm.535-15.416v-.266l-.16-.214-.108.054-.053.106-.214.374.267.107.268-.16zm-.268 13.282v.213l.054.32.053.16.107.214.535-.854-.214-.107h-.214l-.32-.16-.322.214h.321zm.321 4.426l-.428-.319-.32-.16-.215.319.214.587.642.108.321-.16-.214-.375zm-.802-17.334l-.213-.213-.16-.107-.056.053v.107l.161.16h.268zm10.757 18.242l.214-1.974-.162-1.973-.213-.16-.481.106h-.91l-.107 1.12.16 1.868.054 2.08-.107.8-.054.372-.107.427-.269.32-.373.16h-.321l-.482.053-2.301.109-2.194-.162-3.747-.105v.478l.054.854v.962l.053.478.964-.053h.588v-.16l.054-.48.053-.214.268-.16.321-.053 4.442.107 2.194.16 2.195-.107.374-.267.054-.533-.054-2.026-.16-2.027zm-11.346-8.162l1.338-.053h.214l-.107-1.707-.054-.533.16-.267 2.356-.107 2.462.107 1.391-.053-.053-.854v-.907h-1.82l-2.462.267-2.462-.212-1.07.052.053 2.187.054 2.08zm-.321-8.907l.108.16h.266v-.053h.054l.053-.053-.107-.107h-.16l-.16-.053-.054.106zm.642 11.468l-.375.267-.267.32-.054.267.268.053.214.267.321-.054.214-.213-.107-.267v-.427l.107-.16-.053-.213h-.107l-.161.16zm-.856-14.188l.214.107h.053l.055-.107-.108-.16-.214-.053v.213zm.963 15.575l-.107.107v.213l-.105.213-.216.054-.428.267-.16.48.108.106.32-.213.16-.373.267-.16.322-.107.16-.16v-.267l-.107-.16h-.214zm-1.284.053v.32l.215.267.106.053h.107l.053-.266-.16-.267v-.107L16 31.631l.109-.214-.16-.213-.216.16.055.267v.053l-.055.053zm-.107-14.615l-.054.107.321.267.375-.16.16-.107-.052-.107-.428-.053-.322.053zm-.054-1.12l.216-.106.266-.267.055-.214-.16-.213-.216.053-.054.16-.214.427.055.107.052.053zm1.552 19.841l-.268-.16-.32-.158-.16-.16v-.747l.373-.427.107-.587.536-.32-.214-.32-.373-.16-.27.32-.214.267.214.213-.053.372h-.428l-.321-.105-.268.267-.16.267.106.266.215.054.162-.214.16-.053.16.16v.427l.16.32-.054.318.321.16.054.269.053.318.643-.052.588-.266-.428-.214-.321-.055zm-1.604-.745h-.323l.107.16.161.107.107-.107-.052-.16zm-.589-3.2l-.108.053v.16l-.052.213.16.053.16-.053.106-.213-.053-.16-.213-.054zm0 2.613l-.215.107-.16.212.053.16.162.055.212-.055.109-.212-.055-.16-.106-.107zm-.267-18.722l.107-.107.052-.16h-.052l-.055-.053-.16.053v.107l.053.106.055.054zm.159 15.682l.16.106.109-.106-.055-.214-.214.054-.214-.16h-.213l-.108-.267-.213-.107-.321.053-.214.214.052.213.267.054.056.213v.213l.212.534.27-.427.426-.373zm-1.66.373l-.16.267.16.16.216-.107.107-.32-.16-.053-.162.053zm-.105 8.32l-.055-.213.107-.159v-.161l-.159.053-.053.16-.055.267.215.213v-.16zm-.055 4.481l.16-.213-.053-.214h-.107l-.052.054-.214.16.054.16v.373l-.054.427.214.213.052-.106.055-.16-.055-.374v-.32zm-.962 4.321l-.107-.053v.427l.16.213h.16l.055-.053-.162-.267-.106-.267zm.534-6.828v-.053h-.052l-.482.16-.16.48.32-.16h.536l.054-.267-.216-.16zm-.105-8.64l-.108-.747.052-.267.109-.32.052-.32-.213-.213-.215.053v.213l-.052.534v.587l.107.32-.216.16-.159.266.427.054.216-.32zm-.161 1.653l.105-.161-.105-.265-.268-.054-.214.054-.053.213.107.16.214.053h.214zm-.963 3.468v.265l.052.213.16-.106.109-.107.107-.212-.216-.16-.212.107zm-.429-7.202l.107-.053.054-.107v-.106l-.107-.107-.107.053-.054.16.054.107.053.053zm0 12.001l-.214.054-.053.16.214.213.214-.107.107-.16-.16-.106-.108-.054zm.107-10.507l.106.213.268.16-.16-.693-.535-.053-.162.053-.105.107.267.213h.322zm-.428 1.227h-.107l-.107.107-.053.106.053.054.107.053.107-.107.054-.106-.054-.107zm-.802 1.494h-.107l-.054.106v.16l.16.16h.108l.107-.106-.054-.214-.16-.106zm-.107-3.308l-.054-.107-.107-.106-.107.106v.16l.053.107.107.054.108-.054v-.16zM9.472 45.34v-.267l.054-.107v-.053l-.054-.107-.214-.106h-.107l-.107.053-.053.053h-.107l-.107.054.053.106.107.107.054.107.16.16.16.106.108.107.107.053.053-.106-.053-.054-.054-.106zm-1.23-2.454l.107.16v-.16l-.107-.214v.214zM7.92 32.75l-.053.053-.054.107.268.053.321-.053-.268-.16H7.92zm-.107 13.761l-.053-.053-.054.107-.053.053-.054.16v.267l.054.053-.054.053-.107.054-.107-.054-.053.054v.053l.053.16.107.054.16.053.054-.053.054-.107v-.427l.053-.053.107-.054v-.266l-.107-.054zm-.963-.16h-.053v.214h.16v-.054l-.053-.106-.054-.054zm0-2.667l-.107.107.054.106.107.054h.053l.054-.054-.054-.106-.107-.107zm-.107 4.641v-.053l-.16-.054-.268.054H6.26l-.16-.054-.107.054v.266l.214.267.214-.053.107-.267.16-.053.054-.054.107-.053h-.107zm-3.479.64l-.053.107v.053l.214.16h.267l-.214-.213-.214-.107zm19.961-.373v-1.76l-.214-.64-.642-.267-.803-.054-.053 1.494.16 1.814-.107 1.76v.213l-.107.427-.107.319-.214.535-.428.318-.321.16-.696.16-.589.055-1.605.053-1.873-.053-3.692-.215-1.82-.052H8.296l-3.64-.108-1.712.268.054.746.267.64.589.266h1.82l1.873-.266 3.693.106h1.871l1.821.055 3.692.212 1.873.054 1.82-.214.642-.213.267-.64.107-1.707-.16-1.76.053-1.706zm-3.746-5.548l.642.267.214.64v1.76l-.053 1.707.16 1.76-.107 1.708-.267.64-.643.213-1.82.213-1.872-.054-3.692-.212-1.82-.055H8.35l-3.693-.105-1.873.265H.965l-.59-.265-.267-.64L0 49.18l.16-1.76-.052-1.708.16-1.707.213-.587.484-.213 1.282-.053h1.338l.59-.267.267-.534.16-1.972-.107-1.975v-3.946l-.107-3.948v-1.973l.054-1.974.16-2.027-.107-1.972-.32-.482-.643-.105-1.285-.055H.965l-.537-.319-.16-.64-.16-1.707.106-1.707-.106-1.76.213-1.654.107-.693.537-.32 1.978-.054 2.087.214 1.98.053h2.034l2.034-.053 2.032-.107h4.014l4.014.107 2.034-.054 2.033-.106 4.014.106 2.032-.106 2.034.106.535.267.214.587.214 1.867v1.92l-.107 3.734.214 1.92-.053 1.866-.375.48-.694.16-1.607.16-1.66-.053-1.657.16-1.659-.107-.642-.213-.321-.533-.054-1.174v-1.174l-.267-.638-.482-.32h-2.408l-2.408.267-2.462-.215-2.354.108-.16.267.16.531.052 2.668.056 2.614.16.48.373.213 2.14-.053h6.37l.481-.107.214.16.16 1.974-.213 1.974.16 2.027.054 2.027-.054.533-.374.265-2.195.107-2.194-.158L16 37.71l-.535.32-.16.589v.852l.055.908v.959l.051.96.161.587.537.267 1.71-.16 1.66.053zM74.868 48.7l.108.212.107.107.214.107.16-.16-.107-.214-.267-.053h-.215zm-1.123-24.965l-.054-.106-.16.106v.16l.053.109v.106l.107-.16.054-.16v-.055zm-.268 26.458h.214l.16-.054.161.16h.16v-.16l-.213-.106-.214-.054-.268.214zm.107-25.656l-.053-.215-.215-.052-.16.052-.054.16.054.107.053.053v.055l.161.107.107.053.054-.053h.053v-.267zm-.535 3.626l-.054-.107v-.106h-.16l-.16.053-.108.16-.107.107-.107.213.107.16h.214l.16-.16.215-.32zm-.856-6.88l.053.16.054.107v.053l.053.107.16.053.215.053.16-.266.16-.32-.106-.16-.268-.534-.374-.16-.107.32v.587zm6.208 7.68l.214-2.667-.054-1.974-.374-2.025.963 1.547.16.373.268 1.6.054 1.973-.214 2.613-.536 2.188-1.07 2.453-1.66 2.134-1.658 1.226-1.873 1.013-1.07-1.439 1.926-1.013 1.66-1.28 1.658-2.134 1.07-2.454.536-2.134zM71.39 45.232l.16.106.214-.106-.214-.054-.16.054zm-.107 3.52l.107.32v.427l-.054.107.268.107.215-.214v-.053h.052l-.107-.533-.481-.16zm.32-17.655l-.16-.107-.16.054-.107.106v.054l.16.106h.16l.108-.053v-.16zm.536-8.64l-.268.053-.535-.267-.053-.053-.054.053v.107l-.053.16v.372h.107l.32.108.108.107.108.053.106-.16.053-.16h.375l.054.48-.054.374.321.211.268.16.214-.105v-.266l-.214-.107-.054-.214.107-.16.214-.053.322-.213.107-.16.32-.054v-.533l.161-.107.107-.16.16-.107.108-.106v-.054l-.803-1.013v-.053h-.107l-.16-.16-.322-.214.107.48.054.214.214.266.054.267.214.534-.054.266-.107.32-.321.107-.321.053-.321-.32h-.16l-.322.054zm-1.07 6.986h-.106l-.055.107-.105.107.052.106h.16l.054-.106v-.214zm-.266-9.707l.052.107v.053l.214.213h.107l.214.107.107.107h.053l.375.16v-.16l-.16-.16-.054-.107-.107-.053-.268-.32-.32-.16-.161.053v.107l-.052.053zm.373 5.068l-.107-.215-.16-.052-.161.105-.054.215.109.107h.32l.053-.16zm-.482-2.614l.109.32.212-.213-.052-.269-.055-.051h-.105l-.109.213zm0-1.707l.109.16.052.107.267.426.054.427.374-.48-.214-.64-.107-.107-.214-.107-.16-.106-.107.16-.054.16zm.054 5.388l-.107-.054-.108.105v.267l.161.16.214-.106v-.214l-.16-.158zm-.536 21.761l.107.214.214.106.108-.106h.053l.054-.16-.054-.16-.214-.107-.106.053-.162.16zm1.66-20.003l-.108-.32-.481-.16-.214-.053-.054-.105-.107-.108-.105-.052-.109-.107-.268-.16-.107.052h-.16v.108l.16.107.429.318.428.269.16.051h.16l-.053.32.107.214.16-.159.054-.108.107-.107zm-1.285-4.799h-.213l-.267.267.052.106h.16l.055-.053.106-.053h.107l.107-.055.054.055.055.106.32.214.053.052h.16l.214.108.054-.108v-.052l.053-.054-.16-.106-.107-.107h-.16l-.215-.053-.052-.107h-.108l-.161-.108-.107-.052zm.107 5.493l.16-.053.11-.054-.323-.106-.215-.107-.052-.053-.162.213-.214.16-.107.108.055.159.16-.054h.106l.214-.16.054-.053h.214zm.27-4.8h-.27l-.107.054h-.054v.052l-.053.055h-.106l-.108.051-.214-.106-.106.106-.055.109.16.211.268-.105.055.054h.374l.215-.269v-.212zm-1.178-5.494l.052.16.108.107.16.106.16-.106.053-.107-.107-.16h-.426zm1.122 7.467l.107-.054h.16l-.053-.051-.428-.16-.16-.107-.16-.055.052-.212-.16-.108-.16.108.053.212v.055l-.052.052v.108h-.27l-.106.052.16.16v.055h.268l.053-.109.107.054h.59zm-.428-4.693l-.214-.16-.589-.374.109.427.212-.053.214.053-.053.267v.107l-.052.16.159-.214.214-.213zm-.856 1.547l.107.16h.16l.055-.16-.215-.213-.107-.054-.054.107.054.16zm-.054-3.36l.107.266h.375l.055-.213-.16-.214-.161-.053-.216-.054v.267zm.428 26.562l-.052-.107h-.16l-.109.053h-.107l-.16.054h-.107l-.107.106.055.107.052.053h.055l.105.107.055.107.052.213.16-.053.108-.107.053-.106.107-.107-.052-.053v-.107l.052-.107v-.053zm-.856-18.243l.054.109.055.051h.107v-.051l-.162-.162h-.106l.052.053zm0 1.654l-.16-.16-.108.053v.107l.055.107h.052l.054.053h.107v-.16zm-.373-6.826v.053h.052l.214.267v-.374l-.106-.106h-.108l-.107.106.055.054zm.321.586l-.428-.053v.267l.159.213.053.373.216.106h.106l-.106.055-.055.051.216-.051h.426l.109-.055.16-.16.106-.052v-.054l-.106-.053h-.215l-.107.107-.106.052-.16.108-.162.052-.054-.106-.107-.16.16-.106.215-.16.108-.215.106-.159h-.534zm-.75-3.68h.213l.054-.107v-.107h-.213v.107l-.053.053v.054zm1.07 2.56l-.052-.16-.162-.16h-.054l-.052-.053-.216-.16-.212-.32-.376-.214.267.534.216.106.16.32.052.054v.053h.429zm-1.176-1.974l.052.427.267.16.321-.107.536-.213.642-.267-.801-.266h-.698l-.32.266zm-.376 1.92l.107.267.108.054.16-.107.161-.16-.269-.213-.267.16zm.483 8.428h-.323l-.266.106v.16l.266-.053.323-.213zm-.751-10.348l.055.054v.053h.107l.106-.107v-.106l-.052-.054h-.109l-.107.107v.053zm1.391 29.87l-.16-.106-.107-.107-.48-.053h-.27l-.267-.054-.052-.106h-.216l.109.32.052.053.323-.053.32.106.268.16h.428l.052-.053v-.107zm-1.657-28.323l.373-.16.055-.32-.107-.106h-.16l-.161.213v.373zm-.162 19.896l.055.107.052.053h.108v-.215l-.053-.053h-.107l-.055.108zm.162 1.28l.214-.054.268.16.267.053.052-.053v-.105l-.32-.215h-.376l-.16.055-.16-.107-.053-.16h-.16l-.107.105v.107l.052.16.215.055h.268zm-.696-23.523l.321.374-.053-.48-.268-.267h-.16l-.055.106.215.267zm15.305 28.963v.694l-.109 1.76v1.707l-.105 1.76.105.587-.266.374-1.873.105-1.873-.16-1.873-.052-1.873-.108-1.873.108-1.874.16-1.873.052-1.873-.265-.373-.267-.107-.533v-.64h1.391l3.638-.267 1.82.106 1.82.054 1.873.16 2.087-.16h.589l.535-.267.267-.373.054-.64-.054-.427v-.534l.054-1.707v-1.654l.107-1.44h.694l.59.267.16.213.054.374.16 1.013zm-15.465-2.027l-.055-.107-.106-.106-.162.053-.052.107v.106h.159l.109.054.107-.107zm-.803-27.576l.16.16.16-.107v-.053l-.053-.107h-.267v.107zm.053 23.842l-.053-.32-.214-.16v-.052l-.055-.16-.106-.055-.214.16-.107.267.16.16.267-.053.322.213zm-2.408-2.399l-.053-.215h-.108l-.053.055v.212l.16.215.054-.267zM58.493 18.19l.107.16h.054l.053.053.215.107.107-.16-.107-.213h-.215l-.214.053zm-1.016 1.44l.32-.106.161.16.107-.054v-.106l-.16-.054-.214-.053-.214.213zm.428 21.068l.695.854h-1.284l-.054-.052v.799l-.642-.054h-.856v-1.758h1.07l.75.051h.16l.16.16zm6.743-16.16l.054.105-.59.055-.695-.055h-.75l-1.07.055-1.016-.055h-1.445l-1.285-.053-.321.108-.214.212-.107.322v1.438l-.054.8v.747l-.053 1.12v.534h-.268l-.588-.053h-.59v-.8l-.053-.8v-1.761l.054-1.065v-.802l.053-.799v-.853l.322.053.642.052.803.161 1.177.054 1.177-.054.803-.106.642-.055.964-.052.642.052.482.215.481.372.428.426.375.482zm-8.777-5.815l-.482-.053.162.213.052.267v.214l.214.053.161-.16v-.107l-.107-.427zm-.803-3.094h.16l.161-.106h-.16l-.16.106zm-.481 1.974l-.052.054-.056.106.056.214.16.053.106-.107v-.106l-.054-.16-.16-.054zM65.772 28.91l.321-.747.214-.854.054-.905-.054-.908-.214-.799-.375-.802-.481-.638-.535-.587-.696-.48-.803-.374-.963-.106-1.07.053-.75.053-.696.107-1.07.054-1.017-.054-.75-.107-.695-.106-1.07-.054-.321.107-.214.213-.108.32-.053.32v1.12l-.054.801v.747l-.053 1.12v1.919l.053.747.054 1.12v.373l.16.267.215.16.32.107h1.071l.75.053h.695l1.07.054 1.07-.054.75-.16.75-.106 1.98-.107.802-.267.696-.373.589-.534.428-.693zM54.265 14.402l.054.053v.053l.16-.053.056-.053-.109-.107h-.107l-.054.107zm-.107 5.227l-.212-.213h-.268l-.055.053-.16-.053-.107.16.107.107.215-.054h.106l.162.107.212-.053v-.054zm-.856-2.987l.216.053.105-.16.055-.213-.16-.16-.055-.16-.16.053-.269.16-.16.267-.107.053v.107l.107.053.16-.053h.268zm-1.445 15.895h-.16l-.108.214-.051.266.212.214v-.214l-.053-.16.16-.16v-.16zm-.16 5.068l-.052-.215-.056-.052-.051.052-.161.215v.373l-.054.214.161.16.105-.16-.051-.214.051-.106v-.107l.108-.16zm-.427-18.722l.053.106.054.054.107-.107.054-.107v-.107h-.11l-.158.054v.107zm-.375 16.695h.482l.107-.267-.214-.213h-.054l-.483.106-.105.534.267-.16zm-.055 5.174l-.212-.215h-.107l-.054.109.054.158.16.053.052-.053.107-.052zm-.533-8.855l.16-.107.106-.106.055-.267-.16-.107-.161.107-.054.267.054.213zm-.482 15.789l-.214.213-.054.267.054.053h.053l.161-.213v-.32zm.107-11.095l-.107-.106-.109-.054-.212.054-.054.213.214.213.161-.106.107-.214zm-.482 8.48l-.053-.266-.16-.107-.11-.16-.051-.16-.16.214.106.32-.053.053-.054.16.107.107h.214l.214-.16zm-.588-28.322l.107.053.159.053.108-.106.214-.427.266-.107.162-.16-.053-.106h-.054l-.32.106-.161.267-.054.16-.16.053h-.107l-.107.107v.107zm-.268-.8l-.053-.054h-.215v.054l.054.106h.16l.054-.106zm-.268 22.616v-.321l.107-.212-.16-.214-.214-.053-.16.213-.161.054v.212l.16.268.375.373h.107l.053-.16-.107-.16zm-.695-21.07l.053.267.16.16.161-.053.107-.16.107-.053.161-.107-.214-.107-.268.054-.16-.054-.107.054zm.749 25.87l-.16-.159-.161-.108-.214-.107-.107-.32-.214-.213-.107.106.107.375.32.267.161.052.054.16-.054.16.107.16.16-.053.054-.107.054-.213zm-.91.693l-.053-.053-.054.106-.053.054v.16l.053.053.107-.053v-.267zm-.16-8.267l.053.214.054-.214-.107-.16v.16zm-1.178.907l-.107-.053h-.053l-.054.106.054.107.107.053h.053v-.213zm-.428-18.296l-.214-.16-.214-.106v.16l.16.106h.268zM61.597 47.26l.161.96v.854l-.16 1.547v1.547l-.054 1.547-.054.266-.214.212-.588.215-1.874.16-1.926.107-1.873-.107-1.873-.16-3.799.212h-3.8l-1.926.108-1.873-.16-.214-.32.107-.533v-.694l.963-.053h3.853l3.691-.215 1.822.161 2.085.107 1.927-.16 1.98-.053.75-.107.428-.053.428-.16.16-.267.107-.48v-.374l.054-.586.053-1.547v-1.44l.107-1.281.75.107.374.106.214.214.214.32zm5.78 4.534l-1.873.053-1.873-.266-.374-.267-.108-.533.054-2.24.16-2.241v-.267l-.053-.267-1.017-1.547-1.07-1.494-2.355-2.88-.482-.427-.588-.16-.91-.052h-.91l-.482-.108-.481-.052-.268.107-.16.16-.108.587v2.986l.108.48.214.16.214.053 1.445-.053 1.391.16.375.108.214.212.214.32.16.96v.854l-.16 1.547v1.547L58.6 50.78l-.053.266-.214.214-.589.213-1.873.16-1.925.107-1.873-.107-1.873-.16-3.8.213h-3.8l-1.927.107-1.873-.16-.214-.32.109-.533.052-1.974.107-1.92-.107-1.921.214-1.92.214-.266.428.052 1.498.16 1.499-.052.535-.215.107-.213.054-.318.107-1.974-.16-1.975.16-1.973.107-1.973-.214-3.948.16-1.974.107-1.972-.107-1.974-.16-1.973.053-.587-.053-.32-.16-.054-2.996.32-1.072-.106-.321-.32v-.587l-.052-1.707v-3.414l.105-1.707.107-.374.268-.266.428-.266.482-.108 3.692.214h3.747l1.82.053h1.872l1.818.053h1.874l3.692-.212 5.62.159 1.764.267 1.929.373 1.71.587 1.713.907 1.499 1.013 1.338 1.387 1.017 1.547 1.016 1.6.75 1.706.32 1.867.054 1.867-.16 2.294-.589 2.134-.856 2.027-1.338 1.867-1.713 1.227-2.087 1.174-.268.266-.16.374v.426l.16.32 1.552 2.188 1.66 2.078.32.267.429.054 1.873-.106 1.873.052.589.267.16.213.054.374.16 1.013v.694l-.107 3.467-.107 1.76.107.587-.267.374-1.873.106-1.874-.16-1.873-.053-1.873-.107-1.871.107-1.874.16zM103.288 22.83l.482-.16.267-.48.214-.48.054-.854.214-1.867-.107-1.652.107-1.282.75.107.588.161.16.532.16 1.654-.106 1.76.107 1.707-.16 1.44-.161.64-.535.267-1.445.16-1.499-.053-.428.053-.214.107-.214 2.027.16 2.027-.053 2.08v6.134l.053 2.027.054 2.08-.054.854-1.177-.053h-.482v-1.654l.054-2.08-.054-2.081-.052-2.027V27.79l.052-2.134-.16-1.974.053-.64.964.053 1.552-.053.374-.107.482-.106zm-6.315-3.201l.108.107.107.053.054-.053v-.107l-.054-.107h-.107l-.108.107zm-.801 1.44l.214.107-.214-.32v.213zm-.215 26.243l-.108-.105-.213.051-.107.16v.107l.052.054h.216l.16-.106v-.161zm-.481-6.347l-.055-.053-.052-.107-.16.107v.373l.16-.16.107-.16zm-.216-6.188l-.105.16-.054.107.054.267.214.053.107-.053.053-.16-.16-.16-.109-.214zm-.159-9.067l-.108-.213-.16.16v.107l-.053.053v.267l.213.053.162-.213-.054-.214zm.054 18.828l-.214-.105-.214.105-.108.267.054.266.214.109.16-.16.054-.215.054-.267zm0-2.826L95.1 41.5l-.214-.107-.16.053-.108.16.054.214.268.16.16-.053.054-.214zm.481-3.467l-.215-.374-.373.214-.16.266-.161.214-.163.427.323.213.589-.213.16-.747zM94.62 36.59l-.16.053-.107.107v.214l.107.106.268.32.214.32.107-.106-.214-.747-.054-.214-.16-.053zm.054-1.12l-.054-.214-.16-.213-.214.16-.107.32.053.16.16.16.213-.106.109-.267zm-.375 11.149l-.214-.215-.053.055v.105l.053.16.107.053.054-.053.053-.105zm-.267-27.631l.107.053.053.054.054.16.107.16v.266l.107.054h.053l.052.053.27-.053v-.107l.053-.053v-.107l.054-.053.052-.107-.106-.213-.323-.214-.16-.053h-.16l-.053-.054h-.053l-.107.054v.16zm.107 17.922l-.375.107v.8l-.214.427.642-.16.213-.694v-.106l-.052-.054-.214-.32zm-.696-15.415l.16.053h.161l.107-.16v-.16l-.107-.053h-.16l-.107.16-.054.16zm0 12.695l-.16.106.107.107.107.053.053-.053.107-.053-.053-.107-.054-.053h-.107zm-.16-9.014l-.268-.107.214.32-.054.16.054.16.16-.053-.053-.213-.053-.267zm-.054 11.68l-.428.428.535-.107-.16-1.014-.268.32.321.374zm2.73 2.241l-.322.64-.107.107-.053.107h-.75l-.481-.427-.589-.16-.428-.587-.268.214-.214.48.375.32.268.213.214-.267.428.107-.054.427-.053.373.267.267.268.213.321-.106v-.214l-.216-.16-.052-.266.215-.107.374-.053.375-.107h.32l.161-.32.32-.054.321-.106-.105-.694-.268-.693-.268.48v.373zm-3.265-.64l-.054.32.321-.053.107-.213v-.107l-.107-.054-.267.107zm-.214-15.202l.267.054h.107l.375-.32-.107-.48-.16.266-.322.16h-.107l-.053.054v.266zm-.054 8.429l.16.105.161-.16-.053-.105-.107-.162-.107.054-.054.108v.16zm.214 17.6l-.053-.426-.16.32-.054.267.107.053.053.053.107-.266zm1.338-13.227l-.32-.854-.536-.533-.375-.107-.374.32.053.373.321.107.589.32.642.374zm-.803 9.493l-.749.107-.107.64.054.214.107.053.214-.267.053-.373.268-.107.16-.267zm-.91-12.427l.429-.32.107-.374-.107-.106h-.107l-.16.32-.161.48zm-.053.907l.107.213h.107l.107-.053.054-.107-.107-.16-.16-.053-.054.106-.054.054zm.107 7.361l-.214-.107-.16.054-.054.213.054.16h.32l.108-.106-.054-.214zm-.053 6.187l-.054-.106h-.321l-.053.159.107.107h.16l.16-.16zm-.16-4.266l-.215-.107h-.16l-.054.107.053.211.268.16.107-.051.054-.109-.054-.211zm-.322-5.068l.107-.107v-.32l-.107-.053h-.16v.373l.16.107zm.428.8l-.16-.213-.268.053-.16.107-.054.213.16.16.215-.053.214.106.107.267.267.48.482.214.053-.054.054-.106-.214-.32-.375-.214-.32-.64zm-.642-18.723l.16-.16v-.106h-.053l-.107.16v.106zm.214 15.202l-.107.267.053.053.054.107-.268.587.375.587.107-.587-.053-.534.107-.373-.054-.427-.214.32zm1.927 9.014l-.268-.212-.428.052-.375.055-.267-.055-.321-.105-.322-.055-.267.215.053.213.214.052h.59l.588.055.321-.107.16.267.268.158.054-.533zM91.3 21.123h.107v.16l-.053.213.16.16.107-.107.107-.213-.107-.213-.107-.16-.053.053h-.054l-.107.107zm1.07 19.202l-.053-.106-.267-.107-.214.16-.161.053h-.107l-.268-.106-.16.16.16.266.268-.053h.053l.107.053h.322l.267-.213.054-.107zm-1.337-3.36l-.107.053.053.32.054.373.16-.32v-.32l-.16-.106zm.107 8.908h-.268l-.107.105.054.107.16.053.107-.053.054-.052v-.16zm.32-11.149l-.053-.16h-.374l-.268.267.375.213.32-.16v-.16zm0 7.947h.215l.268-.105.32-.107-.481-.32-.321-.427.107-.213-.16-.16-.215.106.054.212-.16.269v.266l-.322.054-.107.265.054.321.16.266.268-.052.053-.32.268-.055zm-.855-6.933l.053.16.16.053h.322v-.32l-.321-.107-.214.214zm-.107 1.92l-.161.213v.267l-.16.374.267.373v-.427h.535l.16-.107.215-.106-.428-.267-.428-.32zm-.054 2.08l.375.267.214.054.107-.214.214-.267-.054-.373-.214-.213-.267.106h-.428l-.215-.16-.16.107v.16l.107.107.321.426zm-.535-22.51l.053.109.16.052.215-.052.16-.215.161-.16.268-.054.267-.158-.053-.108v-.054l-.375.054-.321.266-.107.16h-.16l-.161-.053-.107.053v.16zm-.375-.96l.107.055h.107l.054-.055-.054-.053-.053-.107h-.107l-.054.054v.106zm-1.284 1.654l.16.267h.214l.107-.16.215-.054.16-.053-.214-.16h-.268v-.053h-.053l-.107-.107-.16.053-.054.267zm18.141 30.51l-.054 1.76V51.9l-.214 1.708-.214.586-.588.214-1.82.106-1.873-.16-1.818.054-1.873.106h-1.822l-1.818.054h-3.692l-1.874.106-1.82-.106-.641-.32-.214-.587-.054-.64 1.713-.107h3.639l1.82-.053h1.873l3.637-.16 1.82.16 1.927-.107.374-.053.589-.214.535-.213.214-.48.268-.587.053-.373.214-1.814v-1.76l.054-1.226h.535l.696.16.267.479.161 1.76zM85.949 18.03l-.16-.267-.214-.107-.054.054v.053l.16.213.268.054zm1.767 33.657l-1.874.107-1.82-.107-.64-.32-.215-.587-.108-1.76.161-1.707-.214-1.76.053-1.76.268-.586.696-.267 1.659.053h1.712l.215-.266-.054-.534.054-2.08v-4.054l.053-2.027.214-4.053-.16-2.082-.161-2.026.268-2.027v-2.08l-.321-.16-.643.16-1.443.106-1.445-.106-.644-.267-.321-.693.053-1.707.161-1.707-.214-1.76.053-1.706.323-.535.64-.16 1.82-.267h1.874l1.82.162 1.872.105 5.513-.159h3.637l1.82.214.589.16.16.531.16 1.656-.106 1.759.107 1.707-.16 1.707-.161.64-.535.266-1.445.16-1.499-.053-.428-.213-.214.106-.214 2.028.162 2.027-.055 2.08v6.133l.055 2.027.052 2.08-.052 2.028v2.08l-.216.534.107.266 1.82.106 1.873.055.696.16.267.48.161 1.758-.054 1.76v1.708l-.214 1.707-.214.587-.588.213-1.82.107-1.873-.16-1.818.053-1.873.107h-1.82l-1.82.053h-3.692zM139.198 24.59h-.214l-.054.106v.053l.16.107.108.107.053-.107v-.107l-.053-.16zm-.696-3.573l.107.158.054.108h.053v.052h.054l.32-.16v-.052l.054-.054v-.427l-.214-.052-.267-.053-.107.213-.054.267zm.268 3.039l-.054-.374-.053-.531-.268.478.107.427.107.053.16-.053zm-.482-1.707l-.053-.107-.161-.105-.107.052-.054.108v.105l.161.055h.16l.054-.108zm-.482-2.773l.214.212.375-.105-.053-.321-.107-.106-.215.106-.214.214zm-.642 2.986l-.16-.053-.107-.052-.054.052-.053.107.053.053.107.055.107-.055.107-.107zm.054-4l-.214-.214-.321-.265.055.373.266.267.16-.053.054-.107zm.107 1.441l-.214-.641-.696-.212.323.533.426.372.107.427.107.055h.054v.053h.053l.268.267-.054-.215-.107-.212v-.055l-.053-.265-.214-.107zm-.587-3.147l-.43-.16.107.16.16.16-.16.213-.266.214-.055.213-.107.213.588-.108.536-.052-.054-.266-.16-.214-.16-.373zm-.965 1.6l.108.107h.16l.108-.107-.109-.16-.159-.16-.16.053-.055.107.107.16zm1.873 2.988l-.107-.215-.16-.16-.215.054h-.214l-.107.052h-.105l-.109.054-.321.054-.803.16.428.212.16.107.161.053.107.055.161.052.589.215.428-.162v-.105l.053-.055v-.105l.054-.266zm-1.765.798l-.055-.105v-.162l-.428-.105-.105.267.052.105.053.055v.105l.16.055.108.052.107-.052v-.055l.108-.16zm-.322-1.972v-.322l.053-.32-.374.482.856.692-.054-.427-.481-.105zm6.315 9.654l.589-.214.428-.32.053-.266.214-.534.054-.32.053-.267v-1.707l-.107-1.067-.214-1.013-.053-1.334v-1.387l.214-2.079v-.16l.535.48.535.8.268.373.053 1.493-.053.96-.107 1.014v1.494l.053 1.493.16 1.014.108 1.013-.107 1.174-.107.373-.214.32-.321.16-.375.107-.91.107h-.803l-.749-.054-1.177-.053-1.124.16h-.75l-.856-.053h-1.124l-.374-.107-.268-.107-.214-.16-.107-.426-.052-.694h.748l1.124-.053 1.123.053.803.054h.964l1.284-.16.589-.054.214-.053zm-6.69-7.095l-.107-.053-.052.053-.109.053-.107.107v.053h.323v-.053l.052-.053v-.107zm-.642-7.093h.053l.214.373.107.533.429.427h.376l.105-.266.16-.16.215-.107.214-.054.107-.213-.107-.107-.321-.106-.373-.214-.323-.16-.321-.106-.321-.054-.214.214zm0 3.147h.162l.16-.268-.215-.267-.16.215.053.32zm-.054 1.014l-.16-.535-.375.641.323.694.105.053h.055l.373.107.216-.32-.109-.162-.16-.105-.268-.373zm.268 1.226l-.107-.161h-.213l-.428-.105-.376-.055v.055l-.052.105.373.213.375.269.16.106.16-.106.108-.32zm-1.604-4.8l.212.32.16.106.108.054.16-.107.108-.107-.107-.32.055-.107v-.106l.16-.107.16-.053-.215-.32h-.482v.32l-.052.053-.107.053-.16.32zm-.054 1.12l.106.106.108-.053.32.053.216-.053.16-.053.428.213h.052l.054.053.107.052.16.055.268.053.16-.213.056-.213-.109-.16h-.107v-.054l-.16-.053-.108.213h-.16l-.107.054-.321-.267-.482-.268-.159.108-.268.16-.214.16v.107zm.214 3.094l-.053-.267-.055-.322-.16-.425h-.429l-.267.64.376.639.428.16.16-.425zm-1.286-4.268h.27l.16-.16v-.213l-.214-.16-.16.053-.056.16-.107.16.107.16zm-.695 2.88l.108.16.052.053.055.106.054-.052h.053v-.106l.054-.054-.054-.055h-.053l-.109-.051h-.16zm1.34-.906l-.268-.16-.216.053-.16.107v.053l-.108.052-.16.108v.319l.108.055h.052l.107-.055.055-.105.215.053v.107l-.054.053-.107.213-.053.16-.056.106-.159.266-.214.269v.158l-.107.16-.107.107-.108.16-.106.108h.054l.32.319.697.32-.161-.532-.216-.322-.105-.32.053-.107v-.16l.052-.052v-.053l.537-.64.214-.108.266-.052.535-.32h.109l.268.052.32.108.108-.375-.107-.212-.054-.215-.055-.105h-.267l-.213.053h-.376l.055.214v.213l-.323.214-.16-.214-.106-.053zm-1.5.64l.16-.16.055-.16-.107-.16h-.321l-.055.053v.054l-.106.105v.055l-.053.105h.053l.054.055.107.053h.212zm-1.177-4.481l.107.107.054.16h.214l.053.053h.161l.107.213v.267l.107.16.054.107.107.32.212-.107.321-.266.376-.054.268-.053h.107l.16.16.213-.107v-.213l-.267-.054-.267-.266-.481-.16-.054-.16v-.214h-.107l-.428-.16-.589.054-.053.053h-.055v.053h-.052l-.268.107zm-.803 1.12l.322.214.267-.107.107-.213.054-.16-.214-.054-.375.054-.053.16-.108.106zm-.16 3.148l-.214.105v.268l.16.107.268-.054.214-.106v-.215l-.053-.105-.107-.107-.268.107zm-1.231-3.041l.054.213.214.587.267.534.107.16.16.106-.213.267-.054.32.535-.16v-.053l.054-.107.053-.213-.16-.16-.107-.16-.16-.32-.054-.054v-.64l-.107-.373-.214-.054h-.16l-.215.107zm-.75 3.572l.108-.051.107-.107v-.16l-.054-.053-.107.053-.16.107v.16l.107.051zm.268 1.656l-.107-.16h-.214l-.107.053-.053.107.107.16.214.052.107-.052.053-.16zm-.749-3.681l-.16.107-.054.213.375.053.374-.16.214.16.16.054h.161l-.428-.64-.642.213zm-.482-1.494l.054.16.053.107h.108l.107-.053v-.16l-.054-.107-.16-.053-.108.106zm-1.07 1.867l.054.107.16.105h.107l.054-.105-.054-.16-.107-.107h-.16l-.054.16zm-1.177 1.12l-.268.106v.215l.321-.055.321-.265h-.374zm-.482-1.173l.053.053.108-.053.107-.107-.107-.053h-.108l-.053.053v.107zm-.642.213l.053.107.054.053.107-.053v-.107l-.054-.053h-.107l-.053.053zm.107 2.56h-.214l-.16.161v.212l.16.108.16-.16.054-.32zm-.482-3.893l.107.106h.107l.054-.053v-.053l-.054-.054h-.107l-.107.054zm-.803 2.986l.054.054.214.052.16-.158-.214-.109-.214.055v.106zm-.374-.64l.053.213.109-.105.052-.215-.107-.052h-.054l-.053.16zm-.375 1.653l.107.107.107-.107.107-.16h-.214l-.107.16zm-1.124-2.186l.107.159.054.322.107.16.16-.215-.107-.426-.105-.16-.162.054-.054.106zm-.856 1.6l.267.108v.106l.054.052.054.375.32.212v-.427l-.374-.16.268-.267.215-.32.268.055.212-.161v-.106l-.267-.055-.213.109-.055.052-.428-.106-.321.267v.265zm-.213 2.293l.106.107h.162l.052-.052.053-.108.108-.107-.052-.16h-.216l-.16.213-.053.107zm.909 10.616l-.052.96.052.96.16.907.216.905.32.96.32.907.161.32.107.427-.375-.48-.481-.745-.375-.854-.374-1.013-.536-1.816-.16-.905-.052-.96.105-.96.16-.907.268-.907.644-1.707.48-.747.482-.693.642-.694.75-.64.695-.587.75-.48.802-.32.803-.213.856-.16 1.07-.054h1.071l.803-.051h.642l.642.105.802.266.055.96v.107l-.536-.053h-.642l-.75.053h-1.07l-1.016.054-.964.16-.802.16-.803.373-.696.534-.696.586-.695.64-.643.64-.588.694-.428.747-.375.853-.321.854-.268.96-.16.854zm-1.765-12.801h.052l.055.051.106.055.322-.055.213-.32-.268-.052h-.373l-.107.16v.16zm27.934 28.376l-.107.267-.536.693-.856.692-.803.642-.963.638-.856.587-.91.535-.963.585-.91.427-1.124.48-1.124.32-1.07.214-1.016.213-1.98.322-1.125.211-1.017.107-1.23.107h-1.07l-1.124-.054-.696-.053-.588-.16-1.017-.213-1.927-.64-1.017-.319-1.07-.322-.91-.371-.908-.429-.91-.64-.267-.213.64.213 1.017.322 1.017.372 1.017.32 1.07.266 1.178.214 2.14.213 1.07.055h1.125l1.284-.055 2.087-.372 3.05-.481 1.018-.32 1.068-.319 1.124-.428.964-.479.963-.533.91-.535.856-.532.963-.64.803-.64.856-.747.59-.747.16-.32.32.32.59.64.214.587zm-28.47-26.403h.16l.107-.055-.107-.16-.106-.051-.055-.054v.32zm-.16 3.68l-.053-.054-.055-.107-.106.107.054.107h.16v-.053zm0-.8l-.053-.054-.107-.053-.054.053-.055.107.109.106h.052l.108-.053v-.107zm.052-2.241l-.266-.16-.215.267.053.48.216-.214.16-.053.052-.32zm-.8 20.483l-.108-.054-.053-.053-.056.053v.054l.056.106h.053l.107-.053v-.053zm-.322-1.28h.105l.056-.054v-.107l-.107-.053-.11.107v.053l.056.053zm.482-20.91l-.054-.16-.107-.052h-.053l-.054-.16-.109.052-.16.32.055.107.054.16.107-.052h.107l.214-.215zm-.965 21.016l-.106-.053h-.053l-.107.053v.053l.053.107.213-.107v-.053zm-.32-16.375l.107-.107.054-.16-.107-.107-.162-.053-.052.107-.054.16.054.16h.16zm-.374-3.628l-.107.214.053.32.268.16.16-.052.054-.268.053-.214.107-.16h-.588zm-.322-.32l.108.109h.16l.16-.215-.053-.32-.267.214-.108.212zm.427 19.203l-.052-.107-.214-.053-.107.16-.107.107v.106l.214.054.266-.267zm-.748-15.202l.054.16h.16l.054-.16.053-.053.161-.214-.053-.213-.054-.053h-.054l-.107.106v.214l-.053.053v.053l-.16.107zm.214 13.176l-.053-.215-.27-.053.216.213v.107l-.053.053.053.162.107-.108v-.159zm-.214-6.561h.321v-.107l.054-.053.054-.16-.215.16h-.053l-.054.053-.107.054-.108-.107h-.052l-.054.107.214.053zm-.108 5.013l-.16.16.054.16.16-.107v-.16l-.054-.053zm-.587.375v-.215l.053-.212-.321.105.054.322.053.212.107.108.107-.108-.053-.212zm.91 4.106l-.215-.374-.16-.106-.107-.16-.107-.32-.268-.32-.267-.374h-.054l-.16-.16-.215-.16.214.427v.053l.482.48h.054l.107.107.214.32-.054.213-.16.16-.214-.106-.16.106-.108.16.16.107.161.213.107.267.107.16.16-.16.108-.053v-.214l.374-.266zm-1.66-12.215l.054.214.267.213.215-.16.16-.16-.107-.16.107-.213.268.053.214.107.159-.107.162-.16v-.16l-.107-.053-.16.106h-.108l-.053-.16.053-.267v-.266l.054-.214-.054-.106-.107-.054.214-.426-.214-.107-.214-.053h-.482l.108.16.053.16.16.106.161.16.054.107.107.107v.106l.053.054-.053.266-.107.214-.268.213-.214.374-.375.106zm.054 5.121l.053-.106h-.053l-.054-.054-.16-.106-.107-.054-.214.16-.16.16h.16l.214.052.32-.052zm-.856 3.093l-.161.107-.053.108v.052l.053.055.107-.107.054-.215zm.053-5.386l.16-.16v-.054l.054-.053.107-.16.16-.053.054-.054h.054l.053-.16v-.107h-.214l-.16.054-.214.106-.16.107-.269.16-.16.16-.107-.053h-.107v.053l-.054.054-.107.16.268.213.053-.107-.053-.16v-.053h.053l.054.16.053.107v.053l.054.107h-.054v.213l-.107.107h-.107l-.053.106.107.107h.107l.214.052.16.055v-.16l-.106-.16.053-.32.214-.214v-.106zm-1.017-2.934l.321-.107.321.213.054.054h.16l.054-.107v-.053l-.321-.267.268-.267.053-.16-.16-.107-.161-.32-.321-.106.053.213.16.107.054.267-.107.16-.267.16-.16.32zm-.428 7.04l-.107-.106h-.268l-.053.212v.215h.268l.16-.16v-.161zm-.482-1.973l.161-.215v-.318l-.16.053-.054.32v.105l.053.055zm8.615 16.536l-1.925-.695-1.873-1.012-1.552-1.334-1.498-1.44-1.445-1.547-1.124-1.654-.964-1.867-.749-1.92-.535-1.974-.214-1.12-.107-.959-.214-2.027-.054-2.134.16-2.08.429-1.974.642-1.974 1.606-3.732.535-.854.642-.854.803-.693 1.605-1.282 1.499-1.385 1.713-1.227 1.82-.907 1.978-.694 1.98-.533 2.034-.427 2.033-.213 2.141-.053 1.82.106 1.766.267 1.82.373 1.764.48 1.66.694 1.658.907 1.445 1.067 1.338 1.173.375.372.053.16.054 1.495-.054 1.014-.107 1.014v1.438l.054 1.494.16 1.013.107 1.067-.107 1.44-.107.374-.214.267-.32.16-.376.107-1.123.106-2.783-.106-1.124.053-1.552-.053-1.123-.16-.374-.107-.268-.107-.214-.16-.16-.373-.108-1.387.108-1.014.214-.96-.054-1.385-.16-.322-.163-.213-.212-.159-.268-.16-1.07-.322-.856-.105h-.75l-.749.052h-1.124l-1.124.053-1.017.162-.963.265-.963.427-.91.533-.856.694-.748.693-.696.694-.588.853-.537.907-.428.96-.32.907-.27 1.014-.212 1.067-.107 1.12.052 1.067.216 1.067.266 1.012.268.962.428 1.065.428.96.535.907.696.8.75.64.962.48 2.944 1.227 2.034.534 1.177.053 1.124-.053 1.177-.16 1.178-.267 1.177-.373 1.069-.48 1.017-.534 1.017-.64.91-.747.32-.107.215-.053.214.053.32.214.91.747 1.125 1.12.802.96.803.853 1.178 1.12.695.96.16.321.054.267-.16.266-.321.267-1.552 1.387-1.66 1.067-.91.533-.856.534-1.926.799-1.927.533-2.086.32-2.033.375-1.017.159-1.017.053-2.194-.053-2.034-.212-2.034-.427-2.997-.96zM187.577 48.806l-.16-.107-.054.16v.16l.16.16.16-.053.056-.16-.162-.16zm-.321-5.388l-.052.055h.052v-.055zm-.75 1.013h-.053v.055l.054.105h.214l-.161-.105-.053-.055zm-.426 4.855l-.162-.16h-.268l.16.106.108.054.053.213.109.053.052-.106-.052-.16zm-.91-5.813l-.321-.055-.109-.054h-.105v.16l.159.054.055.161.054.106v.215l.214.051.212-.051.054-.215.108-.106-.053-.161-.268-.105zm-.589 3.839l-.162.213-.052.107-.053.053.159.214.214-.054h.053v-.053l.214-.427-.319-.373-.054.32zm-.162-1.334l.109-.053h.159v-.107l.053-.051-.105-.162h-.107l-.055-.053h-.106l-.107.215v.051l.107.16h.052zm-1.015-6.773h.107v-.267h-.107l-.055.107v.053l.055.107zm.054.8l-.163.054-.105-.109-.054-.158-.162-.053-.105.053v.158l.053.16.16.055h.43l.213.16.268.107.053-.053v-.054l-.267-.266-.321-.054zm-.91 5.653l-.109-.213v-.053h-.053l-.052-.214h-.162l-.054.162.162.105v.373l.106.107.053.16h.109l.053-.107-.053-.16v-.16zm-.376-2.56l-.106-.212-.162.053-.054.052-.052.107.161.053h.107l.106-.053zm-.213-3.68l-.16-.16v-.053l-.054-.16-.107-.053-.214.106-.109.267.162.16.214-.053.213.213.055-.266zm-1.659-10.72v.267h.16l.054-.267-.109-.267-.105.267zm-.321 8.427h-.054l-.055.213.162.213.054-.213v-.267l-.107.054zm16.857 13.228l-.109-3.201v-.267l-.159-.213-.214-.267-.216-.213-.266-.214-.322-.106-.266.053v3.147l-.056 1.547-.051.747-.108.427-.32.427-.215.213-.32.213-.322.16-.428.054-.642.107-2.034.053-4.335-.107-2.14-.106-2.141.106h-3.05l-.053.48.107.374.214.266.321.267.427.16 2.034.054 2.033.106 2.248-.053 2.14-.107 2.249.107 2.14.16 2.087-.053.48-.054.43-.053.375-.213.268-.374.105-.48.055-1.547.054-1.6zm-17.66-33.391l.856 1.814.857 1.76.91 1.76 1.873 3.681.8 1.812 1.608 3.734h.052v.054l.696 1.867.749 1.867.696 1.867.749 1.814.803 1.44.695 1.28h.964l.32-.055-1.177-2.932-.695-1.867-.748-1.92-.804-1.814-.803-1.867-.803-1.814-.856-1.865-1.925-3.521-.857-1.814-.91-1.867-1.39-3.414-.322-.427-.321-.16-.376-.107-.962-.053.321.747zm-.642 9.175l-.107-.108-.16-.105-.054.265.214.267v.215l.107.053.267-.16.107-.215-.107-.212h-.267zm-.482-4.96l-.053-.054h-.107l-.054.107.054.213.107.16.16-.053.054-.107v-.16l-.054-.053-.107-.054zm-1.498 5.227h-.107l-.054.107v.105l.054.108h.107l.053-.108v-.105l-.053-.107zm.428-1.067h-.268l-.267-.053-.214-.214-.322-.053-.053.053v.054l.268.266.374.107.214-.055.16.16v.16l.161.055.107-.107.054-.108-.054-.212-.16-.053zm-2.087-2.88h-.429l-.105-.054-.055.107-.107.053v.107l-.054.16.054.053.053.107v.213l.109-.053.159-.107.43-.427.105-.053.054-.107-.107-.053-.107.053zm.267-3.575l-.428.054h-.321l-.375-.16-.053.053h-.268v.107l.214.213h.054l.053.053.482-.053h.214l.375.053.16-.106.107-.107-.214-.107zm-1.766 6.082h-.107l-.107.106.107.105h.107l.054-.105v-.053l-.054-.053zm-.053-3.895l-.106-.16-.162-.16-.107.16-.052.16.052.16.16.107.11-.106.105-.16zm-1.178 2.614l.216.052.159-.105-.16-.053-.215.106zm-.105-3.947v-.534l-.268-.053-.216.213v.054l.161.533.482.107-.16-.32zm-2.623-.8l-.16-.107h-.16v.16l.213.053.268.054.214-.214h-.214l-.16.054zm.375 11.627l.696-1.493.32-.854-.749-2.079-.214.534-.428 1.332-.695 1.44-.429 1.014 1.499.106zm-1.338-10.187l-.107-.107-.268-.106-.107.213.054.213h.535l-.107-.213zm3.53 11.574l.429-.106.428-.374.214-.478.053-.375-.053-.32-.535-1.332-.589-1.387-.48-1.282-.43-1.332-.267-.375-.48-.105h-.482l-.428.105-.268.375-.428 1.28-.482 1.334-.588 1.332-.59 1.228-.106.425.107.48.321.427.375.267.374.053 1.98.054 1.926.106zm-6.42-3.947l-.214-.107-.107.055-.054.16.214.105.16-.053v-.16zm-.107-3.626v-.107l-.107-.053-.16.213-.108.374.268-.215.107-.212zm-.214 1.707l-.16-.055-.215.108v.107l.16.052.108.053.107-.105v-.16zm9.364 17.122l.589-.375.32-.052.804-.108.053-.107-.16-.478-.215-.587-.107-.108-1.766.108-2.247.158-4.28-.318-1.82.052h-1.499l-.214.641-.16.427h.75l.588.105.267.055.482.427h4.014l1.872-.055 2.195.16.534.055zm-11.023-12.91l.107-.106.053-.212-.16-.215h-.107l-.107.053-.054.214.16.213.108.054zm.749-3.039l.054-.214-.108-.106-.267.16-.16.32h-.322l-.267.16.749.212.321-.532zm-.268 3.413l-.214.267-.214-.054-.16-.053-.321-.053-.268-.054.268.534.107.533-.16.107.053.213h.214l.053-.213.214-.16.16-.214h.268l.214-.16.108-.32-.108-.32-.214-.053zm-1.284-4.214h.107l.054-.107v-.16l-.108-.105-.107.105v.16l.054.107zm.91 2.242l-.482-.267h-.16l-.161-.055-.054-.265-.16-.267-.268.427.16.319.75.213.428.427.268.16.321-.105.054-.215-.161-.105-.535-.267zm-1.017 3.199l.16-.16v-.16l-.16-.054-.16-.106-.108.053-.053.214.16.213h.16zm.642 2.027l-.214-.427-.214-.16-.16.214-.322.106-.107.32.107.32h.268l.214.107.16.107.161.16h.16l.054-.107-.053-.213-.054-.427zm-.428.907l-.107.16-.214-.107-.268-.106h-.214l-.214.053.107.213.16.214.268.426.214-.16.107-.213.268-.213-.053-.427-.054.16zm-1.017-2.187l-.053.106.214.16.32-.053.108.053h.107l.16.214.268-.107-.053-.267-.268-.053-.107-.107-.268-.16-.32.107-.108.107zm-.321 3.307l.054.107h.107l.107-.267.107-.373-.321.213-.054.32zm.214-10.827l.16-.107.054-.107-.053-.106-.16-.055-.215.055-.053.16.053.106.214.054zm-.428 9.547l-.107.32.053.107h.161l.054-.107.053-.16-.053-.16h-.161zm.214-6.775l.16-.267.054-.211-.16-.16-.215.051-.107.16-.107.215.107.212h.268zm-.107 5.174v.694l.054.267.267.106.16-.053.108-.16-.054-.213-.16-.054-.16-.213.053-.267-.054-.48-.375-.427-.053.054-.107.053.107.427.214.266zm-.321 3.841l-.054.16-.053.107.267.213.268-.106v-.16l-.16-.107-.268-.107zm-.696-2.987v.107l.054.053h.32l.161-.267-.267-.053-.268.16zm0 3.787l-.053.16.053.16.321.107.321-.106-.267-.32h-.375zm.16-.853v-.213l.429-.374-.054-.32-.053-.373-.16.266-.108.214-.214.533-.267.267-.054.427.268-.214.214-.213zm-.267-6.188l.107-.107.054-.266-.16-.214h-.161l-.107.16-.054.214.16.16.161.053zm-.696 4.641l.536-.213-.536-.107-.053.16-.052.32-.109.48.375-.16-.16-.48zm0-4.374l.107-.107v-.107l.054-.106-.16.053-.161.107-.054.053.054.107h.16zm-.267 7.041h-.16l-.054.054.053.16.16.106.108-.106v-.16l-.107-.054zm-.482-3.094l.321.054.054-.16.107-.107.214-.427.16-.16.214-.107-.695-.106-.427.533-.055.053v.054l.055.213.052.16zm.216 1.44l-.268-.266-.215-.32v.907l.107.32.108.266v.107l.373.213.214-.106.214-.054.107-.32-.267-.266-.373-.48zm-.589 2.988l-.109.107v.053l.054.107.107.053.109-.107.105-.16.323-.373-.483.16-.106.16zm-.055-1.92h-.16v.106l.053.107h.214l-.107-.214zm-.16 2.773l-.108.054.055.16v.106h.106l.107-.106v-.107l-.107-.162-.054.055zm.376-5.334l-.055-.214-.054-.373-.107-.373h-.054l-.053.053-.106.373-.055.214v.213l-.053.16.16.107h.322l.055-.16zm.373-1.654l.32-.267-.16-.373h-.694l-.428.587.052.427.428-.054.109-.053.105-.107.268-.16zm-.75 2.827l-.107-.16h-.212l-.16.214-.056.213.055.214.268-.054.212-.213v-.214zm-.32-3.414l.32-.48.482-.32.214-.106.642.32.268.533.428.373.054.32.053.374.321-.107.214-.16.16-.16-.16-.427-.16-.266-.321.106-.268-.213.214-.373.214-.32-.105-.374-.162-.267-.321-.051-.108.211.108.214-.054.213-.214.054-.375-.107-.374-.054-.321-.16-.213.267-.323-.053-.32-.107-.108.374-.16.32-.054.746.43-.32zm-.964 3.308l-.105.106.105.427.109-.053.159-.107v-.267l-.16-.106h-.108zm11.72 11.574l-.053-.267-.321-.426-.428-.426-.375-.108-.482-.16v.268l.054 1.44-.054 1.386v1.387l-.053.854-.054.48-.267.533-.482.32-.428.107-.642.053-.482.054-4.228.106h-4.494l-4.335-.213h-.963v.64l.053.48.214.427.429.16.428.053 4.12-.106 4.441.213h3.05l4.175-.107.482-.16.32-.16.268-.373.108-.48v-1.334l.053-1.387-.053-1.387v-1.867zm7.117 4.054l-.268-.053-.267-.107-.268-.267-.16-.266-.107-.374.107-2.667v-1.387l.055-1.387.159-.48.267-.32.321-.158.59-.109h.427l.428-.158.268-.32.107-.267.107-.32.054-.267v-.267l-.268-.695-.214-.638-.16-.32-.215-.267-.267-.213-.482-.109-2.034.109-1.978.16-4.389-.32h-.053l-1.874.051h-1.82l-.534.215-.268.534-.268.747-.267.693v.372l.107.32.268.373.267.269.375.106h1.017l.374.106.375.215.267.426.161.479v1.44l.054 1.387-.054 1.387v1.334l-.054.533-.32.374-.375.213-.428.053-4.175.107h-4.387l-4.442-.213-4.12.106-.322-.053-.374-.16-.322-.32-.107-.587v-1.547l.054-1.547-.107-1.6-.107-1.546.053-.533.321-.429.429-.213.428-.053 2.676-.107.374-.105.268-.322 1.284-2.879.857-1.6.856-1.707.75-1.654.8-1.654.751-1.707.75-1.653.8-1.654.803-1.707.698-1.705.694-1.867.053-.374-.214-.32-.533-.213h-2.034l-.535-.16-.376-.374-.16-.427-.053-.266-.053-1.547-.055-1.6V14.4l.108-.586.373-.479.535-.16 1.874-.055 1.82-.107 1.926.162 3.746.212 1.873.053 3.799-.213h.107l3.532.108.374.052.268.107.214.213.16.32 1.392 3.414.91 1.867.856 1.814.962 1.76.965 1.814.856 1.814.801 1.812.803 1.867.805 1.814.747 1.92.698 1.867.747 1.867.75 1.814.856 1.6.856 1.492.321.322.375.105h1.23l1.285-.052.321.107.268.212.214.215.214.266.16.212v.267l.054 1.6.054 1.547-.054 1.654-.053 1.547-.054.267-.107.32-.214.213-.214.16-.268.107-.32.053-4.068.107-2.141-.16-2.246-.107-2.142.107-2.193.053h-.054l-2.033-.106-2.034-.054zM242.004 18.562h-.482l.109.214.105.107.268.053.107-.214-.107-.16zm-1.07 1.494h-.268l-.16.267.32-.107.161.107.16-.054v-.106l-.213-.107zm-2.835-.693l.16.266.052.32v.214l.268.053.162-.213v-.107l-.162-.427-.48-.106zm-.589-3.361h.16l.161-.107h-.16l-.161.107zm-.375 2.24l-.107.107-.053.107.107.213.16.053.054-.106.053-.16-.053-.16-.16-.054zm-.481-3.68h-.107l-.054.16.054.053h.16l.054-.107-.107-.106zm-.16 5.76l-.215.054h-.053l-.054.053h-.053v.107l.053.054h.159l.216.106.214-.053v-.107l-.054-.053-.214-.16zm-1.018-.266v-.053l-.053-.054-.107-.053v.107l.16.16h.107l-.107-.107zm.482-3.147l-.16-.16h-.056l-.052-.107-.053-.053-.214.053-.321.213-.107.16-.054.107-.107.107.054.107.16.053.106-.107h.215l.16-.053.268.053.107-.107v-.053l.054-.213zm-3.532 5.014l.053-.213-.267.16-.107.267h-.054l-.107.106v.107l.268.16.267-.053.054-.214-.107-.16v-.16zm-.268-1.227l.107-.16v-.16l-.16-.213-.106-.214.052-.266-.052-.32h-.108l-.054.053-.107.373.16.32.11.16v.16l-.11.107v.16l.161.054.107-.054zm-.642 19.148l-.16.055-.054.052v.054l.108.106h.16l.053-.052v-.108l-.107-.107zm0-15.095l-.268.055-.214.16.109.105.267-.105.106-.215zm-.482-4l.054-.053.055-.106-.055-.054h-.054l-.107.054-.053.106.053.054h.107zm14.984-2.027l-.107-1.707-.214-.533-.535-.16-.643-.053-.107 1.28.054 1.707-.16 2.134-.054.747-.16.533-.268.267-.536.105h-1.122l-1.124.161-1.177.107v.854l.267 2.24-.162 2.027-.105 1.972.159 1.92.162 2.081-.109 2.187-.107 2.028v4.052l.107 1.975.109 2.08-.321 4.214-.055.906-.213.587-.535.374-.642.106-2.41.214-2.14.053-2.086-.107-1.017-.106 1.232 1.492.32.108.481-.053 1.98.213 1.927-.16 2.034-.053 1.98-.322.534-.158.16-.534.484-3.787-.163-2.027-.105-2.08v-4.107l.212-4.054-.16-2.08-.16-2.028.108-2.027.159-2.08-.268-2.24v-2.026l.055-.16.322-.055.64.055 1.392-.107 1.177-.215.321-.105.214-.107.16-.48.161-1.547-.053-1.76.107-1.76zm-14.984 23.309l-.107-.16-.214-.105.109.212.212.053zm-.212 5.601l-.162.32v.054l.107.32.267-.054.109-.213-.162-.267-.16-.16zm-1.928.374l-.161-.267h-.375l.162.107.16.16v.213l.108.16.159-.107-.053-.266zm-.75-5.121h-.32l-.106.266v.214h.214l.159-.054.107-.213-.054-.213zm.589-2.08l.055-.268.106-.211-.161-.16-.375-.107h-.588l-.106.052.054.215.159.053.16.158.107.16.054.215.267.052.268-.16zm-1.231 4.213l-.268.267-.105.053-.109.107.16.267.322.053.054-.053h.053l.323-.48-.268-.586-.162.372zm-2.14-1.6h-.053l-.108-.212h-.268v.212l.216.107.105.213v.267l.214.16.107-.054.055-.106v-.32l-.267-.267zm-.588-8.374l.106-.053v-.213l-.106-.107-.108.053-.054.107.054.107.108.106zm.268 1.014l-.162.107-.214-.107-.106-.16-.162-.053-.106.16v.16l.106.16.214.053.321-.053.268-.054.32.16h.377v-.053l.054-.107-.43-.213h-.48zm-.91 4.213l-.214.108-.054.107v.106l.16.054h.215l.053-.109-.053-.106-.107-.16zm-1.5-4.693v-.053l-.052-.214h-.16l-.268.214-.054.32.213.16.269-.054.214.054.159.106v-.32l-.321-.213zm-2.193-6.241l-.108.106v.214l.055.106h.107l.16-.16v-.16l-.055-.16-.159.054zm-.803 4l-.053.054v.266l.267.267v-.373l-.108-.267-.106.053zm-.588-.586l.053.32.16.213h.213l-.105-.32-.321-.213zm-.214-2.881h-.268l-.054.053.215.214.159-.054v-.106l-.052-.107zm-.696-2.08h-.268l-.053.266.107.267.16.16.268-.052.053-.268-.107-.213-.16-.16zm-.321 4.107l-.214.213.053.16h.107l.107-.053.054-.16v-.16h-.107zm-.642-1.494l.107-.266v-.32l-.536.586.375.534.16.16.161-.053-.053-.32-.214-.32zm-1.338-5.28l.214.108v-.374h-.107l-.054-.053-.107.16.054.16zm0 .48l-.106.108v.211l.268.107.266-.052.053-.106-.053-.215-.214-.105-.214.051zm-.054 5.867l-.107.107v.107l.16.106.108-.053.107-.107v-.106l-.107-.107-.161.053zm1.499-2.347l-.268-.427-.375.054-.267.266-.268.32-.267.107-.322.107-.267.213-.054.32.16.16.215-.106.963-.747.055-.16.106-.16.321.106.268-.053zm-2.57 11.79l-.053.853h1.552v-1.387l-.107-1.76-.053-1.76v-.32l-.909-1.175-.483-.586v1.013l.107 1.76.054 1.761-.107 1.6zm.215-12.11l-.321.16v.107l.214.16.267-.054.055-.106v-.107l-.215-.16zm-.962-5.334l.105.426.429-.051.32-.587-.32-.642-.429-.158-.105.373v.639zm-.483 3.949l.107.211.108.054.322-.214v-.16l-.216-.106-.214.055-.107.16zm-.16.585l-.054-.213h-.214l-.054.16.162.16.052.266.162.267-.162.213.054.32.267.214.321.053.163-.213-.163-.267.109-.213.212-.107.322-.533-.59.053-.588-.16zm1.926-4.961l.107.375.053.373v.265l-.32.215-.322.267h-.589l-.588.267-.642-.267-.106.372.106.482h.856v-.322l.374-.16.268.322.16.371.375.054.375-.054.16-.266-.107-.16h-.266l-.215-.159.107-.213.267-.322.214-.318.268-.214-.107-.321.428-.532-.482-.534-.695-.32.107.48.214.319zm-2.569-.639h.162l.427.107.374.105v-.158l-.32-.214-.322-.266-.159-.107-.162.053-.105.32.105.16zm-.268 2.027l-.105.212.159.267.16-.212v-.267l-.105-.053-.109.053zm.803 2.026l-.105-.212-.268.16-.109.265-.158.162-.268.105-.054.267.268.106.212-.266h.161l.27-.212.051-.375zm-.373-2.506l.427-.587-.268-.693h-.053l-.106-.055-.321-.105-.268.32.213.212.267.427.11.481zm-.535 11.148h-.054l-.055.053v.16l.16.107.054-.054.109-.053-.055-.16-.16-.053zm-.216-14.668l.216.16.159-.107.109-.107-.054-.16-.43-.107v.32zm.375 5.332l.214.16.535.16.535-.105v-.215l-.428-.106-.374.106-.373-.16-.322-.211h-.267l-.162.16-.054.211.107.16.214.055.162-.16.213-.055zm-.696-4.319l.216.053.105-.213-.105-.267-.162-.106-.214-.107-.107.267.107.32.16.053zm-.105 2.186l.373-.426-.803-.693v.427l.483.105-.053.268v.319zm-.535 1.013l-.11.107.215.32h.216v-.16l-.054-.16-.109-.107h-.158zm.802 1.762l-.267-.267-.321-.055-.109.267-.214.107-.16.16h-.267l-.053.215.053.105.214.055.48.105h.482l.216-.105-.054-.267v-.32zm-1.553 10.187l.162.214.053-.267-.162-.213-.053.266zm.053-15.681l.055-.054.054-.106-.109-.054h-.107l-.105.214.105.053.107-.053zm.214 5.334l-.159-.107.213-.215.214-.16.216-.426-.536.055h-.536v.265l.162.215.105.373.428.16-.107-.16zm-.159-1.12l-.055-.427-.212-.215-.162.055-.052.052.214.268.267.267zm-.055-2.987l.644-.109.748-.158-.748-.427-.75-.107-.374.16-.109.48.268.267.321-.106zm-.589 3.68l-.105.054v.318l.105.055.11-.107.053-.108v-.158l-.163-.054zm0-2.667l.056.053.107.054.159.587.643.266-.267-.533-.376-.427-.107-.373-.373-.32.105.373.053.32zm-.642-1.76l.162.106.106-.053.053-.16v-.053l-.212-.054-.16.054v.106l.051.054zm-.214 2.079l-.053.321.162.105.159-.105.267-.161-.212-.266-.323.106zm.482 9.708l-.373-.266-.162-.16h-.106l-.108.213.162.16v.48l-.107.267.212.213.323.054.266-.267.214-.054-.052-.266-.27-.374zm-.962-10.187l.427-.108.162-.372-.109-.053-.159-.107-.267.213-.054.427zm.748 4.32l-.213-.052-.108-.215v-.212l-.16-.162-.161.055-.106.159-.053.213.212.213.321.16.268.109.162.372.321.266.105-.053.056-.053-.214-.48-.43-.32zm-.589-6.667l.162-.534-.162-.32-.159-.053-.109.053.11.374.158.48zm-.535-1.494l-.321-.106v.213l.108.107h.16l.053-.107v-.107zm-.694 6.082v-.055h.052l.053-.212-.105-.16-.375.053-.321.212.107.322.268.105.214.426.212-.32-.105-.371zm-.375 10.133l-.267.16-.163.214.216.107.16.053.268-.053.107-.267-.32-.214zm-.803 6.402l-.162.16-.105.372.267.16.268-.16v-.372l-.054-.268-.214.108zm.054-20.27l.107-.32-.107-.053h-.107l-.214.32.052.32.269-.267zm-.963 9.334h.158l.056-.16-.056-.213-.212-.054-.109.107-.159.053.214.16.108.107zm-.43 6.295h-.32l-.107.32.321.267h.106l.644-.16.16-.694-.374.214-.43.053zm-.694 2.934l.105.533-.159.16v.212h.214l.107-.267.054-.371-.321-.267zm.053-5.175l.214-.266v-.427l-.053-.107.053-.267-.214-.16-.216.214.163.267-.054.106v.107l-.16.267.051.266h.216zm16 13.708l-.053-1.707v-.533l-.321-.267-1.284-.053v1.334l.16 1.867-.053 1.707v.32l-.054.32-.16.533-.268.48-.375.32-.642.107h-.696l-2.408.053-2.087-.213-4.387.213h-4.442l-2.516.107v.64l.322.587.642.267 2.248.16 2.192-.107h4.444l4.44-.213 2.248.213 2.194-.053.643-.215.32-.639.054-1.707-.16-1.76v-1.76zm6.154-16.375l.214.16.162.16.373.267h.483l.373-.267.16-.427-.16-1.066-.16-.747-.268-1.814-.053-1.065v-1.014l.108-3.734.106-.32v-.213l-1.98.053-1.07.053-.802-.16-.214-.427.105-.64.055-1.707.107-1.76-.053-1.76.214-1.708.053-.32.107-.213.536-.213 2.139-.214 2.248.107 4.388-.107 2.194.107 2.195.053 2.194-.053 2.193.16.535.16.214.533.107 1.708-.107 1.76.053 1.76-.16 1.707-.16.48-.215.107-.32.107-1.339.213-1.39.105-.642-.051-.323.051-.053.162v2.027l.269 2.079-.16 2.08-.11 2.027.163 2.028.159 2.08-.213 4.054v4.106l.107 2.08.161 2.028-.376 4.054-.16.533-.534.16-1.98.32-2.034.054-2.034-.107-1.98-.213-.48.053-.323-.107-1.23-1.547-1.178-1.547-1.124-1.547-1.178-1.6-1.177-1.547-1.176-1.494-1.23-1.547-1.178-1.492-1.124-1.653-1.07-1.6-1.285-1.441-1.284-1.494-.266-.533-.216-.534-.268-.16-.373.054-.43.266v.16l.11 3.521.105 1.76.053 1.761-.214 2.986v.426l.321.215 3.318.212.322.267v.533l.053 1.707v1.76l.16 1.761-.053 1.707-.321.64-.642.214-2.193.053-2.25-.213-4.44.213h-4.442l-2.194.107-2.248-.16-.642-.267-.32-.587-.053-1.707.212-1.76-.107-1.76.107-1.708.215-.586.588-.267.535-.053.964.161 1.445.052.374-.107.268-.212.321-.641.054-1.92-.161-1.974V36.43l.054-1.973-.054-1.974V30.51l-.053-1.92-.108-1.974.161-1.974-.16-1.919-.161-.64-.214-.213-.321-.054h-1.445l-.642.16-.857-.106-.481-.267-.161-.587-.268-1.707-.052-1.76-.108-1.76.16-1.76.268-.534.642-.214 2.087-.266h2.141l6.314.16 2.089.16h.374l.268.213 1.283 1.494 1.23 1.547 2.141 3.307 5.137 5.975 1.071 1.707 1.07 1.652 1.284 1.493 1.23 1.494zM285.14 32.804l-.053.054-.16.48v.266l.051.16.109-.16.107-.213.107-.427v-.533l.053-.267v-.213l.213-.16h.215l.052.213.216.053.16-.053-.053-.213.054-.267.107-.267v-.16h-.16l-.215-.053-.109.16-.426-.053-.107.426v.427l-.055.053v.054l-.106.266v.427zm-.214-3.894l.052.107h.109v-.16l-.054-.054h-.055l-.052.054v.053zm-.214 1.44l.107.054h.16l-.106-.214h-.107l-.054.054v.106zm.16 7.415l-.213-.16-.27-.055-.052.055v.105l.215.16.32-.105zm-.535-6.134l.107.106h.375l.054-.106-.107-.16h-.429v.16zm.052 4.267l.163-.055v-.105h-.163l-.159.105.16.055zm-.32-5.814l.108.053h.053l.054-.053v-.107l-.054-.053h-.107l-.053.106v.054zm-.427 8.907l.159.055.108-.162.054-.053-.054-.052-.214.052-.053.16zm-.535-5.493l.16.213v-.16l.054-.16.107-.053.053-.16h-.107l-.107.106-.16.214zm-.375 1.547l.321.16.16-.267.108-.16v-.16h-.161l-.214.32-.214.107zm-.214-.587l-.107.107v.053l.053.053.16-.053.054-.107-.16-.053zm-.589 5.921v.052-.052zm.16-14.03l-.053-.213-.16-.053-.054.106-.053.054.214.32.107-.213zm-.053-4.746l-.267.374.214.212.32-.105.108-.427-.375-.054zm-.374 3.84h.16v-.374l.107-.638-.375.478v.427l.108.107zm-.215 12.002l-.053.105.053.109.215.266.428-.106-.321-.214-.322-.16zm-.16-17.123l.107.108.214.373.214.054h.16v-.267l-.053-.268-.107-.212-.107-.054-.16.107-.268.159zm-.052 2.935l.052.053.107.052h.214v-.105l-.054-.055v-.052l-.16-.16-.107.052-.052.108v.107zm0 16.854l-.109.053h-.053l-.268.055h-.159l-.108.105.053.107.107.055.428.052h.643v.053h.053l.107.055.321-.215v-.16l-.107-.32-.053.213h-.054l-.107.215.054-.16v-.375l.107-.106.053-.16.16-.106.108.054.053-.109-.053-.106-.107-.054-.321-.211-.054.16.054.211-.054.109-.16.158-.161.214h-.107l-.054.106-.053.055-.16.052zm-.858-16.854h-.107l-.053.053-.054.107.214.105.054-.053.053-.107-.107-.105zm1.017 19.788h-.428l-.054-.16-.053-.107-.054-.053-.053-.107-.106-.053v.053h-.055l-.053.107-.054.053.107.427-.214.213-.214.16-.105.16-.056.054v.16l-.107.213-.053.214.16.266.107-.106.054-.107v-.214l.16-.106.054-.267.214-.213.428-.214.375-.373zm-.963-22.989l-.107-.213-.696-.213.374.533.107.053.054.106h.054l.107.108.322.267.106.16.107.426.16.32.16.214v-.374l-.053-.108-.053-.427-.107-.158-.16-.107-.268-.427-.054-.106-.053-.054zm-.373-1.227l-.59-.533.322.64.105.054.054.053h.053l.107.16.215-.053v-.107l-.107-.107-.16-.107zm.426 4.053l.375-.107.107-.478-.214-.32-.321-.055h-.107l-.215-.052h-.32l-.322-.108-.428.16.107.055.589.532.75.373zm-1.124 16.535v.055l.162-.161-.162-.105-.32-.055-.268.266.535-.106.053.106zm-.159-16.853v-.16l-.055-.055-.107-.052h-.16l-.054.107-.107.053.054.107v.106l.107.212.267.16.107-.267-.052-.211zm.266-1.656v-.051l-.533-.107-.055-.32v-.32l-.266.48.48.373.32.267.161.105-.052-.265-.055-.162zm-.428-2.239l-.105-.053-.109-.107-.321-.106h-.16l-.108.053.109.16.427.213h.162l.052.054.053-.214zm-.642 4.373l-.16.055-.108.053.054.212.162.107.212.16v-.372l-.16-.215zm-.428-6.133l.428.213-.107.214-.107.267.053.106v.054l.054.053.055.16.052.107.321-.107.375-.053h.749l-.214-.32-.054-.107-.535-.214-.375-.213-.107-.107h-.053l-.054-.053h-.481zm1.766 25.177l-.054-.108v-.053l-.053-.054v-.053h-.054l-.107.053-.16.054-.106.053h-.108v.16l.053.107-.212.16-.162-.16-.054-.107-.105-.107h-.11l-.106-.053h-.214l-.106.16.052.107h.16l.108.106-.052.107-.216.16-.16.16v.054l-.213.106v.214l-.162.106-.16.16.267.32.323.267.053-.32-.108-.213v-.48l.055-.107.426-.214h.484l.105-.053.214-.213h.214l.214-.054.054-.106v-.159zm-1.925-21.71v-.106l-.27-.267-.051.319-.109.268.109.107.267.426.106.107.428.105.107-.318-.107-.16-.16-.107-.32-.374zm-.216-1.12v-.106l-.321-.214-.052.267.213.265h.107l.107-.052-.054-.16zm-.373 2.08l-.053.107v.052l.105.055.16.053.056.054.373.265.215.107.16-.107v-.319l-.108-.16h-.214l-.214-.053-.16-.055h-.32zm-.376-.32v-.053l-.107-.106-.373-.32-.321.213v.64l.373.213.053.054h.054l.108.105.16-.052.108-.053v-.107l.052-.267v-.053l-.107-.213zm-.801-4.16l.426.16.214.213.107.16.054.054.428.106.321-.106v-.267l.054-.214.108-.16.213-.106v-.214l-.213-.053-.215.053h-.641l-.216-.053-.481.213-.16.16v.054zm.373 27.95l-.16-.054-.16.107h-.107l-.214.106-.053.214v.053l.053.053.159-.053.109-.16.105-.107h.216l.052-.16zm-.535-26.617h-.16l-.055.054-.32.373.054.107.107.053.106-.053h.321l.055-.107.321-.213h.427l.43.053.266-.107.055-.213-.055-.213-.213-.107-.27.053v.214l-.213.16-.16-.054h-.108l-.053-.053h-.268l-.267.053zm-.695-.533l.214.267.107.106h.16l.108-.266-.109-.267v-.107l-.053-.107.214-.213-.16-.213-.322.053v.267l-.053.053-.054.107-.052.32zm.373 26.99l-.159-.107-.162.053-.105.107.053.16.106.053h.108l.16-.107v-.16zm-.694-25.283l-.376.213-.321.214.109.266.267.107.213-.16.267.053.109.16v.8l-.109.267.054.052v.108l-.054.16v.159l-.053.322.804.213.427.052h.108v-.052l.054-.053v-.107l-.109-.108-.053-.107-.427-.16-.268-.319-.32-.32v-.106l.213-.747.213-.16h.109l.212-.107.321-.48.803-.055-.16-.372-.375-.373-.268.106-.107.054h-.052l-.107.053h-.108l-.215.16.109.054.159.213-.212.32-.11-.053-.32-.054-.427-.213zm-.803-1.654h.268l.159-.16-.053-.213-.268-.107-.16.053v.16l-.053.16.107.107zm-.162 2.773l.162.108.106.16h.109l.107-.053-.054-.16-.162-.055h-.268zm-.053 23.256l.108-.053v-.107l-.108-.106-.052.053v.107l.052.106zm.43 3.735l-.163-.267h-.159l-.16.16-.107.16-.214.107.32.213.215.053.159-.106.109-.32zm-.803-3.094h.105l.109-.054-.055-.107-.054-.053-.105-.053-.054.106v.107l.054.054zm.64 3.947l-.052-.16-.162-.053-.105.053-.054.053h-.053l-.055.054-.16.213-.106.213.533-.16.214-.213zm-.426-28.536l-.321.053-.214.16v.16l.267.107h.268l.107-.214v-.16l-.107-.106zm-.75 26.136l-.267.053h-.216l-.267.267.108.106.106.16.374-.213.163-.373zm-1.016-29.87l.053.16.054.053v.053h.588l.106.16v.267l.109.16.159.48.32-.16.215-.213.588-.214.216.16.159-.106-.053-.214h-.268l-.268-.213-.267-.053-.054-.32h-.053l-.214-.107-.268-.107-.268-.053-.426.053-.216.16h-.105l-.054.054h-.053zm.32 32.003l-.108-.053-.159-.107h-.267l-.054.107v.053l.054.107.053.053-.053.107.105.107.375-.107v-.16l.055-.107zm-.696-1.12l.108-.16.107-.107-.162-.106-.159-.054v.214l.106.213zm-.213-29.763l.107.106.106.054.267-.107.054-.16v-.16l-.106-.053-.267.106-.161.214zm-.644 28.483l-.052-.107-.16-.053-.16.106-.163.054v.106l.162.107.268-.107.105-.106zm-.801-25.55l.16.16.268.053.268-.052.159-.16-.16-.214-.32-.053-.268.053-.107.214zm0-1.173h.589l.266-.32-.106-.373-.16-.32.107-.32.105-.267v-.32l-.267-.214-.268.054v1.333l.109.16.107.107-.321.213-.161.267zm.696 29.123l-.107-.16-.376-.106-.268.213.216.107.16.16.213.053.162-.107v-.16zm-1.178-.747l.054-.32-.214-.32-.107.374.267.266zm-1.018-30.83l.055.107.107.053h.159v-.266l-.105-.107-.161.107-.055.106zm1.177 31.257l-.159-.213v-.16l-.374.16-.323.213-.212-.16-.268.054v.053l-.054.053.213.16.27-.053h.051l.376.267.428-.16.052-.214zm-1.55-29.763l.321.16h.428l.16.267.322.106-.214-.693h-.964l-.053.16zm-.107 1.654l.107.053h.105l.109-.053.107-.162-.054-.052h-.162l-.159.052-.053.162zm.267 28.536l-.214.16-.107.427.054.213.16.054.107-.16-.055-.16.055-.32v-.214zm-.374-1.654l.16-.106v-.054l-.053-.053h-.16l-.161.107.214.106zm-.75 1.067l-.214.107-.053.16v.053h.053l.161-.106.054-.214zm-.535-29.87l.16.107.161.053.107-.106v-.16l-.053-.107h-.107l-.16-.053v.053h-.054l-.054.053v.16zm.107 29.443h.214l.054-.053-.054-.107-.16-.106-.214.106.16.16zm-.374-1.333l.214-.107.053-.213-.053-.16-.268.106-.16.267.214.107zm-.268-26.403l.054.052v.108l.16.16h.214l.054-.16-.054-.16-.214-.053h-.16l-.054.053zm-.803 28.59l-.107-.053h-.053l-.107.106.053.107h.107l.054-.053.053-.107zm-.214 1.44l-.107-.106-.107.053v.107l.107.053h.107v-.107zm-.428-30.937l.321.054.428-.16-.374-.107-.321.053-.054.054v.106zm-.053 29.604l-.054-.054h-.214l-.053.054.107.106h.16l.054-.106zm-.59-14.989l-.053-.747V29.55l.214-1.44v-1.28l.056-1.067.052-.746v-1.44l.32-.055 1.071-.053 1.124.053 1.659.055h1.07l.91.052.803.107.694.16.75.32.695.481.589.479.215.213-.695-.105-1.017-.055h-1.017l-1.713-.053-1.123-.053-1.178.053-1.82.267.323.586v1.12l-.055 2.615-.053 1.12-.215 1.493-.053 1.12.053 1.068.054 1.547v5.12l-1.07-.054h-.482l-.054-1.386-.053-1.815v-4.853zm-1.39-2.56l.053 1.067.053 1.547v4.8l.056 1.12.052 1.493v1.76l1.66.107 1.176.053h3.907l1.07-.106.964-.16.856-.267.962-.479.802-.588.751-.692.642-.693.59-.802.48-.905.374-.907.537-1.92.159-1.014.108-.96.054-1.014-.054-1.013-.162-.907-.214-.907-.268-.907-.32-.907-.375-.907-.427-.8-.589-.747-.643-.693-.748-.587-.856-.532-.91-.427-.856-.213-.965-.108-1.016-.052h-1.018l-1.711-.053-1.124-.055-1.176.055-1.66.213.16.64v1.866l-.053.748v1.119l-.054 1.12-.214 1.494-.054 1.12zm-.748-10.508l.105.107.107.053.054-.053v-.107l-.054-.106h-.107l-.105.106zm-.803 1.44l.214.107-.214-.32v.212zm-1.072 4.64l-.105-.213-.163.16v.106l-.053.054v.267l.216.053.159-.213-.054-.214zm-1.07-6.72l.108.052.054.055.052.16.108.16v.267l.107.053h.052l.054.053.267-.053v-.107l.054-.053v-.107l.055-.053.054-.107-.109-.213-.321-.213-.16-.054h-.161l-.052-.053h-.054l-.108.053v.16zm-.589 2.506l.162.055h.16l.108-.16v-.16l-.107-.054h-.16l-.108.159-.055.16zm-.159 3.68l-.268-.106.214.32-.055.16.055.16.16-.053-.054-.212-.052-.268zm-.803-1.918l.268.052h.105l.376-.319-.108-.482-.16.267-.32.16h-.109l-.052.055v.267zm-.91-2.934l.161-.16v-.108h-.055l-.106.161v.107zm-.267.8h.105v.16l-.053.212.162.162.105-.107.109-.215-.109-.212-.105-.107.053-.053-.107.053h-.055l-.105.107zm-1.393-3.894l.053.107.162.053.214-.053.16-.214.162-.16.267-.053.268-.16-.054-.107v-.053l-.374.053-.321.267-.108.16h-.16l-.16-.053-.11.053v.16zm-.373-.96l.105.053h.109l.053-.053-.053-.054-.054-.106h-.107l-.053.053v.107zm-1.285 1.653l.16.267h.215l.107-.16.214-.053.16-.054-.214-.16h-.267v-.053h-.054l-.107-.107-.16.054-.054.266zm38.156 12.375v1.12l-.054 1.974v2.025l-.162 2.082-.214 1.12-.321 1.066-.373.962-.642 1.919-.321.906-.912 1.974-.694.96-1.552 1.6-1.499 1.388-1.659 1.28-1.82 1.067-2.031.853-1.982.639-2.032.427-2.944.481-1.07.16-.91.052h-4.228l-2.622.108h-.857l-.8-.108-.804-.052-4.013-.108h-2.837l-1.07.053-.696.107-.535-.052-.375-.108-.267-.16-.161-.212-.107-.373-.107-.747h.16l.857-.107 1.07-.053h1.124l1.604.053 1.179.052 1.925.055.804.107h2.516l1.604-.107h3.96l2.301-.055 1.123-.16 2.89-.478 2.089-.427 1.978-.64 2.034-.854 1.82-1.067 1.659-1.28 1.498-1.387 1.552-1.6.694-.96.91-1.974.321-.96.644-1.868.642-2.027.268-1.12.105-.959.054-1.12v-2.027l.055-2.027-.055-1.067-.268-2.08-.266-1.014-.214-.853.373.533.537.854.426.853.377 1.334.212 1.067.109.96zM250.73 18.456l-.16-.267-.215-.106-.053.053v.053l.16.214.268.053zm.534 33.23l-.802.107-.802.054-1.178-.107-.373-.108-.269-.159-.16-.213-.108-.373-.16-1.014.053-.693.107-.694.054-1.067-.106-1.013-.108-.747-.054-.694.107-1.013.16-.374.163-.213.321-.107.373-.106 1.017-.054 1.392.32 1.016-.106.16-.16-.053-.214-.107-.32-.053-.32-.054-1.174-.107-1.598-.053-2.294v-3.948l.053-1.6.054-1.174v-1.173l.214-1.6.053-1.174v-1.174l-.053-1.6v-1.492l.107-.268v-.212l-.214-.107-.963-.107-.696.107-.75.16-.963-.053-.373-.107-.269-.16-.214-.215-.054-.372-.052-1.013.106-1.387v-1.067l-.054-1.014v-1.387l.16-1.013.108-.374.107-.266.162-.16.373-.107 1.124-.16 1.658.213 1.179.054h1.177l.801-.107 2.034-.107h1.177l1.607.054 1.176.053 1.178-.053h3.96l1.66.16 1.175.053 1.982-.053h1.017l.91.106 1.924.48 1.822.64.961.267.964.374 1.712.747 1.713 1.013 1.498 1.227 1.285 1.387 1.177 1.6.535.799.59.748.963 1.706.32.908.268.959.427 1.974.108 1.92-.053.96v2.027l-.055 1.974-.321 1.974-.641 1.867-.321.905-.642 1.92-.803 1.814-.589.8-.696.694L283 46.459l-1.498 1.28-1.66 1.12-1.712.907-2.836.96-1.925.374-3.96.64-1.02.053h-1.175l-1.659.054-2.353-.054-1.607.106h-2.354l-.804-.106-3.158-.106h-4.013zM325.278 43.739l.267.053.268-.107-.052-.106-.055-.054h-.213l-.215.214zm-.75 4.107l-.107-.055-.105.055-.055.107v.053l.055.054.159-.054.053-.053v-.107zm-.48-1.92l-.215-.214-.268-.053-.159.16.054.267-.054.16-.108.16.32-.053.163-.214h.052v-.053l.162-.053.053-.107zm-.536 1.654l-.106-.107-.108.053-.215.054v.211l.056.269.053.213-.162.267-.054.32.107.053h.056l.212-.373v-.374l-.107-.16.107-.16.16-.106v-.16zm-3.317-.64l-.055-.162h-.054v-.052l-.052-.053v.213l.052.107.054.053.055-.107zm-.482-44.912l-.108.053-.16.16v.213l.106-.106.054-.16h.162l.052-.055-.106-.105zm-.483-1.014l.162.054h.106l.162-.107-.055-.16-.16-.054-.106.107-.109.16zm0 48.433l-.159-.054-.16.105h-.322l-.215-.105-.16.16-.053.265.213.162.053.212.162-.052.322-.215.214-.267.105-.105v-.106zm-1.015-3.254l.053-.054.214.054.107-.16-.162-.16-.159.106h-.107l-.055-.053-.212-.107-.214.053v.16l.214.16h.32zM317.68 3.04l.214.054.212.158.109.108.159-.108-.052-.158V3.04L318 2.88l-.321.161zm-.268 48.966l-.053-.055h-.161l-.054.107.106.108h.109l.053-.108v-.052zm-.43-47.26h.162l.054-.16h.052l.055-.052h.16l.053-.16V4.32h-.268l-.106.162-.053.053-.109.052v.16zm.109 43.58l.214-.214-.107-.213-.16-.109-.108.162-.053.107.053.213.16.053zm-.482-45.232l.16.051.161-.051-.107-.215-.107-.052-.107.052v.215zm-.107 47.525l-.214-.053-.16.16h.214l.16-.107zm-.749-49.18l.107-.052.054-.16-.11.106-.051.107zm-.107 45.5l.535.106-.16-.268-.054-.319v-.213l-.214-.107-.214.214v.106l.107.48zm-.75-41.18h.108l.107.054.107-.214-.054-.105-.107.052-.16.108v.105zm0-2.774l.053.215v.105l.055.055h.107v-.16l.107-.055.053-.105.16-.055v-.158l-.106-.16h-.16l-.161-.053-.055.105-.052.266zm-.32-1.758h.107l.053-.107v-.053h-.107l-.053.053v.107zm-.803 46.563l-.107-.16-.268-.105-.107.054-.16.051.107.16.16.055h.16l.215-.055zm0-1.919l-.214.054-.16.053-.161-.16h-.161v.16l.214.107.268.053.214-.267zm-1.445-41.125l.053.106h.214l.054-.16v-.158l.053-.16.107-.16.107-.215-.053-.052h-.054l-.214.212-.053.267v.108l-.054.107h-.16v.105zm.214 42.833l-.107-.214-.107-.107-.266-.053-.109.16.109.214.266.051.214-.051zm-.856-43.205l.053.052h.107l.054-.052V4.32h-.054l-.107-.053-.053.053v.055zm-.054 1.385l.107.214.16.053.108-.053.055-.16.052-.107.107-.107-.214-.053-.16.16h-.161l-.054.053zm11.29-2.614l1.767.055.268.212v.268l-.052.212-2.89 3.468-2.837 3.574-.216.16-3.048-.054-4.12.054-.162-.054-.053-.106-.054-.214.054-.106.642-1.387h5.296l.484-.107.32-.267 4.602-5.708zm-11.343 41.82v-.16l-.161.106v.16l.16-.106zm.107 2.347l-.107-.107h-.161v.053l-.054.054.054.053h.16l.108-.053zm1.016-1.067l-.267-.16-.214-.107h-.054l-.105.054-.43-.214h-.053l-.108.107-.214.053.161.054.053.053h.108l.483.053.266.107h.374zm-1.284 1.814l-.107-.107-.106-.053h-.376l.376.16h.213zm-.856-.854l.32.107h.108v-.107l-.268-.107-.373-.213.213.32zm-.534-40.165l.213.054.16-.108-.214-.053h-.159v.107zm.589 40.859l-.323.373-.375.16.536-.053.162-.48zm-1.019-.96l.107-.054.055-.108h-.055l-.053-.052h-.16v.107l.106.106zm.803 3.467l-.107-.267-.16-.16-.215-.107-.267-.16-.268.16.16.427.538.16.32-.053zm-1.07-2.827l.053-.054v-.053l-.053-.107-.107.053-.052.054v.053l.052.054h.107zm-.107-1.547l-.052.106h.105l.054-.053.053-.214-.053-.106v-.107l-.054.053-.105.16.052.16zm-.375-.64h-.107l-.105.106-.054.16.266.107.16-.16-.16-.214zm-.266-37.499l-.055-.16.055-.16 1.818-3.52 1.713-3.573.214-.267.32-.053 1.392-.054 1.98.054 3.372-.054 1.925-.106 1.5.16.322.266-.11.427-2.621 3.413-2.728 3.307-.482.427-.537.16-1.176.053-2.73-.16h-3.906l-.16-.053-.106-.107zm.054 40.646l-.109-.107-.107-.053-.214-.054-.054.054h-.053v.105l.16.108h.214l.163-.053zm-.484-4.748v.053l.054-.053v-.053l.053-.054h-.053l-.16-.106.053.16.053.053zm.964 3.307l.055-.16-.055-.106-.107-.107-.16-.053h-.054l-.16.16-.32.266-.43.267.32.053h.377l.213-.053.267-.16.054-.107zm-1.123-2.56h-.055l-.053.16v.053h.053l.055.054.16.213.267.053.216-.053v-.16l.105-.32.162-.053-.055-.16h-.266l-.376.053-.107.107-.106.053zm-.267-.427l-.216.32v.214l.107-.054.109-.053.105-.107.054-.107v-.053l.053-.053h-.053v-.107l-.106-.107-.32-.106.105.106.162.107zm.588 5.068l-.055-.16-.16-.054-.16-.106-.375-.107-.268-.268v.428l.483.319h.052l.054.055h.053l.321.051.055-.051v-.107zm-1.018-3.468l.109.054h.053l.052.053h.054l.43.214-.377-.267-.053-.054h-.268zm0 .8l-.053-.106v-.053l-.052-.054v.374l.802.16-.214-.214-.374.054-.109-.16zm-.053-1.013l-.106-.107-.055.054h-.054v.106l.11.107.105-.053v-.107zm-.215 4.693v-.159l.163-.108-.109-.158h-.213v.213h-.055l-.053.053-.054.212.107.215.109.052h.052l.107-.105-.054-.215zm.215-2.506l.053-.055v-.105l-.053-.107-.106-.106-.162.053-.106.053h-.214l-.162.054h-.159v.053l.052.054h.216l.159.051.321.055h.16zm-.803-1.6h.053l.055-.053v-.054l.054-.107-.216-.16-.052.16.106.214zm-1.55-11.95l-.054-1.438.212-2.294.482-1.814.91-1.813 1.124-1.387 1.498-1.227 1.606-.854 2.033-.587 1.98-.16 1.927.16 1.392.32 1.871.854.162.107-.695-.16-2.141-.16-2.25.16-2.3.693-1.872.96-1.66 1.387-1.284 1.6-1.017 2.028-.588 2.08-.266 2.614.107 1.652.32 1.76-.374-.586-.697-1.707-.427-2.187zm-.268 10.03l.214.106.107-.107.052-.106-.16-.16h-.108l-.159.16.054.106zm-.107 1.92v.053l.053.054.321.053.214-.107.268.054.266.106h.214l.109-.16-.055-.106-.107-.16h-.161l-.054.16-.159.053-.214-.107-.374-.053-.321.16zm1.766 1.28l-.055-.107v-.16l-.16-.213-.106-.16h-.162l-.215.052h-.212l.107.268-.216.16-.32-.213-.161-.267h-.321l-.213.052-.055.215.162.16.16-.054.16.107v.16l-.106.214-.053.266-.109.16.109.212-.109.427.75.535h.054l.482.107.321.051h.106l-.052-.051-.162-.107-.268-.214-.266-.106-.16-.107-.322-.373-.108-.107v-.055l-.107-.158v-.054l-.052-.106.159-.214.162-.16.214-.053h.214l.159-.107.162-.16.48.213.109-.053zm-2.196-1.333l-.16-.16h-.108l.109.213.053.053h.106v-.106zm-.373-13.549l.159 1.708.267 1.333.322 1.12.535 1.174.803 1.172.963 1.12 1.712 1.44 1.713.854 1.875.587 2.192.267 2.302-.107 1.926-.48 1.925-1.174 1.392-1.387 1.23-1.493.966-2.028.48-1.972.109-2.134-.056-1.813-.428-2.4-.908-1.921-1.286-1.6-1.336-1.387-2.034-1.227-1.713-.48-2.569-.16-1.926.16-2.246.586-2.088 1.067-1.5 1.28-1.122 1.547-.482.96-.483 1.228-.373 1.12-.216 1.493-.105 1.547zm34.729 2.08l-.107 2.613-.373 2.454-.59 2.294-.964 2.4-1.23 2.188-1.444 1.92-1.499 1.547-2.463 1.866-2.835 1.547-1.713.641-1.659.532-1.818.374-2.997.373-2.408.107-1.606-.054-2.462-.213-2.569-.48-1.552-.587-1.604-.8-2.998-1.76 2.355.96 1.98.586 2.836.534 2.462.213 1.606.054 2.408-.107 2.997-.373 1.82-.372 1.657-.535 1.713-.64 2.836-1.546 2.462-1.867 1.499-1.547 1.445-1.92 1.23-2.188.962-2.4.589-2.294.376-2.452.107-2.614-.053-1.76-.216-2.134-.482-2.294-.588-1.974-.91-2.134 1.34 2.188.426.693.535 1.28.43 1.387.642 1.707.106.32.053.374.214 2.134.054 1.758zm-35.585 7.361l.426-.053.43.106.053.16h.16v-.106l-.108-.107-.105-.213-.109-.16.055-.214-.108-.213-.213-.16h-.107l-.16.16.053.053.054.107-.054.16-.108.107-.054.16-.105.213zm-.268-.694h-.054l-.108.054v.053l-.054.054.162.053h.054l.053-.053.106-.054-.054-.053-.105-.054zm-.535-1.707l.052.054h.108l.054-.054.053-.106-.107-.054h-.108l-.052.054v.106zm.267 4.001l-.215-.106h-.16l-.053.106.107.16.16.107.161-.053.052-.107-.052-.107zm-.642-8.853l.054.106.105-.106v-.16l-.105-.055-.054.055v.16zm-.481 5.386l-.108.213.054.214.321-.32-.16-.48-.108-.16h-.107v.266l.108.267zm.373.907l-.106.213-.216-.16-.212-.053.16.427.268.053h.054l.052-.107.108-.053.16-.16.215-.054h.214l.214-.106v-.107l.053-.107-.108-.16-.16.054-.32.16-.376.16zm-.695-2.4l-.053.107v.106l.107.053.107-.107v-.106l-.107-.054h-.054zm-.215-10.988l.055.053.053-.053.054-.107v-.107l-.107-.053-.055.053v.214zm0 8.16v-.212l-.052-.16-.054.16.106.212zm2.087 10.296h.268l.215-.054.32-.267-.213-.106h-.055l-.105-.054-.054-.053-.267-.053h-.215l-.32-.107v-.053h-.054l-.214-.214.481-.053.054.053h.214l.268.054.053.053.321.107.054.053.105.053.162.054.32-.054.053-.213v-.053l.377-.374-.214-.48-.216-.213v-.054h-.373l-.162-.053-.16-.107-.053-.053-.055-.107.535-.106h.216v-.214l.159-.16.055-.213.321-.267.48-.053.055.053h.054l.053-.053.052.053h.054v.214l.055.106h-.214l-.162.16v.054l.053.053.055.107h.268l.159-.107h.162l.106.213.053.214.054.053v.053l.108-.053.213-.053.108-.107h.214l.054-.16-.162-.107-.106-.053-.108-.107-.054-.106-.48-.534-.109-.053h-.159l-.053.053v-.107l-.055-.053-.16-.213-.108.053-.053.053-.16-.053-.213.053v-.053l.105-.16-.105-.213-.162-.374-.106-.373-.27.106.108.374.109.267-.054.213v.213l.107.214-.428.427-.109.053-.373-.107-.162.267-.105-.107-.43.267-.106.373.106.267.268.107v.106l-.16.32-.108.32h-.375l-.267-.373.162-.16h.159l.108-.107-.162-.106-.159-.054-.267-.106-.214-.054h-.162l-.322-.106-.105-.054-.054.054h-.053l-.107-.214h.16l.054-.213h.053v-.053l.108-.16.053-.267h.268l.48.107.43-.214-.268-.32-.109-.32v-.053h-.053l-.052-.054-.107-.053h-.268l-.053.053-.055.107v.16l.055.107h.16l.107.213-.16.107-.214-.107h-.16l-.322.16-.055.16v.16h-.213l-.16.054-.107.32.053.106v.054l.106.16-.213-.054h-.16v.107h.053l.214.107.16-.054.161.107.106.16h.055v.107l.16.267.322.266v.054l.052.053-.106.32.106.373.108.107.054.107.053.053-.107.107v.16l.375.267h.052l.108-.054.16-.053.053.053.108.054.16.106.108.107.054.16.105.16.054-.16.055-.107-.055-.266-.106-.16-.162-.16zm-2.193-4.535l-.107-.16h-.16l-.054.107.054.213.105.16.162.054.106-.16-.106-.214zm0 3.681l-.053-.213-.16-.16h-.161l.107.213.267.16zm-.642-16.909l.268.267.16.107.107.266.16.214.108-.107-.107-.373-.268-.214-.107-.053-.053-.16v-.16l-.055-.16-.106.053-.053.107-.054.213zm.213 5.335l.162-.162.105-.052v-.213l-.105-.267-.214-.213-.054-.16h-.107l-.053.16.053.158v.322l-.053.213.107.16.159.054zm-.748-6.828v-.054l.053-.16-.053-.106h-.214l-.16.213.053.213.16.107.107.32.107-.267-.053-.266zm-.321 13.174l-.054-.106h-.055l-.105.053-.054.16.054.107h.105l.109-.054v-.16zm-.375-15.842l.16-.213.054-.213-.053-.054h-.054l-.107.214v.266zm.054 10.774l.16-.053.052-.158-.052-.109-.107-.106-.16.106-.107.16.107.107.107.053zm-.268 9.122l-.107-.213-.107-.16-.107-.053v.16l.053.106.108.16.107.054h.053v-.054zm-.375-13.014l.107-.054v-.266h-.16l-.107.106.053.107.107.107zm0 8.427l-.053-.214-.214.214-.107.213.16.16.16-.107.054-.266zm-.267-3.414l.107-.479-.214.159h-.428l-.054.268.107.16h.054l.053.052.375-.16zm-.696-2.027h.16l.108-.212v-.374l.053-.213-.107-.107-.107.107.054.213-.054.107v.053l-.107.214v.212zm-.053 4.107l-.214-.213.053.213v.16l-.107.16v.16h.107l.16-.48zM303.55 50.3l-1.713-.802-1.55-.905-1.34-1.227-1.23-1.387-1.39-1.387-1.071-1.387-.75-1.813-.534-1.654-.536-1.867-.32-1.707-.268-1.92-.054-1.76.054-1.867.214-1.813.43-1.867.588-1.654.694-2.08.643-1.333 1.177-1.922.91-1.173 1.552-1.28 1.391-.959 1.606-1.067 1.497-.853 1.874-.8 1.55-.48 2.035-.427 1.607-.267 1.871-.214 1.766-.16 1.55.054 2.143.16 1.872.32 1.766.373 1.659.427 1.873.747 1.768.907 1.443 1.013 1.552 1.386 1.124 1.175 1.178 1.652.802 1.44 1.017 1.707.75 1.547.48 1.974.267 1.654.27 1.867.051 1.813-.212 1.973-.323 1.655-.212 1.972-.268 1.707-.856 1.867-1.875 3.148-1.069 1.333-1.391 1.44-1.338 1.066-1.606 1.068-1.552.854-1.82.638-1.712.48-1.766.534-1.818.427-1.82.106h-1.927l-1.873-.053-1.82-.213-1.498-.319-3.746-1.173-1.766-.694z"/></g></g></svg>
