<svg class="{{ include.css-class }}" width="18" height="31" viewBox="0 0 18 31" xmlns="http://www.w3.org/2000/svg"><title>Facebook</title><path d="M6.962 25.75c-.061-.045-.337.259-.275.364 0 0 1.27 1.642 1.44 1.87.168.228.337.274.505.181.169-.09-.06-.364-.184-.607-.122-.243-1.424-1.762-1.486-1.808m-1.057.502c-.185.049-.245.167-.076.485.168.32 1.18 1.428 1.333 1.428.153 0 .383-.182.23-.38-.154-.196-1.257-1.594-1.487-1.533m8.763-24.434c-.272-.051-.399.472-.26.532.138.061 1.072.198 1.333.228.26.03.429.015.49.183.062.166-.015 1.686.092 1.762.108.076.567.228.567-.167 0-.394.061-2.02-.122-2.172-.185-.153-1.777-.305-2.1-.366m-3.57 4.832c-.121-.03-.658.136-.933.411-.277.273-.798 1.155-.89 1.444-.091.289-.048.697.108.76.154.06.321 0 .429-.077.108-.076.108-.683.353-1.201.245-.516.995-.85 1.071-.912.078-.06-.014-.394-.138-.425m-3.66-2.947c-.491.243-1.41.973-1.977 1.899-.567.927-.72 1.625-.736 2.234-.014.608.089 1.009.2 1.063.123.06.29-.014.428-.014s-.014-1.749.798-3.131C6.962 4.37 8.127 4.037 8.326 4.02c.2-.014.168-.303.122-.516-.046-.212-.52-.046-1.01.198m-2.85 8.904c-.108.014-.092.455-.092.623 0 .166-.996.06-1.241.046-.245-.016-.483.05-.445.243.016.075 0 .257.092.303.092.045 1.992.06 2.176.06.183 0 .138-.94.107-1.154-.031-.212-.49-.137-.598-.121m12.61-6.23c-.277.03-3.004-.243-4.535.304-1.532.546-2.391 2.097-2.483 2.947-.092.851-.122 2.431.124 2.431.245 0 2.42.046 3.246.077.828.03 1.273-.015 1.349.091.077.107 1.242 1.733 1.226 1.838-.016.107-.122.654-.184.577-.061-.075-1.149-1.944-1.226-1.869-.076.077-.275.366-.138.564.138.196 1.303 1.928 1.287 2.005-.015.076-.152.485-.23.38-.076-.107-1.394-2.34-1.47-2.31-.077.03-.29.319-.185.5.108.184 1.533 2.144 1.548 2.25.016.106-.015.911-.106.882-.092-.03-1.38-2.416-1.594-2.416-.215 0-.29.41-.169.562.123.152 1.64 2.356 1.64 2.401 0 .046-.353.258-.475.167s-1.364-2.431-1.486-2.431c-.124 0-.46.152-.353.318.108.168 1.302 2.067 1.24 2.083-.06.014-.29.09-.458-.091-.17-.184-1.135-1.855-1.257-1.824-.122.03-.353.289-.23.441.123.15 1.195 1.474 1.074 1.504-.124.03-.736.015-.782-.046-.046-.061-.66-1.246-.797-1.246-.138 0-.322.213-.246.35.078.136.552.88.507.88-.046 0-1.426-.075-1.472.091-.046.168.078 1.292 0 1.246-.076-.045-.688-1.26-.78-1.26-.093 0-.261.349-.2.5.06.153 1.012 1.292 1.042 1.415.03.12.03 1.017-.03.896-.062-.121-.981-1.717-1.043-1.687-.06.031-.214.44-.184.532.03.09 1.257 1.794 1.287 1.914.031.123.046 1.276-.014 1.185-.062-.09-1.38-2.551-1.486-2.537-.108.015-.2.532-.14.7.062.166 1.564 2.43 1.58 2.551.014.123.03.73-.032.685-.06-.046-1.67-2.963-1.745-2.918-.078.046-.14.471-.093.653.045.184 1.838 2.917 1.854 2.979.016.06-.016 1.276-.076 1.216-.062-.061-1.87-3.192-1.976-3.176-.108.015-.185.561-.108.7.076.136 2.114 2.992 2.13 3.144.014.153.076.896 0 .867-.078-.032-2.222-3.572-2.3-3.556-.075.015-.183.486-.153.593.032.105 2.421 3.661 2.421 3.783 0 .121-.014.228-.153.228-.138 0-.29.014-.43-.122-.137-.137-2.113-3.357-2.25-3.327-.138.03-.169.546-.123.714.046.166 2.144 2.75 2.068 2.78-.077.03-2.85-.167-3.064-.167-.214 0-.398-.06-.398-.06s.092-.123-.169-.396c-.26-.273-.644-.714-.812-.607-.169.105-.107.287 0 .394.108.107.537.425.46.486-.077.062-1.18-.015-1.225-.12-.046-.107-.062-4.468-.092-5.987-.032-1.52-.108-3.693-.445-3.92-.337-.228-2.85-.29-2.987-.426-.11-.108-.429-4.954-.245-4.984.183-.03 2.542.061 2.941-.182s.49-.669.429-1.216c-.062-.546-.429-4.346.275-5.805.706-1.458 2.114-2.856 4.29-3.707 2.175-.85 4.872-.79 6.742-.548 1.869.244 2.052.578 2.082 1.46.032.88.062 3.647-.213 3.677m-1.578 5.728c.092 0 .535.486.658.684.122.198-.061.548-.107.578-.046.03-.551-.821-.628-.942-.076-.122.015-.32.077-.32m2.19-10.165C17.656.663 14.592.512 12.845.512c-1.747 0-3.585.182-5.944 1.428-2.36 1.246-3.187 3.434-3.493 4.771-.306 1.337.06 5.227.06 5.318 0 .092-1.836.092-2.542.121-.704.032-.858.335-.92.518-.061.182.308 5.257.308 5.257l.213 1.823c.399.213 2.36.122 2.698.183.337.06.459.516.489 1.792.031 1.276.215 6.17.245 7.172.032 1.003.49 1.003 1.594 1.034 1.102.03 5.362.15 5.607.15.245 0 .49-.302.49-1.244 0-.943.306-8.874.338-9.056.03-.182.674 0 1.224 0 .553 0 3.187-.182 3.648-.243.459-.062.642-4.802.642-6.352 0-1.55-1.011-1.611-1.654-1.641-.643-.03-3.707.091-3.892-.03-.183-.122.582-2.492 1.593-2.978 1.012-.487 3.494-.214 3.801-.153.306.062.52-.638.55-1.184.032-.548.062-3.982-.091-5.258" fill="#FEFEFE"/></svg>
