<svg class="{{ include.css-class }}" width="33" height="32" viewBox="0 0 33 32" xmlns="http://www.w3.org/2000/svg"><title>Instagram</title><path d="M18.809 17.805c-.753.747-2.161 1.559-3.603 1.495-1.441-.065-2.719-.764-2.505-2.388.212-1.625.933-2.21 1.653-2.892.48-.455 1.687-1.202 2.636-1.235.951-.03 1.508-.064 1.934.96.426 1.023.638 3.313-.115 4.06m-3.227-7.098c-1.834-.146-3.068 1.083-3.455 1.544-1.064 1.265-1.048 4.125-.638 5.375.409 1.252 2.44 2.16 3.225 2.34.786.178 3.784-.39 4.603-1.804.819-1.412.606-3.606.147-5.018-.459-1.414-2.048-2.29-3.882-2.437m-1.638-.212c.329-.08.18-.503-.016-.567-.196-.066-.884.114-1.785.698-.9.585-1.523 1.397-1.605 1.787-.082.39-.049.893.033.958 0 0 .344.032.492.032.146 0 .196-.99.802-1.689.606-.698 1.752-1.138 2.08-1.219M26.31 7.751c-.181 0-2.195.082-2.31-.032-.114-.114-.081-2.21 0-2.373.078-.153 2.358-.178 2.457-.031.098.145.033 2.436-.147 2.436m-.05-4.174c-.36-.081-3.144 0-3.438.096-.296.099-.296 1.057-.278 1.837.015.78.04 2.654.163 2.793.344.39 3.684.26 4.143.13.46-.13.246-2.989.197-3.687-.049-.699-.426-1.088-.786-1.17m-4.406 5.377c-.212-.082-.066-1.284-.099-1.43-.031-.146-.687-.224-.687-.049 0 .13-.115 1.9 0 2.095.115.197 1.212.228 1.506.228.296 0 .165-.406.132-.6-.033-.195-.64-.163-.852-.244M7.198 2.78c-.393-.016-1.638.455-2.539 1.105-.9.65-1.571 1.933-1.604 2.387-.033.455.007 1.52.081 1.592.115.114.46.065.606.017.147-.048.05-.504.017-.926-.033-.423.278-1.154.687-1.754.41-.602 1.441-1.333 1.949-1.543.507-.212 1.032-.228 1.163-.374.13-.147.033-.487-.36-.504m23.157 14.554c-.098 3.411-.05 5.1-.147 6.14-.1 1.04-.329 1.64-.41 1.64-.082 0-.705-.91-.705-1.023 0-.114.082-2.761.1-4.856.015-2.096.032-5.555-.018-6.172-.049-.618-.23-.926-.638-1.007-.409-.083-3.194-.114-4.635-.098-1.442.015-1.835 0-1.916.098-.082.096-.147.795-.065 1.007.082.21.245.762.245.812 0 .048.098 3.328-.573 4.613-.672 1.283-1.31 2.614-3.636 3.475-2.325.862-3.44 1.057-5.519.341-2.08-.714-2.898-2.03-3.242-2.956-.345-.926-.508-3.102-.41-4.45.098-1.349.213-1.61.425-1.835.214-.228.46-.39.393-.585-.064-.196-.228-.277-.949-.44-.72-.162-2.571-.146-3.225-.162-.656-.015-1.099.049-1.327.666-.23.617.212 6.156.311 8.803.098 2.649.261 4.061.932 4.972.673.909 1.196 1.202 2.163 1.347.965.146 2.768.374 4.618.341 1.85-.033 6.355-.178 7.452-.178 1.097 0 2.473-.08 2.506-.032.033.048.966 1.916.883 1.981-.082.066-.605.13-.687.048-.082-.08-.819-1.753-1.015-1.753-.197 0-.525.146-.525.243 0 .098.918 1.478.852 1.51-.065.033-.868.049-.95-.015-.081-.066-.622-1.592-.737-1.592-.115 0-.377.016-.426.097-.049.08.557 1.414.492 1.43-.066.016-.574.032-.64-.033-.064-.064-.605-1.446-.704-1.446-.097 0-.376.147-.376.211 0 .065.426 1.267.36 1.267-.065 0-.77.049-.834 0-.066-.048-.41-1.12-.54-1.12-.133 0-.509.146-.476.275.032.131.442.894.343.91-.097.016-3.717.163-6.682.065-2.963-.097-4.143.13-5.289-.438-1.146-.57-2.604-2.08-3.08-3.2-.474-1.12-.621-4.093-.507-6.32.115-2.224-.097-5.293.049-8.299.148-3.004-.082-6.832 2.26-8.467.525-.367 1.835-1.256 2.708-1.538.873-.282 2.249-.585 2.468-.369.218.217.409 1.133.572 1.148.165.017.508-.048.444-.26-.066-.21-.444-.925-.345-.925.098 0 .41-.082.49-.017.084.066 1.016 1.22 1.279 1.95.262.73.262.698.377.698a.236.236 0 0 0 .23-.292c-.034-.195-.362-1.235-.672-1.721-.311-.488-.492-.748-.41-.748.082 0 .41-.163.556 0 .148.162 1.033 1.396 1.344 1.998.312.6.261.747.409.78.148.032.344-.081.23-.374-.115-.292-.442-1.104-.804-1.656-.36-.553-.523-.862-.441-.862.081 0 .836-.064.95.065.114.13 1.18 2.177 1.555 2.989.377.812.574 1.445.722 1.445.147 0 .278-.081.212-.21-.065-.13-1.146-2.518-1.457-3.298-.312-.78-.36-.941-.279-.958.082-.016.606-.097.738 0 .13.098.965 1.933 1.604 3.167.639 1.235 1.146 2.225 1.261 2.225.115 0 .212-.145.098-.309-.114-.162-1.31-2.94-1.588-3.459-.278-.52-.737-1.592-.607-1.607.132-.017.623-.05.689.08.066.13 1.278 2.129 1.817 3.508.54 1.382.655 1.723.737 1.723.082 0 .148-.114.132-.164-.017-.048-.786-2.24-1.245-3.247-.459-1.007-.786-1.657-.671-1.706.115-.05.786-.065.868.065.081.13 1.424 2.891 1.752 3.59.327.698.508 1.185.605 1.185.1 0 .197-.146.1-.373-.1-.228-1.13-3.006-1.426-3.623-.294-.617-.376-.844-.279-.844.1 0 .492-.082.574.114.082.195 1.85 4.158 1.916 4.19.066.033.212-.08.212-.179 0-.096-1.13-2.923-1.309-3.395-.18-.47-.278-.681-.132-.698.148-.016.787-.016.803.033.016.05 1.228 2.762 1.343 2.777.114.016.213-.048.213-.26 0-.21-.754-1.964-.836-2.128-.082-.162-.212-.34-.082-.357.132-.015.885.033.885.033s.623 1.348.802 1.364c.18.017.426-.162.311-.422-.113-.26-.507-1.007-.408-1.007.097 0 .523-.033.589.065.066.097.786 1.69 1 1.705.212.016.342-.146.31-.276-.032-.13-.787-1.51-.703-1.51.081 0 .687-.049.801.065.115.113.623 1.397.885 1.413.261.015.36-.228.311-.325-.05-.098-.557-1.088-.474-1.088.081 0 .31-.05.424.13.115.178.984 2.192 1.066 2.192.082 0 .393-.226.327-.406-.066-.179-.753-1.738-.656-1.786.1-.049.525 0 .786.357.263.357.362.893.508.91.148.016.377-.212.459-.18.082.034 1.179 1.105 1.26 3.119.084 2.014.689 8.268.591 11.68m-1.114 9.127c-.13.033-.508-.568-.523-.666-.018-.097.081-.828.163-.845.047-.008.737.699.753.764.017.066-.262.716-.393.747m-.852 1.365c-.147-.05-.54-.829-.556-.926-.012-.072.605-.44.605-.44s.54.537.508.603c-.032.065-.409.812-.557.763m-1.048.877c-.115-.033-.654-1.185-.704-1.25-.029-.04.558-.31.672-.228.115.08.621 1.024.621 1.024s-.474.486-.59.454m-.49.276c-.099.098-.507.211-.573.194-.066-.015-.868-1.607-.917-1.655-.067-.067.623-.066.737.015.114.081.85 1.349.753 1.446m-2.048.569c-.097-.049-.932-1.9-.932-1.95 0-.094.736-.048.786-.032.049.016 1.097 1.592 1.047 1.706-.049.113-.802.324-.9.276M8.098 17.496c.048.764.507 3.298 2.178 4.629 1.67 1.333 3.128 1.917 4.6 2.031 1.475.114 3.49-.195 4.587-.764 1.098-.567 2.784-1.754 3.358-3.102.572-1.348.998-3.102.998-3.996 0-.893.115-1.884.18-1.9.067-.016 4.356-.243 4.455-.081.098.162.18 6.318.049 8.04-.13 1.722-.13 3.135-.753 3.622-.622.487-.655.682-2.735.828-2.08.147-5.061.471-8.254.471-3.194 0-6.895-.031-8.205-.178-1.31-.146-2.359-.488-2.456-1.024-.1-.535-.23-4.19-.329-6.415-.097-2.226-.015-4.597.115-4.744.125-.138 2.212-.698 2.278-.617.064.082-.115 2.437-.066 3.2M24.23 29.662c-.082.049-.622.18-.721.081-.098-.096-.95-1.933-.965-2.014-.028-.135.752-.114.818-.032.065.08.95 1.917.868 1.965m8.472-13.41c-.065-3.575-.218-8.631-.415-9.41-.196-.78-2.686-4.353-3.538-5.133-.85-.78-2.424-1.138-3.832-1.17C23.51.506 11.915.051 8.737.441 5.56.832 4.304 2.025 3.463 2.747c-.741.64-1.593 1.268-2.008 2.502C1.04 6.484.997 9.992.91 13.761c-.087 3.768 0 8.078 0 9.875 0 1.797.829 3.551 1.725 4.7.895 1.147 2.796 2.382 3.908 2.75 1.115.369 1.53.585 4.695.65 3.166.066 5.35.216 9.652.151 4.302-.064 5.961-.238 7.86-1.19 1.9-.954 3.342-3.141 3.735-4.353.393-1.214.284-6.52.218-10.092" fill="#FEFEFE"/></svg>
