<svg class="{{ include.css-class }}" width="145" height="50" viewBox="0 0 145 50" xmlns="http://www.w3.org/2000/svg"><title>Para beber</title><g><g><g><path fill="#fff" d="M121.5 33c2.5-8 5.1-16 7.6-23.8C92.4-3.1 53-3.1 16.3 9.2c2.5 8 5.1 16 7.6 23.8 31.6-10.5 65.9-10.5 97.6 0z"/><path fill="#fff" d="M101.9 37.7C113.5 39 134.5 44 145 50c-4.8-9.5-10.5-18.7-10.5-18.7s4.6-3.8 10-7.6c-4.7-1.8-9.6-3.4-14.4-4.8L124.7 36l-22.8 1.7zM14.9 18.9c-4.9 1.4-9.7 3-14.4 4.8 5.4 3.8 10 7.6 10 7.6S4.8 40.5 0 50c10.6-5.9 31.5-10.9 43.1-12.3L20.3 36l-5.4-17.1zM101.5 38c.2-.3-.3-.2-.1-.4-.2 0-.3-.1-.3 0-.1-.1-.1-.2-.2-.3 0 .2-.2.1-.3.1-.1-.3-.4 0-.6-.2 0 .2-.2.2-.4.1-.5.3-1.7 1.6-.6 2 .1-.1.2-.2.3-.2-.2-1.2 1.3-1.2 1.9-.6.4.9 0 1.7-.8 2.4-.3 0-.6.1-.7.3-.1-.1-.4-.1-.5-.1.1 0-.1.1-.1.1-.2-.1-.4-.2-.7-.3-.1.1 0 .2-.1.2 0-.1-.2 0-.2 0-.1-.5-.6-.3-.9-.3 0-.2-.2-.2-.3-.3-.1 0-.2.1-.3 0-.1-.1-.1-.3-.3-.3-.3 0-.2.3-.5.3-.1 0-.1 0-.1-.1 0-.2.2-.3.1-.5-.2-.1-.2.1-.4.1.1 0 .2-.2 0-.3-.6.1-1.1-.8-1.9-.8 0 .1-.1.3-.2.3 0-.1-.1 0-.1-.1s.3-.2.1-.4c0 .1 0 .2-.1.1.1-.3-.1-.3-.1-.5-.9-.3-1.4-.9-2.4-1 0-.1-.1-.1 0-.2-.6 0-.9-.6-1.6-.6 0-.2-.1-.2-.1-.4-.3-.1-.8-.1-.9-.5-.2 0-.2.1-.4.1 0-.2 0-.3.1-.3-.7-.1-1.5-.4-2.1-.8-.2 0-.2.1-.4.1-.6-.3-1.7-.6-2.3-.4 0-.2.2 0 .2-.2-.2 0-.2-.1-.4 0-.5-.6-1.8-.3-2.6-.3 0 .1-.1.2-.1.2.2 0 .3.3.1.4-.1-.1-.3-.3-.1-.4-.7-.1-1.4.2-2.2.4v.3c-.3-.1-.3.1-.3.2-.1-.1-.1-.2-.2-.2-.2.1 0 .3-.2.5-.2-.1-.2.1-.4.1 0-.1.1-.1 0-.2-.6.4-1 1-1.5 1.4-.4-.4-.9-.7-1.3-1.1 0 .2-.2 0-.2.1 0-.1-.1-.1-.1-.2.1 0 .1-.1.1-.2-.5-.4-1.1-.2-1.5-.7-.6-.2-1.2-.3-1.9-.5 0 .1-.1.4-.2.3.1-.1.2-.2.2-.3-.1 0-.1-.1-.1-.2-.6.1-2-.3-2.5.2-.1 0-.2 0-.1-.2-.5 0-.7.2-1.1.2-.1.1.1.2 0 .3 0-.2-.1-.2-.1-.2-4.2 1-7.3 3.4-10.4 5.1 0 .3-.5.2-.6.5 0-.1-.1-.1-.2-.1-.1.2-.2.3-.3.4-.1 0-.1-.1-.2-.2-.1.4-.4.3-.9.3-.5.6-1.5.6-2.1.7l-.2.2c-.2-.1-.2-.1-.4-.1-.8.5-1.6-.6-2.2-.8-.1-.7-.2-1.6.6-2 0-.2-.2-.2-.1-.4.1.1.1 0 .3 0 .1.1 0 .1 0 .3 1-.2 1.5.3 1.6 1.2.2-.1.3 0 .6 0 .2-.3 0-.8 0-1.1-.1-.1-.1 0-.3 0-.1-.2-.2-.3-.1-.5-1.3-.6-2.6-.4-3.2.8 0 .4-.4.8-.1 1.1-.1 0-.2 0-.2.1.3.8.7 1.8 1.4 1.7 1.9 1.6 5.4-.5 7.2-1.1.1-.4.7-.4.9-.4.1-.3-.2-.2-.2-.4h.5c.1-.2-.2-.3.1-.4.1 0 .1.2.2.1.1 0 0-.3.1-.3.3.4.6-.1.9-.1.1-.2.1-.4.3-.5.5.1.5-.4 1-.3.7-.6 1.6-1 2.6-1.3 1.2-.5 2.9-1.3 3.9-1.3-.1.1.1.2 0 .2s-.1-.1-.2-.2c-.1.1-.2.2-.2.4-.1.1-.1-.1-.2-.1-.2.4-.6.6-.6 1.1-.4 0-.2.6-.5.7.1.4 0 .8 0 1.1.1-.1.2.2.4.2 0 .1-.1.1-.2.1 0 .5 0 .8.3.9-.1.8.5 1.3 1.2 1.5-.1.5.9.3 1.1.7.7-.1 1.1-.1 1.6-.1.2-.3.6-.4 1-.5.3-.4.4-1 .9-1.2-.1-.2.1-.4-.1-.5.3-.1.3-.8 0-1 .2-1.7-2-2.4-3.2-1.7-.2.3-.4.7-.8.8-1.2 1.5 2.2 3.9 2.3 1.6-.1.1-.2-.1-.5 0-.1.4-.9.1-1 0 .1-.3-.2-.6-.2-.9.5 0 .5-.5.8-.7 1.1-.4 1.6.4 2.2 1-.1 0-.1.1-.1.2.1.2.2-.2.2 0-.3 1.6-1.5 2.9-3.3 2.4 0-.3-.4-.2-.5-.5H67c.1-.1.1-.2 0-.3-.2-.1-.3-.1-.4-.1 0-.1.1-.1.1-.2-.2-.2-.3-.6-.4-.9-.1-.1-.3 0-.3-.2.1-.1.1.1.2.1.1-.6.1-1.2 0-1.7.1 0 0 .2.1.1.1-.5.6-.8.7-1.2 0-.1-.1.1-.1 0 0-.2.1-.2.2-.3.1 0 .2.1.2.2.6-.4 1.4-.7 1.9-.9.2.5.8.1 1.1.4.1-.1.2-.2.3-.1v-.3c.1 0 .1.1.1 0-.2.4.6.7.9.5.1.2.6.4.9.3v.3c.3.1.5 0 .8.1 0 .7 1 .7 1.2 1.2.1.3 0 .3 0 .5-.3.1-.2.5-.4.7 0 .2.2-.1.1.2-.1.1 0-.1-.2 0 0 .1-.1.1-.2.2 0 .2.1.2.1.4 0 0-.3-.1-.3 0 0 .5.1 1 0 1.4.2.3.5.4.6.7.3-.1.5 0 .7.2 1.2-.2 1.9-1.2 1.4-2.5H76c.4-.5-.3-1-.6-1.3.2-.2.2-.5.5-.6 0-.2-.2-.2 0-.3 0 .1.1.2.2.2.3-.5.9-.7 1.2-1.2.1.1.2 0 .3 0 .3-.5 1-.3 1.4-.7.3 0 1 0 1.1-.3.2 0 .1.2.3.2.8-.4 1.6.2 2.4.3 0 .1-.1 0-.1.1 1 .6 1.4 2.1 1.5 3.4-.1 0-.1.1-.1.1.1 0 .1.1.1.2-.2.3-.5.4-.6.8 0 .1.2.2.2.4-.3-.1-.3.1-.5 0 0 .6-1.1.4-1.1.9-.3-.1-1-.2-1.4-.3-.1-.2-.3-.4-.7-.3-.2-.6-.4-1.1-.6-1.7.2-.2.4-.4.3-.7.1-.1.2 0 .3-.1.3-1.1 2.3-.6 2.2.6-.2.1-.3.3-.1.5-.3.1-.4.1-.7.3-.2-.1-.5-.2-.7-.2-.1.1-.3.2-.3.3 0 .2.1.2.1.5.2.2.8 0 1 .2.6-.2 1.1-.5 1.3-1 0 .1 0 .1.1.1v-.1c-.1-.1-.2-.6.1-.8-.3-.3-.3-.8-.5-1.1-.5-.4-1.3-.9-2.1-.5-.1-.1-.2-.2-.4-.1-.7.6-1.2 1.2-1.4 2.2.1.3.1.7 0 .9.7 1 1.6 2 3.2 1.9 0-.2 0-.2.1-.3 0 .3.4.2.5.3.1-.1.2-.3.5-.2.3-.3.5-.6.9-.6 1.5-1.6.8-4.4 0-6 .2.5.9.6 1.2.6-.1 0-.1-.3 0-.2.2.1.2 0 .4 0 .1.2-.1.2-.1.3.3.3.9 0 1.1.5 1-.1 1.4 1 2.5 1-.1.4.3.2.3.5 1 .1 1.6.7 2.5 1.1 0-.1.1-.1.2-.1.4.5 1 .7 1.7 1-.1.1 0 .1 0 .2.5-.1.5.4.9.2.2.4 1 .8 1.2.4.2.1.3.6.8.6.1-.2-.2-.1-.1-.3.2 0 .3.1.4.2l-.1.1c.1.1.3.3.5.1.1.1.2.3.3.4.2 0 .1-.2.3-.2.1 0 .1.2.2.2.5-.1 1.1 0 1.5.1.5-.2 1-.3 1.6-.5.2-.4.4-.7.8-.9.2-.6.1-1.2.3-1.7-.5-.2-.2-1.2-.8-1.1zm-25.6 1.2c0 .2-.2.3-.2.4.1.2.2.3.2.5-.4.3-.9.4-1.2.4 0-.3-.3-.6-.1-1 0-.1-.1-.2-.1 0 0-.2.3-.5.5-.6 0-.1-.2-.1-.1-.3.1 0 .1.1.1.2.1-.1.1-.2.3-.1.2.1.3.5.6.5z"/></g><g><path d="M3.4 22.8h.4l.6-.1.4-.1.6-.1.4-.1.9-.1.5-.1 1.1-.2.3-.1.3-.1.6-.2.3-.1.3-.1.3-.1.3-.1.2-.2.2-.2.2-.2.2-.2.2-.2.2-.3.1-.3.1-.3V18l-.1-.3-.3-.6-.4-.6-.1-.1-.3-.2-.3-.2-.1-.1v-.2l.1-.1.2-.2.1-.2.1-.2.1-.5V13.6L11 13l-.2-.5-.4-.4-.4-.4-.5-.3-.5-.2-.5-.1H6.7l-.7.3-.6.1h-.2l-.5.1-.3.1h-.5l-.3.1h-1l-.3.1-.4.1-.6.1H.9l-.3.1H.5l-.1.1v.5l.1.4.1.3v.7l.1.3v.2h.5l.4-.1h.3v1.3l.1.3.1.4.1.3v.3l.1.4v.3l.1.3v.2l.1.6.1.3.1.4.1.3v.2l-.3.1h-.4l-.3.1h-.1l-.1.1v.5l.1.4.1.3v.7l.1.3v.1h.8l.2-.1h.5v.1zm6.2-8.4zm-6.2 3.8l-.1.1-.1-.1V18h.1V17.7h.2v.1l.1.1.1.1h-.2l-.1.2zm.2-1.6l.1-.1-.1-.1.1-.1.1.3h-.2zm.1.3l-.1.1.1-.1zm-.1.4l.2.1-.2-.1-.1-.1H3.2v-.1h.2l.2.2zm.1 1.1l-.1-.1.1.1zm-.1-.6l-.1.1.1-.1zm-.3-.9l-.1-.1.1.1zm0 .6l.2-.1h.1v.1l-.1.1-.2-.1zm.7 2.1zm.1-.5l-.1.2v.1-.1l.1-.2zm.1 1v-.2.2zm-.1-1.3l-.4.1h-.1v-.1l.1-.1h.2l.2.1.1-.1.1.1h-.2zm.2-1l.1-.1-.1.1.1.1-.1-.1zm.3.9l-.1-.1v-.1h.2l-.1.2zm.3.7zm.1-2.8l-.1-.1v-.1H5v.2h.2H5zm4.2-2.2zm-.1-2h.2v.1l-.2-.1zm0 .7zm-.2.5h.2-.2zm-.3 2.3zm-.1-2.8l.1.2h-.1v-.2zm.1 4.5l.3.3.2.5v.4l-.2.4-.3.3-.5.2-2.3.4h-.2l-.1-.1-.3-1.7V18l.1-.1h.1l2.3-.4h.5l.4.1zm-3.1-1zm.5-.2h-.2.2zm.1.5l-.1.2h-.1V16.8l.2.1zm1.1 0l.1-.2v-.1h.1-.1v.1l-.1.2zm.5-.6v-.2h.1l.1.1v.1h-.2zm.2-4.2l.2-.1h.1l-.1.1h-.2zm-.4.2H7.8h-.1v.1l-.2-.1zm-.8.1l.1.1-.1-.1zm-2 1.8l.1-.2h.4l.5-.1.7-.1.2-.1h.2l.3-.1h.4l.3.2.2.3.1.3v.4l-.2.3-.3.2-.3.1H7l-.4.1-.3.1h-.4l-.4.1-.3.1H5l-.1-.2v-1.1l-.2-.3zm-.2 2.6l.1.1.1.2h-.2v.1h-.1l-.1.1h-.1v.2h.1v.1l-.1.1h-.1l-.1-.1v-.2h-.1v.1h-.1l-.1-.1v-.1l.1-.1.1.1h.2l.2.1h.2V16.8zm-.7-.2l.1-.2.1.1v.2l-.2.1v-.2zm.3.1l-.1-.1.1.1zm.1 0h.2v.2l-.2.1h-.1v-.1l.1-.2zm.1-.6h.2v.1l-.2-.1zm-.3.2l.2.3-.1-.1-.1-.2zm-.1-.4l.1.1-.1.1h-.1l.1-.2zm-.4-.1l.2.1.1.2-.2-.1H3.3v-.1l.2-.1zm-.2-.6l-.1.2.1-.2zm-.1 1V16v.2l.1.2v.2l-.1-.2v-.2zm-.2 1l-.1-.2v-.2l.1.1.1.1h-.2l.1.2zm.1-.5l-.1-.1.1.1zm-.1-.8zm-.1.3l.1.1-.1-.1zm0 1h.4V17.5h-.1l-.2-.1-.1-.2z" transform="translate(42 2)"/><path d="M12.8 18.6l-.1-.4-.2-.4v-.2l-.1-.2-.2-.2.1.2.1.3v2.2l-.2.3-.1.3-.2.2-.2.3-.2.2-.3.2-.3.2-.3.2-.3.1-.3.1-.3.1-.3.1-.3.1-.3.1h-.3l-1.1.2h-.3l-.4.1h-.3l-2.5.5h-.4l-.3.1h-.3l-.3.1.1.2v.1l.1.1h.5l.2-.1h.2l.3-.1h.4l.4-.1 2.5-.3.3-.1H8l.3-.2H9l.2-.1.3-.1.3-.1.3-.1.3-.1.3-.1.3-.1.3-.1.3-.3.2-.2.3-.2.2-.3.1-.2.1-.3.1-.3.1-.4.1-.3V19zM11.5 14.5v.3l-.1.3-.1.3-.2.3-.1.1.1.1h.1l.2.2v.1l.1-.1.2-.3.1-.3.1-.2v-.4l.1-.3v-.2l-.1-.4v-.4l-.1-.3-.1-.2-.1-.2-.2-.2-.1-.1.1.2.1.4v.3l.1.3v.4zM5.9 19.7h.4l-.1-.8v-.1l.1-.1.1-.1 2.2-.4v-.1l-.2-.1-.2-.2-.4.1-2.2.3zM5.1 14.9v.2l.1.3.4-.1v-.5h.1v-.1l.1-.1h.8l.7-.1.2-.1.2-.1h.1l-.1-.1-.1-.1-.2-.1h-.8l-.2.1-.7.1h-.2l-.3.1H5l.1.3zM24.3 20.3l-.1-.3v-.3l-.1-.4v-.7l.1-.5-.1-.3v-.1l-.1-.1-.1-.1H23.6v.8l.1.6v.6l.1.2v.9h-.1v.1l-.1.1h-.1l-.1.1h-.1l-.3.1h-.6l-3 .2h-.8l-.3.1-.5.1h-1.1l-.9.1h-.6l-.3.1h-.3V21.9h.2l.7.1h.2l.4-.1h.8l.9-.1h.9l.5-.1.3-.1h.8l2.6-.2H23.8l.3-.1h.1l.1-.1v-.7zM18.6 17.4h.2l.2-.1h1.5v-.2l.1-.2.1-.2h.1l.2-.1h.2v-.1l-.1-.2v-1L21 15l-.1-.1H20.6v1.5l-.1.2-.1.1-.1.1h-.2l-.3.1h-1l-.4.1H18l.1.3v.4l.1.2h.1l.3-.1-.1-.2.1-.1zM23 13.1v.2l-.1.1v.1l-.2.1h-.1l-.4.1h-1l.1.3v.1l.1.1h.8l.9-.1h.3V14h.1V13.7l.1-.3V13l-.1-.4v-.7l-.1-.8-.1-.6-.1-.1v-.1H22.9l.1 1v1.6z" transform="translate(42 2)"/><path d="M15.5 21.2h.5l.7-.1h1.1l.5-.1h1.1l2.6-.2h.7l.3-.1h.1l.1-.1v-.5l-.1-.4-.1-.3v-.3l.3-.6v-.6l.1-.4-.1-.3V17l-.1-.1-.1-.1H22.5l-.5.1H20.8V18H19.9l-1.1.1-.5.1h-.5v-1.4l.1-.1.1-.1h.2l.5-.1H19.9l.3-.1h.1l.1-.1V14.5l-.1-.3v-.1h-2.5v-.2l-.1-.3V12.4l.1-.1h1.4l.4-.1.5-.1h.4v.7l.1.2v.1h1.9l.3-.1h.1l.1-.1v-.7l-.1-.8V11l-.4-.7-.1-.6v-.2H22l-.5.1-.3.1h-.6l-.6.1h-2.9l-.9.1H16l-.6.1h-.3l-.8.1H14l-.5-.1-.3.1h-.1v1.6l.1.4.1.3v.1h.4l.3-.1h.4v.2l.1.3v1.7l.1 1.1.1.7.1.4.1.7V18.4h-.4l-.3-.1H13.9v2l.1.3v.1l.1.1h1l.4.4zm6.9-1.7h.2-.2zm-.2-.1v.3V19.4zm-.1-.3zm-.3.9h-.2.2v-.2.2zm-1.1 0l.2-.1h.1l.1-.1v-.6H21l-.1.1h-.1l.1.2v-.2l.1-.1h.2l.1-.1.1-.1h-.2l-.1.1H21V19l.1-.1H21v-.1h.1v-.1h.6v-.1h.1v.5h.2v.2l-.2.2h-.2v-.1l.1-.1v-.1h-.1v-.1h-.1l-.1.1v.1l.1.1h.2l.1.1V19.8l-.1.1v.2h.1v.1h.2v.1l-.2-.1h-.1v-.1h-.2l-.2.1H21l-.3-.2zm-1.6-.2zm0-.4zm.5.7zm.5.1zm-.1-.4zm.2 0zm.2.5l.1-.2-.1.2zm.2-1.1l-.1.2h-.1.2v-.2zm-.5-.5l.1.2h.1v.4l-.1.1H20v.1l-.1.1h-.1l.1-.1v-.1l.1-.1v-.1h-.4l.5-.5zm-.2.6h.2-.2zm0 .3zm-.2-1.2zm-.1.6h.2v.1l-.2-.1zm-.1.6l.2-.1h.1l-.1.1h-.2l.1.2h-.1v-.2zm-.4-.8h.2l.1.1v.1h-.1l-.2-.2zm-.4 1.3H19l-.1.1-.2-.1zm-.3-.5zm-1.6 0v-.2.2zm.6-8.4zm-.3.6l.1-.2h.1l-.2.2zm-.1 4.5v.2h-.1l.1-.2zm-.1-1.4v.2-.2zm-.2.8h.2v.1l-.2-.1-.1.2.1-.2zm-.2 2.9v.2h-.1l.1-.2zm-.1-2.4zm0-1.5zm-.1-2.7l.1.2h-.2l.1-.2zm-.1-.8zm0 6.9L16 18l-.1-.1.1.1.2.1zm-.2-1.5v.2-.2l-.2.1v-.1h.2zm-.3-4.3zm-.4-.3l.1-.2-.1.2zm-.1.5h.2-.2zm-.1 1zm-.2-.3h.2-.2z" transform="translate(42 2)"/><path d="M18.3 13.3h.1l.1-.1H19.8l.2-.1v-.5H19.7l-.3.1-.5.1h-1.1v1h.5v-.4zM30.1 12.9v-.2l.1-.1h2.1v-.1l-.1-.2-.2-.1-.3-.1h-.5l-.3.1H29.8l-.2-.1V13l-.1.2h.5zM36 13v.3l-.2.3-.1.4-.1.2-.2.3-.2.1.2.1v.1l.2.2h.1l.2-.3.2-.2.1-.3.1-.4.1-.3v-1.2l-.1-.2-.1-.3-.1-.2-.1-.1v.2l.1.4v.6zM36.6 16.8l-.1-.2-.1-.3-.2-.2.1.3.1.3v.8l-.1.3v.3l-.1.3-.2.4-.2.3-.2.3-.2.2-.2.2-.3.2-.2.2-.3.2-.4.1-.3.1h-.3l-.3.1h-.3l-.3.1h-6.6v.4h.2l.1.1h.5l.2-.1h3.9l.5.1h1.2l.3-.1h.3l.3-.1h.3l.3-.1.3-.1.3-.1.4-.2.2-.1.3-.2.2-.2.2-.3.2-.2.2-.3.2-.4.1-.2v-.4l.1-.4v-.7z" transform="translate(42 2)"/><path d="M26.1 20.4h6.1l.6-.1.3-.1.3-.1.3-.1.3-.1.3-.1.3-.2.2-.2.2-.2.2-.2.2-.2.1-.3.1-.3.1-.3.1-.3v-1.4l-.3-.6-.2-.3-.2-.3-.3-.2v-.2l.1-.1.2-.2.2-.2.1-.2.2-.5.1-.5V12l-.1-.5-.3-.5-.4-.4-.4-.3-.5-.3-.5-.2-.3-.1-.6-.1H27.2l-.4.1h-.6l-.4-.1h-.5v.5l.1.4V12h1.2V17.6h-.3l-.4-.1h-.5v2.3h.7v.6zm8.1-7.4zm-.3-2.1zm-.2.8zm-.2.4zm-.6 5.2l-.2.3-.4.3-.5.1h-2.4l-.1-.1v-2.1h2.5l.5.1.4.2.3.3.1.5-.2.4zm-3.3-2zm.1-.7zm.6-.1H30 30.3zm0 .4v.2l-.1.1h-.1V15l.2-.1zm1.1.2l.1-.2v-.1h.1-.1l-.1.1v.2zm.4-.5l.2-.1.1.1v.1l-.3-.1zm1-.3zm.3-2.7l.1.2-.1-.2zm-.4-1.1l.2-.1h.1-.1l-.2.1zm-.4.2h.2l.1.1h-.1v.1h-.1l-.1-.2zm-.8-.1zM29.2 13v-1.1l.1-.1.1-.1h2.3l.4.1.3.2.2.3.1.3-.1.4-.2.3-.3.2h-2.6l-.1-.1v-.1l-.2-.3zm-.1 1.4l.2.2h-.2v-.2zm-1.7 2.4zm0-.9h-.2v-.2h.1V15.4h.1v.1l.1.1.1.1h-.2v.2zm.1-1.1h.2v.2h.1l.1.1-.1-.1-.1-.1v-.1h-.2zm0-.3zm.3-.4l.1.2h-.2l.1-.2zm0 .5zm-.1.9zm-.3-.3l.2-.1v.1h-.2zm.3.9zm.1 1.1zm.1.6v-.2.2zm0-1.1l-.1.2.1-.2zm.2-.2l-.4-.1h-.1v-.1l.1-.1h.5l.1.1-.2.2zm.2-1l.1.2-.1-.2zm.2.9l-.2.1v-.2l.2.1zm.3.7zm0-2.2h-.2v.1H28.3v.1h.1v.1h-.1l-.1-.1-.1-.1v-.2H28l-.1.1-.1-.1v.1l.1-.1.1-.1.1.2h.2l.1.1h.2l.2-.1-.1-.2.1-.1v.3zm-.7-.7h.2v.2h-.2v-.2zm.2.3l-.1-.2.1.2zm.2 0l.1.3-.2.1-.1-.1V14.5h.2zm0-.5h.2-.2zm-.1-.5zm0 .7l.1.2-.1-.2zm-.2-.6l.1.2h-.1v-.2zm-.2 0l.1.2-.1-.2-.2.1h-.1v-.1l.1-.1.2.1zm-.3-.7zm-.2.9l.1-.2-.1.2.1.2v.2l-.1-.2v-.2zm-.2-.4zm0 .9zm-.1-.6zm-.1.9l.2.1-.2-.1v.2-.2zm-.1.2H27.3l.1.1v.1l-.1.1v.1h-.1l-.1-.1-.1-.3z" transform="translate(42 2)"/><path d="M32.4 16.4l-.2-.2h-2.6v1.4h.5V16.8l.1-.1.1-.1h2.3zM48 18.4v-.1l-.1-.1h-.1l-.2-.1v.1l-.1.2-.1.4V20.9l-.1.2v.1l-.1.1-.1.1h-.2l-.1.1h-.7l-.2-.1-3-.2h-.2l-.6-.1h-.8l-.9-.1h-.3l-.9-.1H38l.1.2v.1l.1.1.7.1H39.8l.5.1.9.1h1.7l.6.1h.2l2.7.2.3.1h.9l.1-.1.1-.1V19.9l.1-.3v-.3l.1-.4v-.3zM44.3 12.7l-.2.1h-.5l-.4-.1h-.3l-.5-.1v1h.2l.2.1.1-.3v-.2H44l.4.1h.2V13l.1-.2-.1-.1zM45.3 19.2zM48.2 11l-.1-.1h-.2l-.1 1v.6l-.1.5-.1.5V13.8l-.1.2v.1l-.1.1H46.7l-.6-.1h-.4v.2l.1.1v.1h.1l.3.1h.4l.9.1h.4l.1-.1v-.2l.1-.2.1-.6v-1l.1-.9-.1-.6z" transform="translate(42 2)"/><path d="M39 20.6h1.2l.8.1H42.4l.5.1 2.6.2H46.7v-.2l.1-.3v-1.7l.1-.3.1-.4v-.5l-.1-.1H44.6v.2l.2.1V18.4H43.9l-1.1-.2h-1V16.8l.1-.1.1-.1h1.2l.3.1.4.1h.4l.1-.1V15.3l.1-.4v-.4h-.2l-.4-.1h-1.4l-.3-.1H42v-1.6l.1-.1h.5l.9.1h1l.4.1v.4l-.1.3V13.8h.1l.4.1h1l.4.1h.4l.1-.1v-.2l.1-.5.1-.8V12l.1-.8V10.4h-.1l-.3-.1h-2l-.6-.1h-.2l-.7-.1h-.2l-.6-.2H40.2l-.8-.1-.3-.1-.5-.1h-.4V9.9l-.1.3-.1.4V12H39l.1.1v.5l-.1.4-.1.7-.1.4v3.4l-.1.3v.2h-.4l-.3-.1H37.7v.1l-.1.1v.1l-.1.3v.4l-.2.5-.1.4v.4l.1.1h.2l.3.1h.5l.7.2zm4.2-.5zm.5.2l-.2.1v-.2l.2.1zm0-.4zm.3.5l.1-.2-.1.2zm-.2-.4zm1.7.3h-.2.2v-.2.2zm-.3-.8zm.7.3l-.1.3V20l.1-.2-.1-.2.1.2zm.2.1l.2.1-.2-.1zm-.3-.4zm-.2.6zm-1.2.1H44.7l.1-.1v-.6h-.1l.1.3h-.1l-.1-.1v-.2l.1-.1h.2l.1-.1.1-.1h-.2l-.1.1h-.1v-.1l.1-.1h-.1V19h.1v-.1h.2l.1.1H45.4v-.1h.1v.5h.2v.2h-.1l-.1-.1h-.1v-.1l.1-.1v-.1h-.1v-.1h-.1l-.1.1v.2h.2V19.7h-.1v.2h.1v.1h.1l.1.1v.1l-.2-.1h-.1V20h-.4l-.2-.1h-.1v-.1l-.2.4zm0-.8l-.2.1.2-.1zm-.5-.6l.1.2h.1v.4l-.1.1h-.2v.1l.2-.1-.1-.1.1-.1v-.1l.1-.1V19l-.2-.2zm-.3.6h.2-.2zm.1.2l-.2.1.2-.1zm-.2-1zm-.1.4h.2v.1l-.2-.1zm-.2.6l.2-.1h.1l-.1.1h-.2l.1.2h-.1v-.2zm-.3-.9l.1.2-.1-.2zm-.1.6zm0 .4zm-.5.3H42.6l-.1.1-.2-.1zm-.2-.5zm.2-8.6zm-.4.6l.1-.2h.1l-.2.2zm-1.7 4.9l-.2-.1-.1-.1v-.1h.2v.1l.1.2zm1.1-.2l-.1-.2v-.1h.1V16.2zm0-1.6v.2-.2zm-.2-3.8zm0 1zm-.1 3.6h.2l.1.1v.1h-.2l-.1.1v-.3zm-.2-1.2v.2-.2zm-.1 1.6zm-.2-3.9zm-.1 6.1l.2.1v.1h-.2V18zm-.3-6.5l.1-.2-.1.2zm-.1.5l.2.1-.1.1H40V12zm-.1 5.5l.2.1v.1-.1l-.2-.1zm-.1-4.5zm-.3-.4z" transform="translate(42 2)"/><path d="M45.4 15.6v-.3l-.1-.1-.1-.1H44.9v1l-.1.3v.2l-.2.2h-.1l-.1.1-.2.1h-.4l-.2-.1h-.2l-.2-.1h-.3l-.4.1-.3-.1-.1.1V17.7h.4v-.2l.1-.1.1-.1h.8l.2.1h.6l.2.1.1-.2v-.2l.2-.2h.5V16.3zM56.7 14.7h.1l-.1-.2-.1-.1-.1-.1-.1-.1h-.2l-.3-.1h-.7l-.3-.1-.2-.2H54.4v.3l-.1.2v.2l-.1.3v.5l-.1.2v.3h.4v-.1l.1-.3v-.2l.1-.2v-.4l.1-.1v-.1h.1l.4.1h.4l.3.1h.3l.2.1zM54.9 20.9v-.1h-.1l-.2-.1-.1.3-.1.4v.5l-.1.1V22.3h-.1l-.1.1H54l-.3-.1h-.5l-.5-.1-.6-.1-.5-.1-1-.1-1.1-.2h-.3v.2l-.1.1.1.1.5.2h.5l1.1.2 1 .1.6.1.5.1.5.1h.7l.1-.1.1-.5v-.4l.2-.4V21zM60.6 21.5l-.2-.1h-.2l-.1.4v.5l-.1.4-.1.2v.4l-.1.1H59.5l-.6-.1-.5-.1-.5-.1-.5-.2-1-.1H56v.4l.1.1.5.1.5.1.5.1h.5l.5.1.6.1.5.1.5.1.1-.1v-.2l.1-.5.1-.5.1-.5v-.6z" transform="translate(42 2)"/><path d="M56.9 22.5l.5.1.5.1.5.1.5.1.5.1.1-.1v-.2l.1-.5.2-1v-.7h-.1l-.5-.1-.5-.1h-.1l-.1-.1-.4-.6-.3-.7v-.2l.1-.1.1-.1.6-.2.5-.3.5-.5.3-.5.3-.6.1-.6.1-.5v-.5l-.1-.5-.2-.5-.2-.5-.3-.4-.4-.3-.4-.3-.4-.2-.5-.2-.5-.2-1.5-.3-1-.1-.5-.1-.5-.1-.5-.1-.5-.1-1-.2-1-.2h-.1l-.1.1-.1.1v.1l-.1.5-.1.9-.1.5v.2l.1.1.3.1h.8v.9l-.1.6-.1.5-.6.4-.1 1.1-.1.5-.1.5v.6l-.1.5v.2H49.7l-.4-.1h-.1l-.1.1-.1.5-.3.5-.1.5-.1.5-.1.1v.1l.5.1.5.1 1.1.2 1.1.1.5.1.5.1.5.1H53.9v-.1l.1-.4.1-.4.1-.4v-.7h-.1l-.4-.2h-.5l-.1-.1v-.1l.1-.8.1-.2H53.6l.1.1h.3l.2.1.2.1.1.1.5.9.2.5.2.5v.2l-.1.6-.1.6v.2l.1.1.5.2.5.1.6-.3zm1.8-.6zm-.5.3zm-6.7-2.8l-.2-.2v-.1l.1.1.1.2zm.2.5l-.1-.2.1-.1v.3zm0-2.1l-.1-.2.1-.1h.1l-.1.3zm.4-.3zm.3-5.5l.2-.1-.2.1zm.2 4zm0 1.8zm.1-.6h-.2.2zm.2-.8zm.1-4.8l-.2.1.2-.1zm3.9 10.3h-.4v-.1h.2l.2.1zm.1-2l-.2-.1H56.5h.1l.4.1zm.5 1.6zm.2.5l-.1-.2.1.2zm.6-6h.2-.2zm.3-1.3H58.3v-.1h.1l.2.1zm0 .3zm-.3.1l.2.1-.2-.1zm.2.3zm0 1.5zm.1-1l-.2-.2-.1-.1.1.1h.1l.1.2zm.1-1.2v-.2h.1l-.1.2zm-.2-.9l-.2-.1v-.1l.2.2zm.1.4zm.3 1.9zm.4-1zm.1-1.3l.2.4v.1H59.3v.1h.1v.1h-.1l-.1-.1-.1-.1v-.2h-.2V14l.1.1h.2l.1.1h.2V14l-.1-.2.1-.2-.1.2zm-.3 0l.2.2-.1.1-.1.1H59l.1-.4zm-.4-.3l.2.1v.1l-.2-.2zm0 .2l.1.2-.1.1-.1-.1.1-.2zm-.1-.7zm-.2.2l.1.2h-.1v-.2zm-.4.2l.3-.1.2.1H58zm.1.3l.1.2v.1h-.1v-.3zm-.1.5zm0 .1h.2v.1l-.2-.1.2.1-.2-.1-.2.1v-.1h.2zm-.1-.2zm-.2-.4zm-.1-.7l.1.2-.1-.2zm0 3.4h-.2.2zm-.3 4.4zm-1.9-8.2zm-.8 0l-.2.1v-.1h.2zm-.3-.4zm-.4-.3l.2-.1v.2l-.2-.1zm.2.9h-.2.2zm1.7 6.2zm-.2-2.7h-.7l-.3-.1H53.8l-.1-.1v-.7l.1-.5.1-.3V13.7h.2l.3.1.2.1.2.1.3.1h1l.3.1.2.1.2.2.1.2.1.2.1.2v.5l-.1.2-.1.2-.1.2-.1.2-.2.1-.2.1h-.2l-.5-.3zm.6 3.3h.2v.1l-.2-.1z" transform="translate(42 2)"/><path d="M54.3 19l-.1-.1H54l-.3-.1-.1.5.2.1h.2v-.2h.1l.3.1zM60.9 15.2v-.1l-.2-.5v.6l-.1.6-.2.7-.2.6-.4.6-.6.5-.5.4-.6.2.3.5.5-.2.6-.3.5-.6.4-.7.3-.5.1-.8.1-.5zM15.1 1.9l.1.3v.1h.7v.8l.1.6v.6l.1.6V5.8h-.6l-.1.1V6.2l.1.3V7.2h.5l.3-.1.6-.1h.6l.3-.1H18.8V5.6h-.7V5h.1l.5-.1H19.6l.3-.1.3-.1.6-.3.3-.2.2-.2.2-.3.1-.3.1-.3V2.2l-.1-.3-.1-.3-.2-.3-.3-.1-.3-.2-.3-.1-.3-.1-.3-.1-.3-.1h-.6l-.6.1H15.6l-.3.1v.1l-.2 1zm1.6 2.6l.1-.2h.1v.1l-.2.1zm.2.2zm.1-.1zm0 .5zm.2.1L17 5l.2.2zm.2-1.2zm-.1.1h-.2.2zm-.1.5v.2-.2zm.1 1zm.1-.7l-.1-.2.1.2zm.2-.5h-.2.2zm.5-.6zm.2.6zm.7-.1l-.2.1.2-.1zm.3-.2zm.9-1.6zm.5-.5zm-.3.7zm-.3-1.4zm-.4.1zm-1.9 1l.2-.1H19.3l.1.1.1.1.1.1h.2V3l-.1.1-.1.1-.1.1-.1.1-.1.1H17.9v-.4l-.1-.7zm-.2 1.5zm0 .2zm-.2-.6v.2-.2l-.2.1.2-.1zM17 2.3zm0 .7v-.2.2zm-.1.2l.2.1h.1-.1l-.2-.1-.2.1.2-.1zm-.2.6zm-.1-.6zm-.1 1l.2-.1H17V4.4h.1v-.1.1l-.1-.1h-.1l-.1-.2h-.1V4.4l-.2-.2z" transform="translate(42 2)"/><path d="M18.1 3.3H18.4l-.1-.5v-.1h.2l.3-.1h.7v-.1h-.1l-.1-.1H18l.1.7zM21.8 2.2v1l-.1.4-.1.3-.2.3-.3.3-.3.1-.3.3-.3.1-.3.1-.3.1-.3.1h-1v.3h.2l.2-.1h.8l.3-.1h.3l.4-.2.2-.1.3-.1.3-.3.3-.3.2-.3.1-.3.1-.4.1-.3-.1-.4v-.3l-.1-.4-.2-.2-.1-.2.1.2zM19.2 7.2v.1h-.1l-.1.1h-.7l-.3.1h-.3l-.7.1h-.6l-.3.1v.1l.1.1h.7l.7-.1h.6l.3-.1h.3l.3-.1h.4l.1-.1v-.1l-.1-.5v-.6h-.1v-.1h-.2v.3l.1.2V7zM29.5 6.8h-.3l-.7.1-.4-.1-.3.1h-.6V7h.1v.1l.1.1.4-.1.3.1.4-.1H30.1V7h.1V5.8l-.1-.1-.1-.1h-.1v1.1h-.1v.1h-.2zM27.2 1l.1.3.2.3.3.6.2.3.3.7.1.3.2.3.1.3.1.3.2.2.1.3h.2l-.2-.6L29 4l-.2-.3-.1-.3-.2-.3-.1-.3-.2-.3-.3-.6-.2-.3-.1-.3-.3-.6h-.1V.6H27v.1z" transform="translate(42 2)"/><path d="M21.8 5.5l-.1.2V7l.1-.1H25l.1-.1V5.5h-.5v-.6h2.1v.5h-.4V6.6H29.3V5.3h-.6l-.1-.1.2-.4-.2-.3-.1-.3-.1-.3-.1-.3-.1-.3-.1-.3-.3-.3-.1-.3-.2-.3-.2-.3-.2-.3-.1-.3-.2-.3-.3-.6V0h-.7l-.6.1H23.3l-.1.1v1.3l.1.1h.5v.2l-.1.3-.1.3-.1.3-.1.3-.1.3-.1.3-.1.3-.1.3-.1.3-.1.3-.2.5v.1h-.1l-.7.1zm6.4.5zm-.1-.7zm-.3-.7zm-.1 1zm-.8-3.3zm-.4-.2zm-.1-.4zm-.3-.6H26.4 26.1zm-.3.1zM25.1 3l.1-.2.1-.2.1-.2.1-.2v-.1H25.8V2.4l.1.2.1.2.1.2V3.3l-.1.1H25.1l-.1-.1.1-.3zm-1.4.6l-.2.1v-.1h.2zm.2.1l-.2.1.2-.1zm-.3.2v-.2.2zm.3.4l-.1-.3v.1l.1.2zm0-.3zm.1.3v-.2.2zm.4-.4zm.1-.1l-.1-.2v-.1h.1V3.8zm.1-.5zm-.1-.7zm-.2.1l.2.1h.1-.1l-.2-.1zm-.1.8zm0 .2l-.1-.2.1.2zm-.7-.3l.2-.1h.4V3.6h.1v.1h-.1v-.2l-.1-.1v-.1l-.1-.1-.1.1-.3.1z" transform="translate(42 2)"/><path d="M26.6 5.2h.1v-.1l-.1-.1h-1.7l-.2.1-.1.1H24.9l.1.1H26.4l.1-.1zM25.6 2.8l.1-.1-.1-.4-.1.1v.3l-.2.2v.2h.2zM25.4 7.2l.1-.1V6l-.1-.1h-.1v-.1h-.1v1.1l-.1.1h-1l-.7.1h-.9v.2l.1.1h.1l.7-.1h1.9zM34.4 5.8h-.2v.5l-.1.2V6.8h-.2l-.1.1h-.6l-.4-.1h-1.7v.1L31 7l.1.1H33.3l.3.1h.4l.3-.1h.1V6.5l.1-.3v-.1l-.1-.2z" transform="translate(42 2)"/><path d="M30.9 6.6h2.8V5.3h-.5v-.7H33.9l.1.1.4.5.2.3.2.3v.9h.1l.3.1h2.1V5.3H36.4l-.3-.4-.3-.4V4.2l.4-.2.3-.2.2-.3.3-.3.1-.4V1.7l-.1-.3-.2-.2-.2-.3-.2-.2-.2-.2-.3-.2-.3-.1-.3-.1H30.9V1.5l.1.1h.7V5H30.9v1.6zm5.3-.4zm-.5.1H35.4v-.1l.3.1zm0-5l.1.2h-.1v-.2zm.2 4.4zm-.1-3.8zm.3 0zm-.2.2h.2-.2zm.3.5l-.2-.1-.1-.1.3.2zm.1-1.2l.1.2-.1-.2zm.1.3h.2V1.4h.1l.1.2v.1h-.4l-.2.1v-.1h.2zm-.3-.5zm0 .1v.2-.2zm0 .4zm-.1-.3zm-.3-.3h.2-.2zm-.3-.1zm-.1 4.1H35.6h-.3zm-2-3v-.6H34.8l.1.1.1.1.1.1.1.1.1.1v.6l-.1.1-.1.1-.1.1-.1.1-.1.1H33.3v-1zm0-1zm-.2-.5zm-.3 3.5zm-.1-.4zM32.4.6l.2-.1-.2.1zm-.2.1zm-.1 3.5zm0 .9z" transform="translate(42 2)"/><path d="M33.8 4.7H33.5v.4h.2v-.2l.3.1zM37.2 3.2l-.1.4-.3.3-.3.2-.3.2.1.2.3-.1.3-.2.3-.4.2-.4.1-.4V1.9l-.2-.2.1.3v.3l-.1.5zM33.5 2.9H33.8V2H35v-.1l-.1-.1h-.1l-.1-.1H34.4l-.2.1h-.4l-.1-.1h-.2V2.7zM37.8 7.2v-.7l.1-.3v-.1l-.1-.2v-.1h-.2v.5l-.1.3v.1h.1l-.1.1v.1l-.1.1-.1-.1-.3.1-.4-.1h-1.4v.2l.1.1h1.8l.4.1zM46.2 7.6h-.5l-.8-.1h-.3l-.4-.1h-.5v.2h.1v.1h.4l.3.1h1.1l.4.1h.6v-.2l.1-.2v-1h-.1v-.1h-.1V7l-.1.2v.2l-.1.1zM42.6 3.2v-.5l-.1.1-.1.2-.1.2-.1.2h.2zM44.3 1.6l.1.3.2.3.2.6.1.3.3.7.1.3.1.4v.4l.1.3.2.2.1.3h.2l-.2-.5-.1-.5-.1-.3-.1-.3-.1-.3-.1-.3-.1-.4-.3-.6-.1-.3-.1-.3-.2-.6-.1-.1-.1-.1h-.1v.2z" transform="translate(42 2)"/><path d="M38.3 6.7h.8l.7.2.7.1H41.4l.1-.1V5.8H41V5.5l.1-.1.1-.2.1-.1h.7l.7.1h.7v.4H43V6.2l-.1.4v.1h.3l.6.5H45l.4.1H46.2V6h-.6v-.1l-.1-.3-.1-.3-.1-.3-.1-.3-.1-.3L45 4l-.2-.5-.1-.3-.1-.3-.1-.3-.1-.3-.1-.3-.1-.3-.1-.3-.3-.7V.6h-.1l-.6-.1H42.2l-.6-.1-.3-.1h-.7l-.1.1v1.3l.1.1h.5V2l-.1.3-.1.3-.2.3-.4.2-.1.3-.1.3-.3.2-.1.3-.2.3-.2.3-.3.5v.1H38.2l-.1.1v1.3l.2-.1zm6.4-.1zm.1-.7zm-.3-.7zm-.2-.1zm-.4-2.4zm-.5-.6zm.2.5zm-.3-1.1H43.6 43.3zm-.4.1zm-.4-.2zM42 3.3l.1-.2.1-.2.1-.2.1-.2v-.1H42.7v.1l.1.2v.2l.1.2.1.2V3.6l-.1.1H42.1l-.1-.1V3.3zm-1.4.4l-.2.1v-.1h.2zm.1.2l-.2.1.2-.1zm-.2 0zm.1.5l-.1-.3v.1l.1.2zm0-.2zm.1.1zm.5-.2zm-.1-.4zm.2.3l-.1-.2v-.1h.1V4zm.2-.5zm-.1-.7zm-.1.1l.2.2h-.1l-.1-.2zm-.3.7l.1.2-.1-.2zm-.6-.1l.2-.1h.5V3.7h.1v.1h-.1v-.2h-.3v-.1l-.1-.1h-.1l-.2.1z" transform="translate(42 2)"/><path d="M41.9 6.1h-.1v.3l-.1.2v.5h-.1l-.1.1H40.6l-.8-.1-.7-.1h-.2V7.3H39.8l.7.1.5.1H41.9v-.1l.1-.1V6.2zM42.6 5.6l.4.1h.1l.1-.1h.2v-.1l-.1-.1h-.7l-.7-.1h-.5l-.1.1h.1l.1.1h.1v.1h.7z" transform="translate(42 2)"/></g></g></g></svg>
