<svg class="{{ include.css-class }}" width="145" height="50" viewBox="0 0 145 50" xmlns="http://www.w3.org/2000/svg"><title>Para comer</title><g><g><g><path fill="#fff" d="M129 9.2C92.3-3.1 52.9-3.1 16.2 9.2c2.5 8 5.1 16 7.6 23.8 31.7-10.5 65.9-10.5 97.6 0 2.6-7.9 5.2-15.9 7.6-23.8z"/><path fill="#fff" d="M134.5 31.2s4.6-3.8 10-7.6c-4.7-1.8-9.6-3.4-14.4-4.8l-5.4 17.1-22.8 1.7C113.5 39 134.5 44 145 49.9c-4.8-9.4-10.5-18.7-10.5-18.7zM14.9 18.9c-4.9 1.4-9.7 3-14.4 4.8 5.4 3.8 10 7.6 10 7.6S4.8 40.5 0 50c10.6-5.9 31.5-10.9 43.1-12.3L20.3 36l-5.4-17.1z"/></g><path fill="#fff" d="M99.3 41.2c.1 0 .4 0 .5.1.1-.2.4-.3.7-.3.7-.6 1.2-1.4.8-2.4-.6-.6-2.1-.6-1.9.6-.2 0-.2.2-.3.2-1.1-.4 0-1.7.6-2 .2.1.4.1.4-.1.1.2.5-.1.6.2.1-.1.3 0 .3-.1.1 0 .1.2.2.3.1-.1.2 0 .3 0-.1.2.3.1.1.4.6 0 .3.8.8.9-.2.5-.1 1.2-.3 1.7-.4.2-.6.5-.8.9-.6.1-1.1.3-1.6.5-.4-.1-1-.2-1.5-.1-.1-.1-.1-.2-.2-.2-.2 0-.1.2-.3.2-.1-.1-.1-.3-.3-.4-.2.1-.4 0-.5-.1l.1-.1c-.1-.1-.2-.2-.4-.2-.1.2.2.1.1.3-.5 0-.6-.5-.8-.6-.2.4-1 0-1.2-.4-.4.1-.4-.4-.9-.2-.1-.1-.1-.1 0-.2-.6-.3-1.3-.5-1.7-1-.1 0-.2 0-.2.1-.8-.4-1.4-1-2.5-1.1 0-.3-.4-.1-.3-.5-1.1 0-1.5-1.1-2.5-1-.1-.5-.8-.2-1.1-.5 0-.2.2-.1.1-.3-.2.1-.2.2-.4 0-.1 0-.1.3 0 .2-.4 0-1.1-.1-1.2-.6.8 1.6 1.5 4.4 0 6-.4 0-.6.4-.9.6-.3-.1-.4.1-.5.2-.2-.1-.5 0-.5-.3-.1 0-.2.1-.1.3-1.7-.3-2.5-1.3-3.3-2.4.2-.3.2-.7 0-.9.3-1.1.7-1.7 1.4-2.2.2 0 .4 0 .4.1.8-.4 1.5 0 2.1.5.2.3.2.9.5 1.1-.3.1-.2.7-.1.8v.1c-.1 0-.1 0-.1-.1-.2.6-.7.9-1.3 1-.2-.3-.9 0-1-.2 0-.2-.1-.3-.1-.5s.2-.2.3-.3c.2.1.5.1.7.2.3-.2.5-.1.7-.3-.2-.2-.1-.4.1-.5.1-1.2-1.9-1.7-2.2-.6-.1.1-.2 0-.3.1.1.3-.1.6-.3.7.2.5.3 1.1.6 1.7.4 0 .6.1.7.3.4 0 1.1.1 1.4.3.1-.4 1.1-.3 1.1-.9.2.1.2-.1.5 0 0-.2-.1-.2-.2-.4.1-.3.4-.5.6-.8 0-.1-.1-.1-.1-.2 0 0 0-.2.1-.1 0-1.2-.4-2.8-1.5-3.4.1-.1.1 0 .1-.1-.8-.1-1.6-.7-2.4-.3-.2 0-.1-.2-.3-.2-.1.3-.7.2-1.1.3-.3.4-1.1.2-1.4.7-.1-.1-.2.1-.3 0-.3.5-.9.7-1.2 1.2-.1 0-.2-.1-.2-.2-.2.1 0 .2 0 .3-.3.1-.3.4-.5.6.3.3.9.8.6 1.3.1.1.2.1.3 0 .6 1.1-.1 2.2-1.4 2.5-.2-.2-.3-.2-.7-.2-.2-.3-.4-.4-.6-.7v-1.4c0-.1.3 0 .3 0 0-.2-.1-.2-.1-.4.1-.1.2-.1.2-.2.2 0 .1.2.2 0 0-.2-.2 0-.1-.2.2-.2.2-.6.4-.7-.1-.2 0-.2 0-.5-.3-.5-1.3-.5-1.2-1.2-.3-.1-.5 0-.8-.1 0-.1-.1-.1 0-.3-.3.1-.7-.1-.9-.3-.3.2-1.1-.1-.9-.5h-.1v.3c-.1-.1-.3 0-.3.1-.3-.3-1 .1-1.1-.4-.6.3-1.4.5-1.9.9 0-.1-.1-.2-.2-.2-.3.2-.4.2-.4.4s.2-.1.1 0c-.1.4-.6.7-.7 1.2-.2.1 0-.2-.1-.1v1.7c-.1 0 0-.1-.2-.1 0 .2.2.2.3.2.1.3.2.7.4.9 0 .1-.1.1-.1.2.1 0 .2.1.4.1v.3h.4c0 .3.4.2.5.5 1.8.5 3-.7 3.3-2.4 0-.1-.1.2-.2 0 0-.1 0-.2.1-.2-.6-.7-1.1-1.4-2.2-1-.3.2-.3.7-.8.7 0 .3.3.6.2.9.1.2.9.4 1 0 .2-.1.4.2.5 0-.1 2.4-3.5-.1-2.3-1.6.4-.1.6-.5.8-.8 1.2-.5 3.4 0 3.2 1.7.3.2.3.9 0 1 .2.1 0 .3.1.5-.5.2-.6.8-.9 1.2-.4.1-.8.2-1 .5-.6 0-.9 0-1.6.1-.2-.4-1.2-.2-1.1-.7-.7-.2-1.2-.7-1.2-1.5-.3-.1-.4-.4-.3-.9.1 0 .2 0 .2-.1-.1 0-.3-.3-.4-.2 0-.3.1-.7 0-1.1.3-.1.1-.7.5-.7-.1-.4.4-.7.6-1.1.1 0 .1.2.2.1 0-.2.1-.2.2-.4.1 0 .1.2.2.2s-.1-.2 0-.2c-1 0-2.7.8-3.9 1.3-1 .3-1.9.7-2.6 1.3-.5-.1-.5.4-1 .3-.2.1-.2.3-.3.5-.4 0-.6.4-.9.1-.1 0 0 .3-.1.3-.1.1-.1-.1-.2-.1-.3.1 0 .2-.1.4h-.5c0 .2.3.1.2.4-.2 0-.8 0-.9.4-1.8.6-5.3 2.8-7.2 1.1-.7.1-1.1-.9-1.4-1.7 0-.1.1-.2.2-.1-.2-.3.1-.7.1-1.1.6-1.1 1.9-1.3 3.2-.8-.1.2 0 .3.1.5.1.1.2 0 .3 0 0 .4.2.8 0 1.1-.3 0-.4-.1-.6 0-.1-.9-.6-1.4-1.6-1.2 0-.2.1-.2 0-.3-.2 0-.2.1-.3 0-.1.3.2.2.1.4-.8.5-.7 1.4-.6 2 .5.2 1.4 1.3 2.2.8.2 0 .2.1.4.1l.2-.2c.6 0 1.6-.1 2.1-.7.4 0 .8.1.9-.3 0 .1.1.1.2.2.1-.1.2-.3.3-.4.1 0 .2 0 .2.1.1-.2.5-.1.6-.5 3.2-1.6 6.3-4.1 10.4-5.1 0 .1.2.1.1.2.1-.1-.1-.2 0-.3.4 0 .6-.3 1.1-.2 0 .2.1.1.1.2.5-.5 1.9-.1 2.5-.2 0 .1 0 .2.1.2 0 .1-.1.2-.2.3.1.1.2-.2.2-.3.7.1 1.3.3 1.9.5.4.5 1 .4 1.5.7 0 .1 0 .2-.1.2 0 .1.1.1.1.2 0-.1.3 0 .2-.1.4.4.9.7 1.3 1.1.5-.4.9-1 1.5-1.4.1 0 .1.1 0 .2.2 0 .2-.2.4-.1.2-.2 0-.4.2-.5.2 0 .2.1.2.2.1-.1.1-.3.3-.2.1-.1.1-.2 0-.3.8-.2 1.5-.5 2.2-.4-.2.1 0 .3.1.4.2-.1.1-.4-.1-.4 0-.1.1-.1.1-.2.8 0 2.1-.2 2.6.3.1-.1.2-.1.4 0 0 .1-.2 0-.2.2.6-.2 1.7.1 2.3.4.2 0 .3-.1.4-.1.6.3 1.5.6 2.1.8-.1 0-.1.2-.1.3.2 0 .2-.1.4-.1.1.3.5.3.9.5 0 .1.1.2.1.4.7 0 1 .6 1.6.6 0 .1.1.1 0 .2 1 .1 1.5.7 2.4 1 0 .2.2.2.1.5.1 0 .1-.1.1-.1.2.2-.1.2-.1.4 0 .1.1 0 .1.1.1 0 .2-.2.2-.3.8 0 1.3.9 1.9.8.1 0 0 .3 0 .3.2 0 .2-.2.4-.1.1.2-.1.2-.1.5l.1.1c.3 0 .2-.3.5-.3.2 0 .2.2.3.3.2 0 .2-.1.3 0 .1.1.3.1.3.3.4.1.9-.2.9.3.1 0 .2-.1.2 0 .1 0 .1-.2.1-.2.2.1.5.2.7.3.4.6.5.5.4.5zm-24.4-2.3c-.2.2-.5.4-.5.6 0-.1.2 0 .1 0-.2.4.1.8.1 1 .4 0 .9-.1 1.2-.4 0-.2-.2-.4-.2-.5 0-.2.2-.2.2-.4-.3 0-.4-.4-.6-.7-.2 0-.3.1-.3.1 0-.1-.1-.1-.1-.2 0 .3.1.3.1.5z"/><g><path d="M21.2 7.6v.1h-.1l-.1.1h-.7l-.3.1h-1l-.6.1-.3.1v.1h.1v.1h.4l.3-.1h.7l.6-.1h.3l.3-.1h.7v-.1h.1v-.2l-.1-.4V6.7l-.1-.1h-.2v.2l.1.3V7.4zM28.6 5.5h.1v-.1l-.1-.1h-1.9l-.1.1v.1H26.9l.1.1H28.4l.1-.1zM31.5 7.2h-1.4l-.3.1h-.6v.1h.1v.1H32.1v-.1h.1V6.2l-.1-.1V6h-.2v1.1h-.1l-.1.1h-.1zM26.6 7.7l.7-.1h.1l.1-.1V6.4l-.1-.1-.1-.1h-.1v1.1h-.1l-.1.1H26.1l-.7.1-.8-.1-.1.1v.2H26.1zM35.8 5.1h-.1l-.2-.1v.3h.1l.1.1v-.2h.3zM36.4 6.2h-.2v.4l-.1.3V7.2H35.5l-.3.1-.4-.1h-1.7v.1l-.1.1.1.1H36.4V6.9l.1-.3v-.1l-.1-.2zM39.5 7.2v.1h-.2l-.3.1-.4-.1h-1.4v.2l.1.1h2.5v-.7l.1-.3v-.1l-.1-.2v-.1h-.1l-.1-.1v.6l-.1.3.1.1zM48.2 7.9V8h-.5l-.8-.1-.3-.1h-.9V8h.1v.1h.7l.4.1h.7l.4.1h.6v-.2l.1-.2v-1h-.1v-.1h-.1v.6l-.1.2v.2l-.1.1zM45.2 6h.2v-.1l-.1-.2h-.7l-.7-.1h-.3l-.2-.1-.1.1v.1h.1l.1.2h.1l.7.1h.3l.4.1h.1zM42.5 7.8l.5.1H43.9v-.1l.1-.1V6.6l-.1-.1h-.1v.3l-.1.2v.4l-.1.1-.1.1H42.6l-.8-.1-.7-.1h-.2v.2l.1.1H41.8zM4.2 17.4v-.2l.1-.3.1-.2.1-.2.1-.2.2-.2.2-.2.1-.2.2-.2h.2l.3-.1.3-.1.3-.1h.5v-.1l-.1-.3-.2-.1h-.2l-.1.1H6l-.3.2h-.3l-.2.1-.2.1-.2.1-.2.2-.2.2-.1.2-.2.2-.1.3-.1.2-.1.5v.8l.1.2.1.3.2.5.2.2.1.2.2.3.1.1-.1-.1-.1-.4-.2-.2-.1-.3-.1-.2v-.3l-.1-.3v-.2z" transform="translate(40 1)"/><path d="M5.6 23.3h1.2l.6-.1.3-.1.3-.1.5-.2.6-.2.5-.2.5-.3.2-.2.2-.2.4-.4.4-.5.1-.1v-.2h-.1l-.2-.2-.4-.3-.3-.2-.3-.2-.4-.3-.3-.2H9v.4l-.2.2-.3.2-.3.2-.3.1-.3.1-.3.1-.3.1H6l-.9-.2-.2-.1-.2-.1-.2-.2-.2-.2-.2-.2-.2-.4-.1-.3-.1-.3-.1-.3-.1-.3v-1.2l.1-.3.1-.3.1-.3.2-.2.2-.2.2-.2.2-.2.2-.2.3-.1.3-.1.3-.1.3-.1.2-.1H7.1l.1.1.1.1.1.4v.6l.1.4.1.1H8.2l.4-.1.3-.1.8-.1.3-.1h.1l.1-.1V14.9l-.1-.3-.2.1-.1-.4-.1-.4v-.6l-.1-.4-.1-.1-.5-.3-.5-.2-.5-.2-.5-.1H6l-.5.1h-.6l-.6.2-.5.2-.5.2-.5.3-.5.3-.4.5-.3.5-.4.4-.2.2-.1.3-.1.3-.3 1-.1.6v.6l.1.6.1.6.2.6.1.3.1.3.2.5.3.5.4.5.4.4.5.4.5.3.5.3.6.2.6.1h.6zm-.1-9.6l.1-.1-.1.1zm.2.5zm.5-.6l-.1-.1.1.1.1-.1-.1.1zm.5-.2l-.1.1.1-.1zm.1.1l.1.1-.1-.1zm0-.8l.1-.1H7v.2l-.2-.1zm.5 1.2l-.2-.2v-.2h.1l.1.1V13.9zm.5.1H7.5 7.8zm0-.2l-.2-.2.1-.2.1.1.1.1-.1.2zm-.2-.6zm.4.3v.2h.1v.1l-.1-.3zm-.1-.4zm.2 1.1zm.5-.2l-.3.1h-.1l.2-.1h.4v.1l-.2-.1zm.4.5v-.2.2zm-.2-.9l.2-.1v.1l-.1.2-.1-.2zm-.2-.3zm-.1.2l.1.2v.1l-.1-.1v-.2l-.2-.1-.1-.1h.2l.1.2zm-.1-.4zm-.2-.4l-.2.2v-.2h.2l-.2-.1.2.1zm-.7-.3H8v.1h-.2v.2h-.1l-.1-.1-.1-.2zm.1.5H7.3l.1-.1.1-.1.1.2zm-.4-.3h.2v.1l-.2-.1zm-.2.6l.2.1.1-.1V13H7.6V13.3h-.2l-.1.1h-.2l-.2.2v.1l.1.1.1.1-.2.1-.1-.1V13.6h-.1v-.1l.3-.3zm-.8-1l.2-.1h.1v.1h.1l.1.1h.1v.1h-.4l-.1.1h-.1V12.2zm-.2.4l.1-.1h.1v.1H6zm-.3.1l.1.1v.2l.1.1H6v.1l-.1.1v-.2l-.1-.1-.1-.3zm-.4.5l.2-.1.1.2h-.1l-.2-.1zm-.1-.4zm-.3.5l.1.1-.1-.1zm-.2.5l-.1.1.1-.1zm-.3.5zm-.5-.5zm-.9.5h.2v.1l-.2-.1zm-.1.9l.1.1v.1l-.1-.2zm-.3-.6l.1.1v.1l-.1-.2zm-.1.5v.2h-.1v-.1l.1-.1zm-.2 1.1zm-.7 2.7zm0-1.5l.1-.2V17h.1l.1.1-.1.1.1.2h-.3zm.2 2.2l-.1-.1.1.1zm.3-1.6l-.1.1V18.4h-.1v-.1h-.1v-.1l.1-.1.2-.1zm.3.8l-.1-.1.1-.1v.2zm.1-1.6h-.2v.2l-.1.1h-.1v-.1h.1v-.1l.1-.1V17h-.1H2.5v.4-.2zm.1.8l.2-.1-.2.1zm.1 1.4v.2-.2zm.4 1.5l-.1-.1h-.1.1v-.2l-.1-.1-.2-.1-.1-.1h.2l.1.1v.2l.1.1.1.2zm.1-.3l.1-.1-.1.1zm.3-6.8l.1.1v.1l-.1-.2zm-.2.4l.2-.1h.2l-.1.1h-.1v.1l-.1.1h.1v.1h-.1v-.1l-.1-.2zm.1.8z" transform="translate(40 1)"/><path d="M10.1 13.6v.4l.1.4.1.3.1.3.1.5v.2l-.1.1v.1l-.1.1-.1.1h-.1l-.1.1-.4.1h-.2l-.3.1h-.3l-.3.1h-.2v.2l.1.1h.1v.1h.2l.3-.1h.2l.2-.1h.3l.3-.1h.5l.2-.1.1-.1h.1v-.1l.1-.1-.1-.4-.1-.2v-.3l-.1-.5-.1-.4v-.3l-.1-.3v-.4l-.1-.1-.2-.2-.2-.1zM11.8 20.8l-.1-.1v.1l-.1.3-.2.2-.2.2-.3.3-.2.1-.2.2-.2.2-.3.2-.3.2-.2.1-.3.2-.8.2-.6.2-.3.1-.4.1h-.3l-.6.1-.3-.1h-.6l-.3-.1h-.5.1l.3.1.3.1.2.1h.3l.3.1h.6l.3.2h.2l.2-.2h.6l.3-.1.3-.1.3-.1.5-.2.3-.1.3-.1.3-.2.2-.1.3-.2.2-.2.2-.2.2-.2.3-.2.2-.3.2-.2.1-.2v-.1L12 21zM24.7 15.5l-.2-.7v-.2l-.2-.5-.2-.4-.2-.3-.1-.2-.4-.6.3.6.2.6.2.6.1.7v.5l.1.7-.1.7-.1.7-.2.7-.3.6-.3.7-.4.4-.6.6-.8.5-.5.2-.4.2-.5.2-.8.2-.7.1h-1.1l-.9-.1-.5-.1-.7-.2.9.4.4.2.5.1.7.1h1.2l.6-.1.9-.2.5-.2.4-.2.5-.2.7-.5.7-.6.3-.4.4-.7.3-.7.2-.7.1-.6V16zM15.5 17.3l.2.4.2.2-.2-.5V16.2l.1-.6.2-.6.3-.6.5-.4.5-.3.6-.3.6-.1h.6l.2.1v-.1l-.6-.2h-.9l-.6.1-.5.2-.5.3-.3.4-.3.4-.2.6-.1.5v1.1z" transform="translate(40 1)"/><path d="M17 21.7l.4.1h1.5l.5-.1.5-.2.5-.2.5-.2.5-.2.4-.3.4-.3.3-.3.4-.4.3-.4.4-.9.2-.5v-2.2l-.1-.5v-.6l-.1-.5-.2-.5-.2-.4-.3-.5-.3-.4-.4-.4-.3-.3-.5-.3-.4-.2-.5-.2-.5-.2-.5-.1-.5-.1h-1.5l-.6.1-.5.1-.4.1-.6.2-.4.2-.5.3-.4.3-.4.3-.4.3-.4.4-.2.4-.3.6-.1.4-.1.6-.1.5-.1.5v1l.1.5.1.5.1.5.2.5.2.4.3.5.3.4.4.4.4.4.4.3.5.2.5.2.5.1 1 .1zm-3.5-7.9zm-.2 3v-.2.2zm0 1.3v-.2.2zm.2-.7zm.2 1zm-.1-3.7zm.1 2.3zm.2 2.7zm0-4.5l.2.1v.1-.2h-.2zm.2 1.4l-.1-.2.1.2zm2.1 3.9zm.3-.9l.2-.1h.1v.1H16.5zm.2.2zm-.2.2zm-.1-.6zm-.1.7l.2.1.1.1-.3-.2zm0 1.1zm.4-.2l-.2-.1v-.1l.2.2zm0-.3zm.1-.4l-.2.1h-.1l.1-.1h.2zm0-.3zm.4 1.2H17l-.1-.1.1-.1h.2v.2zm0-.6zm0-.4l.2.1-.2-.1zm.2.3zm.4-.1zm-.1-.4h-.2.2zm.2-.2h.2-.2zm.2.6zm.6-.3l.1-.2h.1v.2l.1.1-.3-.1zm.4.3zm.3-.6h-.2.2zm.3 1h-.2v-.1l.2.1zm.2-.8zm.9.2v.3V20.2zm.1-.8v.2h-.1l.1-.2zm-5.9-4l.1-.3.1-.4.1-.3.3-.5.4-.4.6-.4.6-.2.5-.1h.7l.5.1.6.3.4.4.4.4.3.5.2.7.1.5v.6l-.1.6-.2.6-.3.4-.4.5-.5.4-.6.1-.6.1h-.6l-.5-.1-.5-.2-.5-.4-.3-.3-.3-.3-.2-.3-.1-.3-.1-.4-.1-.5v-.8zm0 3.3l.1.2v.1h-.2v-.1l.1-.2zm-.4 0l.2-.2h-.2v.2h-.2.2zm-.2-.4l.1.2-.1.1V18.3zm-.1.6zm1 1.1h-.4l.1.1h.1l.2-.1-.1.2H15v.1l-.1-.1V20l-.1-.1-.1-.1h-.1.1v-.1h.1l.1-.1h.1v-.1h.1v.1l.1.1-.4-.4h-.2V19.6H14.9l.1.1h.1v-.2H15v-.2l.1-.1V19h.1l.1-.1v-.5h.1v.1l.1.1v.1h.1l.1.1.1.1h-.2v-.2h-.1.1v-.1h-.1l-.1.1v.2h-.2.1l.1.1.1.1-.1.1v.1l-.1.7zm-.4-.6zm.7.7h.2-.2zm-.1-.5zm.3 1.4l-.2-.1v-.5h.2l.1.1.1.1.1-.1v-.1h.2l.1.1H16.1v.1l.1.1-.4.3h.2-.2zM40.7 19.9v-.6l-.1-.1v-.1H40.3V21l-.1.1H40l-.2.1h-.7l-.5-.1-1 .1-1-.1h-.5l-.6.1-.4-.1.1.3v.1h.2l.5.1h1l.5-.1.5.1H40.4l.2-.1.1-.1v-1.1zM39.7 12.4h-.1l-.4.1-.3.1v.9l.1 1.1v.7l-.1.5v1.6l.1.4h.3l.1.1V14.3l-.1-.5.1-.7v-.2h.2l.4-.1h.3l.1-.1h.1v-.1l.1-.4v-.4l.1-.5-.1-.5v-.1l-.1-.1-.1-.1h-.1l-.1.5v.5l-.1.5v.1l-.1.1v.1l-.1.1z" transform="translate(40 1)"/><path d="M36.1 20.8h.5l.5.1H39.7l.1-.1h.1v-2.4l-.1-.1h-.2l-.8-.1h-.2v-.1l-.1-.5v-2.9l-.1-1.1V12.4l.1-.1H39.1l.4-.1h.2V12l.1-.5V9.8l-.1-.1H39l-.5.1h-3.1l-.1.1-.1.2-.1.2-.3.4-.7.8-.6.8-.3.4-.4.3-.1.1H32.4l-.3-.4-.1-.2-.2-.3-.3-.4-.3-.4-.6-.8-.3-.3-.3-.4-.1-.1H25.7l-.1.2v.5l.1.5-.1.5v.7l.1.1h1.1V18.6l-.1-.3h-1.2l-.1.2v.5l.1.5-.1.5v.6h1.3l1 .1.5-.1.5-.1.5.1.5.1h1.1l.1-.1V19l-.1-.5v-.2l-.1-.1h-1.1V14.3H29.9l.1.1.2.3.3.4.3.3.3.3.3.4.3.4.3.4.3.3.1.1.1.1h.1l.1-.1.4-.5.4-.5.4-.5.4-.5.4-.5.4-.5h.2l.1.1v2.5l.1.6v.7l-.1.1h-1.1l-.1.1v.2l-.1.5v1l.1.5v.1h.2l.5.1h1.2zm-6.8-9.4zm-1.2.8zm-.2 2.1l-.2-.2V14v.2l.2.1zm.3.5zm.1-1.9l-.1-.2H28.5l-.2.2zm.4-.3zm.6.4zm.1-.5H29.1l.1-.1.2.1zm.2-.8zm0 .4l.1.3-.1-.3zm.1.8l.1-.2-.1.2zm.2.2zm1.8.6zm-.6-.9l.2.2-.1.2h-.1v-.4zm-.4-.1l.2.1.1.1-.3-.2zm.1.1l.1.2-.1.2v-.1l-.1-.1.1-.2zm-.2-.6zm-.2.7l.2.1-.1.1-.1-.2zm.1.5zm-.1-1l.1.2v.1h-.1v-.3zm-.4.1h.3l.2.1h-.4l-.1-.1zm.1.5l-.1-.2.1.2.2.2-.2-.2zm0 .3l.1.2-.1-.2zm.1.4l.2-.1v.2l-.2-.1zm.4.3h-.2.2zm0-.3l.2-.1h.2v.1h-.4zm.5.3zm-.3 0v-.2h.1l-.1.2zm.4.3l-.1.2v.2H31l-.1-.1V14.3h.1v.1l.2-.1zm.2.2zm-.1-.9l-.1-.2h-.1v.1h-.2v-.2l.2.1.1-.1h.2l.1-.1V12.9l-.1-.1v-.1l.2.1.1.1v.1l-.1.1v.1h-.1l-.1.1-.1.1h.1l-.1.2zm.5.9l-.2.2h-.1v-.1h.1l.2-.1v-.2h.1l.1.1-.2.1zm.2.6l-.1-.2.1-.2v.4zm.3-.8l-.1-.2h.1v.2zm.3 1.4zm3.8 3zm0-1.1v-.2.2h.2-.2zm.4 2.1l-.2.1v-.1h.2zm0-1.5v.2-.2zm.1-.2h-.3H36.9zm.5-.4l-.2.1H37v-.1h-.1v.1h-.1V17.4h.1l.1.1h.2l.2.1-.1-.2h-.1v-.2h.1v-.1l-.1-.1H37v.2H36.7v-.1h-.2l-.1.1h-.1l-.1.2h-.1v-.1l.1-.1V16.6v.1h.1v.2l.1.1H36.7l.1.1V16.8l.1-.1h.2V17l.1.1.1.1v-.1l-.1-.1-.1-.1v-.1h.1l.1.1v-.1.2h.1V17.3h-.1v.2l.1.1zm-1.2-1.3v-.2l.2.1-.2.1zm.8 0l.2.1v.1h-.1l-.1-.2zm-.1-.7l-.2-.1v-.1h.2v.2zm-.1.3v-.2.2zm.6 2.3l.2-.1v.1h-.2zm.2.8l-.1-.2v-.1.1l.1.2zm.1-1.5zm0 0zm.1-1.9zm-.3-.6zm-.1.6zm0 .6l.1-.2v-.2l.1.1v.1h-.1l-.1.2-.1.2.1-.2h-.2v.1h-.1l-.1-.1v-.1l.1.1h.3zm-.2-.2zm-.1-1zm-.1-.3zm-.2-.6zm0 .9zm-.1.7v.2-.2zm-.3-1.2v.2-.2zm-.1 1.2zm-.2 3.5zM36 16zm-.3 2.8l.1.2v.1h-.1v-.3zm-.8.5zm.2-.5z" transform="translate(40 1)"/><path d="M30.1 17.9h.4l.1-.3-.1-.6v-1.4l-.3-.3-.1-.2v2.3zM31.8 19.2l-.1-.1h-.3v.5l.1.5v.7l-.1.1v.2l-.2.1H30.9l-.5.1-.6-.1h-.5l-.5-.1-.4.1h-1.2l-.4-.1-.5.1V21.5h.1l.2.1h1.5l.5.1.5-.1h1.1l.5.1h.9l.1-.1h.1l.1-.1v-2.2zM34.8 16.1l.4-.4V15l-.1.1-.4.5-.8.9-.4.6-.3.4-.2.2h-.1v.1l.1.1H33.3l.1-.1.7-.8.4-.5zM52.4 11.7v-.1H52.1l-.1 1v.5l-.1.5-.1.6v.2l-.1.2-.1.1-.2.1-.1-.1-.4.1-.5-.1-.4-.1v.2l.1.2v.1h.1l.3.1.3.1H52.2v-.2l.1-.4.1-.4v-1.1l.1-.8v-.6zM46.5 18.3h.3V18l.1-.1h1.3l.3.1h.2l.1.1v-.2l.1-.2.1-.2h.5V17.2l.1-.3.1-.7-.1-.3v-.1h-.1l-.1-.1h-.2V16l-.1.7v.3l-.1.2-.1.2h-.1l-.1.1H48.4l-.2.1h-.1l-.2-.1h-.2l-.3-.1H46.4V18.3zM52.1 19v-.1H52l-.1-.1h-.2l-.1.2v1.1l-.1.7v.8l-.1.1v.1l-.1.1-.1.1h-.1l-.1.1H50.1l-3-.3-.2-.1h-.6l-.3-.1h-1.4l-.3-.1h-.9l-.5-.1h-.7l.1.2v.1h.1l.7.2h.5l.4.1h.5l.9.1.9.1h.8l.6.1h.2l2.6.2.3.1h1v-.1l.1-.1v-1.1l.1-.3v-1.1l.2-.5v-.3zM48.7 13.3H47.5l-.2-.1h-.5l-.1.3v.7h.4l.1-.3v-.1l.1-.1h.1l.4.1h.5l.4.1h.2v-.3l.1-.2v-.1h-.1z" transform="translate(40 1)"/><path d="M43.3 21.1l.5.1.7.1.8.1H46.7l.5.1 2.6.2H51l.1-.1v-.1l.1-.3v-1.7l.1-.3.1-.4v-.5l-.1-.1h-.1l-.3-.1H49v.2l-.1.3v.4l-.1.2H47.9l-1.1-.1h-1v-1.3l.1-.1.1-.1h1.2l.3.1.4.1h.4l.1-.1v-.1l.1-.3v-1l.1-.4v-.4h-.2l-.4-.1h-1.4l-.3-.1h-.2V14.7l.1-.5v-.6l.1-.1h.5l.9.1h1l.4.1v.4l-.1.3V14.7h.1l.4.1h1l.4.1h.4l.1-.1v-.2l.1-.5.1-.8v-.4l.1-.8V11.3h-.1l-.3-.1h-2l-.6-.1h-.2l-.7-.1h-.2l-.4-.6h-.6l-.9-.1h-1.1l-.8-.1-.3-.1-.5-.1h-.4V10.3l-.1.3-.1.4V12.4l.1.1h.9l.1.1v.5l-.1.4-.1.7-.1.4-.1 1.1v1.9l-.1.4-.1.3v.2h-.4l-.3-.1H41.9l-.1.1v.1l-.1.3v.4l-.1.6-.1.4v.4l.1.1h.2l.3.1.5.1.7.1zm4.1-.4zm.5.2l-.2.1v-.2l.2.1zm0-.4zm.3.5l.1-.2-.1.2zm-.2-.5zm1.7.4h-.2.2v-.2.2zm-.3-.8zm.7.3l-.1.3v-.1l.1-.2-.1-.2.1.2zm.2.1l.2.1-.2-.1zm-.2-.4zm-.2.6zm-1.2.1l.2-.1h.1l.1-.1V20H49l-.1.1h-.1v.2-.2l.1-.1h.2l.1-.1.1-.1h-.2l-.1.1h-.1v-.1l.1-.1h-.1v-.1h.1v-.1h.2l.1.1H49.6v-.1h.1v.5h.2v.2h-.1l-.1-.1h-.1V20l.1-.1v-.1h-.1v-.1h-.1l-.1.1v.2h.2V20.3h-.1v.2h.1v.1h.1l.1.1v.1l-.2-.1h-.1v-.1h-.4l-.2-.1h-.1v-.1l-.1.4zm-.1-.8l-.2.1.2-.1zm-.4-.8l.1.2h.1v.4l-.1.1h-.2v.1l-.1.1-.1-.1.1-.1v-.1l.1-.1v-.1l.2-.2h-.2l-.1-.1.2-.1zm-.3.7h.2-.2zm0 .3l-.2.1.2-.1zm-.1-1.2zm-.2.6h.2v.1l-.2-.1zm-.2.6l.2-.1h.1l-.1.1h-.2l.1.2h-.1v-.2zm-.3-1l.1.2-.1-.2zm0 .7zm-.1.3zm-.4.3H46.9l-.1.1-.2-.1zm-.3-.5zm.4-8.5zm-.4.6l.1-.2h.1l-.2.2zm-.8 4.6zm.1-1.5v.2-.2zm-.1-3.9zm-.1 1zm0 3.6l-.2.2v-.2h.2zm-.3-1.2zm-.1 1.6zm-.2-3.9zm.1 7.3zm-.3-1.1l.1.2h-.2l.1-.2zm-.2-6.6l.1-.2-.1.2zm-.1.5l.2.1-.1.1h-.1v-.2zm-.1 4.2l.2-.1V16.9l-.2-.2zm0 1.4l.1.2-.1-.2zm-.1-4.6zm-.3-.4zM60.8 15.4l.2.1h.1l-.1-.2-.1-.1-.1-.2h-.1l-.2-.2H59.9l-.4-.1h-.3l-.2-.1-.2-.1h-.1v.2l-.1.3v.3l-.1.3-.1.5v.4h.1l.2.1h.1v-.2l.1-.3v-.2l.1-.2v-.4l.1-.1h.5l.4.1.3.1h.3z" transform="translate(40 1)"/><path d="M61.1 23.3l.5.1.5.1.5.1.5.1.5.1.1-.1v-.2l.1-.5.2-1v-.7l-.2-.1-.5-.1-.5-.1h-.1l-.1-.1-.4-.7-.3-.7v-.2l.1-.1.1-.1.6-.2.5-.3.5-.5.3-.5.3-.6.2-.6.1-.5v-.5l-.1-.5-.2-.5-.2-.5-.3-.4-.4-.4-.4-.3-.4-.2-.5-.2-.5-.2-1.5-.3-1-.1-.5-.1-.5-.1-.5-.1-.5-.1-1-.2-1-.2H55l-.1.1-.1.1v.1l-.1.5-.2.9-.1.5v.2l.1.1.3.1.8.1v.9l-.1.6-.1.5-.1.5-.1 1.1-.5.5-.1.5v.6l-.1.5v.2h-.8l-.4-.1h-.2l-.2.5v.5l-.1.5-.1.6-.1.1v.1l.5.1.5.1 1 .2 1.1.1.5.1.5.1.5.1H58v-.1l.1-.4.1-.4.1-.4v-.7h-.1l-.4-.1-.4-.1h-.1l-.1-.1v-.1l.1-.8.1-.2H57.7l.1.1h.3l.2.1.2.1.1.1.5.9.2.5.2.5v.2l-.2.6-.1.6v.2l.1.1.5.2.5.1.8-.2zm1.8-.5zm-.5.2zm-5.6-10.4h.2-.2zm.1 4.1zm-1.1 1zm-.1 2.4l-.2-.2v-.1.2l.2.1zm.2.5l-.1-.2.1-.1v.3zm.1-2l-.1-.2v-.1l.1-.1h.1v.2l-.1.2zm.3-.5zm.6.4zm0-.6h-.2.2zm.3-.8zm.2-4.8l-.2.1.2-.1zm3.7 10.4l-.2-.1h-.2v-.1h.4v.2zm.1-2l-.2-.1H60.7h.1l.4.1zm.7 2.1l-.1-.2.1.2zm.6-6h.2-.2zm.4-1.3H62.6v-.1h.1l.2.1zm0 .3zm-.3 0l.2.2H62.5l.1-.2zm.2.4zm-.1 1.5zm.2-1l-.2-.2-.1-.1h.2l.1.1v.2zm.1-1.2v-.2h.1l-.1.2zm-.2-.8l-.2-.1v-.1l.2.2zm.1.3zm.3 1.9zm.4-.9zm.1-1.4l.2.4v.1H63.6v.1h.1v.1h-.1l-.1-.1-.1-.1V15h-.2v-.1l.1.1h.2l.1.1h.2v-.2l-.1-.3.1-.2-.1.2zm-.3.1l.1.2-.1.1-.1.1h-.1l.2-.4zm-.3-.4l.2.1v.1l-.2-.2zm-.1.1l.1.3-.1.1v-.1l-.1-.1.1-.2zm0-.6zm-.2.2l.1.2h-.1V14zm-.5.2l.3-.1.2.1h-.5zm.1.3l.1.2v.1h-.1V14.5zm0 .5zm-.1.1h.2v.1l-.2-.1.2.1-.2-.1-.2.1v-.1h.2zm-.1-.3zm-.2-.3zm-.1-.7l.1.2-.1-.2zm-.3 8.4zm0-.6zm-1.8-8.3zm-.8 0l-.2.1v-.1h.2zm-.3-.3zm-.5-.4l.2-.1v.2l-.2-.1zm.3.9h-.2.2zm1.5 6.3zm-.1-2.7h-.7l-.3-.1h-.2l-.2-.1-.3-.1h-.1l-.1-.1V16l.1-.5.1-.3V15l.1-.2.1-.3v-.2h.2l.3.1.2.1.2.1.3.1h1l.3.1.2.1.2.2.1.2.1.2.1.2v.5l-.1.2-.1.2-.1.2-.2.2-.2.1-.2.1h-.2l-.6-.1zm.5 3.3h.2v.1l-.2-.1zm.1 1.1z" transform="translate(40 1)"/><path d="M64.6 22.3l-.2-.1-.1.4-.1.5-.1.5v.5l-.1.1h-.9l-.5-.3-.5-.1-.5-.1-1.1-.1-.3-.1-.1.2v.2l.1.2.5.1.5.1h.6l.5.1.5.1.5.1.5.2h.6v-.2l.2-.5v-.6l.2-.5v-.6zM58.5 19.7h-.1l-.2-.1h-.3l-.1.4.3.1h.1l.1-.2.3.1zM65.2 16l-.2-.5v.6l-.1.5-.2.7-.2.6-.5.6-.5.6-.5.2-.6.3.2.5.6-.2.5-.3.6-.6.4-.6.2-.6.2-.7.1-.6v-.4zM59.1 21.5H59l-.2-.1-.1.4-.1.4v.4l-.1.2v.1l-.1.1v.1h-.5l-.5-.1h-.6l-.5-.2-.5-.1-1.1-.1-1-.2h-.3v.2l-.1.1.1.1.5.1.5.1 1.1.2 1 .1.5.1.5.1.6.1.5.1.2-.1.1-.1.1-.4v-.5l.2-.4v-.6zM20.1 3.7H20.4l-.1-.5v-.1h.1l.1-.1h1v-.1l-.1-.1h-.2l-.1-.1H21l-.3.1H20l.1.7z" transform="translate(40 1)"/><path d="M17.1 2.3l.1.3v.1h.7v.8l.2.6v.6l.1.6V6.2h-.6l-.1.1V6.6l.1.3V7.6h.5l.3-.1.6-.1h.6l.3-.1H20.9V6h-.7v-.6h.1l.5-.1H21.7l.3-.1h.2l.6-.3.3-.2.2-.2.2-.3.1-.3.1-.3V2.7l-.1-.3-.1-.3-.2-.3-.2-.2-.3-.2-.4-.2-.3-.1h-.3l-.3-.1h-.6l-.6.1H17.6l-.3.1v.1l-.2 1zm1.6 2.5l.2-.1v.1h-.2zm.2.3zM19 5zm0 .4zm.2.1l-.2-.2.2.2zm.2-1.1zm-.1.1l-.2-.1.2.1zm-.1.5v.2V5zm.2.9zm0-.7V5v.2zm.2-.4h-.2.2zm.5-.6zm.2.6zm.7-.1l-.2.1.2-.1zm.3-.2zm.9-1.6zm.5-.5zm-.3.7zm-.3-1.4zm-.4.1zm-1.9.9l.2-.1H21.3l.1.1.1.1.1.1.2.1v.4l-.1.1-.1.1-.1.1-.1.1-.1.1H19.9v-.4l-.1-.8zm-.2 1.6zm0 .2zm-.2-.6v.2-.2l-.2.1.2-.1zM19 2.7zm0 .7v-.2.2zm-.1.2l.2.1h.1-.1l-.2-.1-.2.1.2-.1zm-.2.5zm-.1-.5zm-.1 1l.2-.1H19V4.8h.1v-.1.1l-.1-.1h-.1l-.1-.2h-.1V4.8l-.2-.2z" transform="translate(40 1)"/><path d="M23.8 2.6v1l-.1.3-.1.4-.2.3-.3.2-.3.2-.3.2-.3.1-.3.1-.3.1h-.3l-.3.1h-.7V6l.2-.1h1l.3-.2.3-.1.4-.1.2-.1.3-.2.3-.2.3-.2.2-.3.1-.3.1-.4.1-.4-.1-.3v-.3l-.1-.4-.2-.2-.1-.2.1.2zM29.2 1.4l.1.3.2.3.3.6.2.3.3.6.1.4.2.3.1.3.1.3.2.2.1.2h.2l-.2-.5-.1-.3-.2-.3-.1-.3-.2-.3-.1-.3-.2-.3-.3-.6-.2-.3-.1-.3-.3-.7-.1-.1H29V1z" transform="translate(40 1)"/><path d="M23.8 5.7l-.1.2v1.3l.1-.1H27l.1-.1V5.9h-.5v-.6h2.1v.5h-.4V7H31.3V5.7h-.6l-.1-.1.2-.4-.2-.3-.1-.3-.1-.3-.1-.3-.1-.3-.1-.3-.3-.3-.1-.3-.2-.3-.2-.3-.2-.3-.2-.3-.1-.3-.3-.6V.6h-.7l-.6.1H25.3l-.1.1v1.3l.1.1h.5v.2l-.1.3-.1.3-.1.2-.1.3-.1.3-.1.3-.1.3-.1.3-.1.3-.3.2-.2.5v.1h-.1l-.5-.1zm6.4.7zm-.1-.9zm-.3-.6zM29.7 6zm-.8-3.4zm-.4-.1zm-.1-.4zm-.3-.6H28.4 28.1zm-.3.1zm-.7 1.8l.1-.2.1-.2.1-.2.1-.2v-.1H27.8v.2l.1.2.1.2.1.2V3.6l-.1.1H27.1l-.1-.1.1-.2zm-1.4.6zm.2.1l-.2.1.2-.1zm-.3.2v-.2.2zm.3.4l-.1-.3v.1l.1.2zm0-.3zm.1.3v-.2.2zm.4-.4zm.1-.1l-.1-.2v-.1h.1V4.2zm.1-.6zm-.1-.6zm-.2.1l.2.1h.1-.1l-.2-.1zm-.1.8zm0 .1l-.1-.2.1.2zm-.7-.2l.2-.1h.4V4h.1v.1h-.1v-.2l-.1-.1v-.1l-.1-.1-.1.1-.3.1z" transform="translate(40 1)"/><path d="M27.6 3.2l.1-.1-.1-.4-.1.1V3l-.1.3-.1.2h.2zM35.5 3.2h.1l.1.1h.1v-.9H37v-.1l-.1-.1h-.1l-.1-.1h-1.2V3.1zM39.2 3.5l-.1.4-.3.4-.3.2-.3.2.1.2.3-.1.3-.2.3-.4.2-.4.1-.4V2.3l-.2-.2.1.3v.3l-.1.5z" transform="translate(40 1)"/><path d="M32.9 7h2.8V5.7h-.5V4.9H35.9l.1.1.4.5.2.3.2.3V7h.1l.3.1h2.1V5.7H38.4l-.2-.5-.3-.4V4.5l.4-.2.3-.1.2-.3.2-.3.1-.4v-1l-.1-.3-.2-.3-.2-.3-.2-.2-.2-.2-.3-.2-.3-.1-.3-.1-.3-.1h-4.1V1.8l.1.1h.7V5.3H32.9V7zm5.3-.4zm-.5.1H37.4v-.1l.3.1zm0-5zm.2 4.4zm-.1-3.8l-.1-.2h.2l-.1.2zm.3 0zm-.2.2h.2-.2zm.3.4l-.2-.1-.1-.1.3.2zm.1-1.1l.1.2-.1-.2zm.1.3h.2V1.8h.1l.1.2v.1h-.4l-.2.1v-.1h.2zm-.3-.5zm0 .1v.2-.2zm0 .4zm-.1-.3zm-.3-.3h.2-.2zm-.3-.1zm-.1 3.9H37.6h-.3zm-2-2.8v-.6H36.8l.1.1.2.1.1.1.1.1.1.1V3l-.2.1-.1.1-.1.1-.1.1H35.4v-.7l-.1-.2zm0-1zm-.2-.6zm-.3 3.6zm-.1-.4zM34.4.9l.2-.1-.2.1zm-.2.1zm-.1 3.6zm0 .8zM46.3 2l.1.3.2.3.2.6.1.3.3.7.1.3.1.3v.4l.1.3.2.2.1.4h.2l-.2-.6-.1-.4-.1-.3-.1-.3-.1-.3-.1-.4-.1-.3-.3-.6-.1-.3-.1-.3-.2-.6-.1-.1v-.1h-.2v.1z" transform="translate(40 1)"/><path d="M40.3 7.1h.8l.7.2.7.1H43.4l.1-.1V6.2H43V5.9l.1-.1.1-.1.1-.1h.7l.7.1h.7v.4H45V6.7l-.1.4v.1H46.7l.4.1H47.9V6h-.6v-.1l-.1-.3-.1-.3L47 5l-.1-.3-.1-.3-.1-.3.1-.1-.1-.3-.1-.3-.1-.3-.1-.3-.1-.3-.1-.3-.1-.3-.3-.7v-.1h-.1l-.6-.1H44.2l-.6-.1-.3-.1h-.7l-.1.1v1.3h-.2.5v.2l-.1.3-.1.3-.2.3-.2.3-.1.3-.1.3-.2.2-.1.3-.2.3-.2.2-.3.5v.1H40.2l-.1.1v1.3l.2-.1zm6.4-.1zm.1-.7zm-.3-.8zm-.2-.1zm-.4-2.3zm-.5-.6zm.2.5zm-.3-1.1H45.6 45.3zm-.4 0l.1.2h-.1v-.2zm-.4-.1zM44 3.7l.1-.2.1-.2.1-.2.1-.2v-.1H44.7v.1l.1.2v.2l.1.2.1.2V4l-.1.1H44.1L44 4V3.7zm-1.4.4h-.2V4l.1-.1h.1v.2zm.1.1l-.2.1.2-.1zm-.2.1zm.1.5l-.1-.3v.1l.1.2zm0-.2zm.1.1zm.5-.2zm-.1-.4zm.2.3l-.1-.2v-.1h.1V4.4zm.2-.5zm-.1-.7l.2-.1-.2.1zm-.1 0l.2.2.1.1h-.1l-.1-.1h-.1v-.2zM43 4zm-.6-.1l.2-.1h.5V4.1h.1v.1h-.1l-.3-.1v-.2l-.1-.1h-.1l-.2.1z" transform="translate(40 1)"/><path d="M44.6 3.6v-.5h-.1l-.1.3-.1.2-.1.2h.2z" transform="translate(40 1)"/></g></g></g></svg>
