<svg class="{{ include.css-class }}" width="145" height="50" viewBox="0 0 145 50" xmlns="http://www.w3.org/2000/svg"><title>Para cenar</title><g><g><g><path fill="#fff" d="M121.5 33c2.5-8 5.1-16 7.6-23.8C92.4-3.1 53-3.1 16.3 9.2c2.5 8 5.1 16 7.6 23.8 31.6-10.5 65.9-10.5 97.6 0z"/><path fill="#fff" d="M101.9 37.7C113.5 39 134.5 44 145 50c-4.8-9.5-10.5-18.7-10.5-18.7s4.6-3.8 10-7.6c-4.7-1.8-9.6-3.4-14.4-4.8L124.7 36l-22.8 1.7zM14.9 18.9c-4.9 1.4-9.7 3-14.4 4.8 5.4 3.8 10 7.6 10 7.6S4.8 40.5 0 50c10.6-5.9 31.5-10.9 43.1-12.3L20.3 36l-5.4-17.1zM101.5 38c.2-.3-.3-.2-.1-.4-.2 0-.3-.1-.3 0-.1-.1-.1-.2-.2-.3 0 .2-.2.1-.3.1-.1-.3-.4 0-.6-.2 0 .2-.2.2-.4.1-.5.3-1.7 1.6-.6 2 .1-.1.2-.2.3-.2-.2-1.2 1.3-1.2 1.9-.6.4.9 0 1.7-.8 2.4-.3 0-.6.1-.7.3-.1-.1-.4-.1-.5-.1.1 0-.1.1-.1.1-.2-.1-.4-.2-.7-.3-.1.1 0 .2-.1.2 0-.1-.2 0-.2 0-.1-.5-.6-.3-.9-.3 0-.2-.2-.2-.3-.3-.1 0-.2.1-.3 0s-.1-.3-.3-.3c-.3 0-.2.3-.5.3-.1 0-.1 0-.1-.1 0-.2.2-.3.1-.5-.2-.1-.2.1-.4.1.1 0 .2-.2 0-.3-.6.1-1.1-.8-1.9-.8 0 .1-.1.3-.2.3 0-.1-.1 0-.1-.1s.3-.2.1-.4c0 .1 0 .2-.1.1.1-.3-.1-.3-.1-.5-.9-.3-1.4-.9-2.4-1 0-.1-.1-.1 0-.2-.6 0-.9-.6-1.6-.6 0-.2-.1-.2-.1-.4-.3-.1-.8-.1-.9-.5-.2 0-.2.1-.4.1 0-.2 0-.3.1-.3-.7-.1-1.5-.4-2.1-.8-.2 0-.2.1-.4.1-.6-.3-1.7-.6-2.3-.4 0-.2.2 0 .2-.2-.2 0-.2-.1-.4 0-.5-.6-1.8-.3-2.6-.3 0 .1-.1.2-.1.2.2 0 .3.3.1.4-.1-.1-.3-.3-.1-.4-.7-.1-1.4.2-2.2.4v.3c-.3-.1-.3.1-.3.2-.1-.1-.1-.2-.2-.2-.2.1 0 .3-.2.5-.2-.1-.2.1-.4.1 0-.1.1-.1 0-.2-.6.4-1 1-1.5 1.4-.4-.4-.9-.7-1.3-1.1 0 .2-.2 0-.2.1 0-.1-.1-.1-.1-.2.1 0 .1-.1.1-.2-.5-.4-1.1-.2-1.5-.7-.6-.2-1.2-.3-1.9-.5 0 .1-.1.4-.2.3.1-.1.2-.2.2-.3-.1 0-.1-.1-.1-.2-.6.1-2-.3-2.5.2-.1 0-.2 0-.1-.2-.5 0-.7.2-1.1.2-.1.1.1.2 0 .3 0-.2-.1-.2-.1-.2-4.2 1-7.3 3.4-10.4 5.1 0 .3-.5.2-.6.5 0-.1-.1-.1-.2-.1-.1.2-.2.3-.3.4-.1 0-.1-.1-.2-.2-.1.4-.4.3-.9.3-.5.6-1.5.6-2.1.7l-.2.2c-.2-.1-.2-.1-.4-.1-.8.5-1.6-.6-2.2-.8-.1-.7-.2-1.6.6-2 0-.2-.2-.2-.1-.4.1.1.1 0 .3 0 .1.1 0 .1 0 .3 1-.2 1.5.3 1.6 1.2.2-.1.3 0 .6 0 .2-.3 0-.8 0-1.1-.1-.1-.1 0-.3 0-.1-.2-.2-.3-.1-.5-1.3-.6-2.6-.4-3.2.8 0 .4-.4.8-.1 1.1-.1 0-.2 0-.2.1.3.8.7 1.8 1.4 1.7 1.9 1.6 5.4-.5 7.2-1.1.1-.4.7-.4.9-.4.1-.3-.2-.2-.2-.4h.5c.1-.2-.2-.3.1-.4.1 0 .1.2.2.1.1 0 0-.3.1-.3.3.4.6-.1.9-.1.1-.2.1-.4.3-.5.5.1.5-.4 1-.3.7-.6 1.6-1 2.6-1.3 1.2-.5 2.9-1.3 3.9-1.3-.1.1.1.2 0 .2s-.1-.1-.2-.2c-.1.1-.2.2-.2.4-.1.1-.1-.1-.2-.1-.2.4-.6.6-.6 1.1-.4 0-.2.6-.5.7.1.4 0 .8 0 1.1.1-.1.2.2.4.2 0 .1-.1.1-.2.1 0 .5 0 .8.3.9-.1.8.5 1.3 1.2 1.5-.1.5.9.3 1.1.7.7-.1 1.1-.1 1.6-.1.2-.3.6-.4 1-.5.3-.4.4-1 .9-1.2-.1-.2.1-.4-.1-.5.3-.1.3-.8 0-1 .2-1.7-2-2.4-3.2-1.7-.2.3-.4.7-.8.8-1.2 1.5 2.2 3.9 2.3 1.6-.1.1-.2-.1-.5 0-.1.4-.9.1-1 0 .1-.3-.2-.6-.2-.9.5 0 .5-.5.8-.7 1.1-.4 1.6.4 2.2 1-.1 0-.1.1-.1.2.1.2.2-.2.2 0-.3 1.6-1.5 2.9-3.3 2.4 0-.3-.4-.2-.5-.5H67c.1-.1.1-.2 0-.3-.2-.1-.3-.1-.4-.1 0-.1.1-.1.1-.2-.2-.2-.3-.6-.4-.9-.1-.1-.3 0-.3-.2.1-.1.1.1.2.1.1-.6.1-1.2 0-1.7.1 0 0 .2.1.1.1-.5.6-.8.7-1.2 0-.1-.1.1-.1 0 0-.2.1-.2.2-.3.1 0 .2.1.2.2.6-.4 1.4-.7 1.9-.9.2.5.8.1 1.1.4.1-.1.2-.2.3-.1v-.3c.1 0 .1.1.1 0-.2.4.6.7.9.5.1.2.6.4.9.3v.3c.3.1.5 0 .8.1 0 .7 1 .7 1.2 1.2.1.3 0 .3 0 .5-.3.1-.2.5-.4.7 0 .2.2-.1.1.2-.1.1 0-.1-.2 0 0 .1-.1.1-.2.2 0 .2.1.2.1.4 0 0-.3-.1-.3 0 0 .5.1 1 0 1.4.2.3.5.4.6.7.3-.1.5 0 .7.2 1.2-.2 1.9-1.2 1.4-2.5H76c.4-.5-.3-1-.6-1.3.2-.2.2-.5.5-.6 0-.2-.2-.2 0-.3 0 .1.1.2.2.2.3-.5.9-.7 1.2-1.2.1.1.2 0 .3 0 .3-.5 1-.3 1.4-.7.3 0 1 0 1.1-.3.2 0 .1.2.3.2.8-.4 1.6.2 2.4.3 0 .1-.1 0-.1.1 1 .6 1.4 2.1 1.5 3.4-.1 0-.1.1-.1.1.1 0 .1.1.1.2-.2.3-.5.4-.6.8 0 .1.2.2.2.4-.3-.1-.3.1-.5 0 0 .6-1.1.4-1.1.9-.3-.1-1-.2-1.4-.3-.1-.2-.3-.4-.7-.3-.2-.6-.4-1.1-.6-1.7.2-.2.4-.4.3-.7.1-.1.2 0 .3-.1.3-1.1 2.3-.6 2.2.6-.2.1-.3.3-.1.5-.3.1-.4.1-.7.3-.2-.1-.5-.2-.7-.2-.1.1-.3.2-.3.3 0 .2.1.2.1.5.2.2.8 0 1 .2.6-.2 1.1-.5 1.3-1 0 .1 0 .1.1.1v-.1c-.1-.1-.2-.6.1-.8-.3-.3-.3-.8-.5-1.1-.5-.4-1.3-.9-2.1-.5-.1-.1-.2-.2-.4-.1-.7.6-1.2 1.2-1.4 2.2.1.3.1.7 0 .9.7 1 1.6 2 3.2 1.9 0-.2 0-.2.1-.3 0 .3.4.2.5.3.1-.1.2-.3.5-.2.3-.3.5-.6.9-.6 1.5-1.6.8-4.4 0-6 .2.5.9.6 1.2.6-.1 0-.1-.3 0-.2.2.1.2 0 .4 0 .1.2-.1.2-.1.3.3.3.9 0 1.1.5 1-.1 1.4 1 2.5 1-.1.4.3.2.3.5 1 .1 1.6.7 2.5 1.1 0-.1.1-.1.2-.1.4.5 1 .7 1.7 1-.1.1 0 .1 0 .2.5-.1.5.4.9.2.2.4 1 .8 1.2.4.2.1.3.6.8.6.1-.2-.2-.1-.1-.3.2 0 .3.1.4.2l-.1.1c.1.1.3.3.5.1.1.1.2.3.3.4.2 0 .1-.2.3-.2.1 0 .1.2.2.2.5-.1 1.1 0 1.5.1.5-.2 1-.3 1.6-.5.2-.4.4-.7.8-.9.2-.6.1-1.2.3-1.7-.5-.2-.2-1.2-.8-1.1zm-25.6 1.2c0 .2-.2.3-.2.4.1.2.2.3.2.5-.4.3-.9.4-1.2.4 0-.3-.3-.6-.1-1 0-.1-.1-.2-.1 0 0-.2.3-.5.5-.6 0-.1-.2-.1-.1-.3.1 0 .1.1.1.2.1-.1.1-.2.3-.1.2.1.3.5.6.5z"/></g><g><path d="M3.7 17.3v-.2l.1-.3.1-.2.1-.2.1-.2.2-.2.2-.2.1-.2.2-.2h.3l.2-.1.3-.1h.3l.2-.1H6.4v-.4l-.3-.1h-.2l-.1.1h-.3l-.3.1H5l-.3.2-.2.1-.2.1-.2.2-.1.2-.2.2-.2.2-.1.3-.1.2-.1.5v.8l.1.3.1.2.2.5.2.2.1.3.2.1.1.3-.1-.3-.2-.3-.1-.2-.1-.3-.1-.2v-.3l-.1-.2v-.3z" transform="translate(41 1)"/><path d="M5.1 23.2h1.2l.6-.1.3-.1.3-.1.5-.2.6-.2.5-.2.5-.3.2-.2.2-.2.4-.4.4-.5.1-.1v-.2l-.1-.1-.2-.2-.4-.3h-.3l-.3-.3-.4-.3-.3-.2h-.4l-.2.2-.3.2-.3.2-.3.2-.3.2-.3.1-.3.1-.3.1h-.3l-.6-.1-.9-.2-.3-.1-.2-.1-.2-.2-.2-.2-.2-.3-.1-.3-.1-.3-.1-.3-.1-.3v-1.2l.1-.3.1-.3.1-.3.2-.2.2-.2.2-.2.2-.2.2-.2.3-.1.3-.1.3-.1.3-.1H6.5l.1.1.1.1.1.4v.6l.1.4.1.1H7.6L8 16l.3-.1.8-.1.3-.1h.1l.1-.1V15l-.1-.3-.1-.3-.1-.4-.1-.4V13l-.1-.4-.2.1-.4-.3-.4-.2-.5-.2-.5-.1-.5-.1h-1l-.5.1-.6.1-.6.2-.5.2-.5.2-.5.3-.5.4-.4.4-.3.5-.4.4-.2.2-.1.3-.1.3-.3 1.1-.2.5v.6l.1.6.1.6.2.6.1.3.1.3.2.5.3.5.4.5.4.4.5.4.5.3.5.3.6.2.6.1h.6zm0-9.5l.1-.1-.1.1zm.1.5zm.5-.7l-.1-.1.1.1.1-.1-.1.1zm.5-.2l-.1.1.1-.1zm.1.1l.1.1-.1-.1zm0-.8l.1-.1h.1v.2l-.2-.1zm.6 1.3l-.2-.2v-.2h.1l.1.1V13.9zm.4 0H7 7.3zm0-.1l-.2-.2.1-.2.1.1.1.1-.1.2zm-.2-.7zm.4.3v.2h.1v.1l-.3-.2.2-.1zm-.1-.4zm.3 1.2zm.4-.3l-.3.1h-.1l.2-.1h.4v.1l-.2-.1zm.5.6v-.2.2zm-.3-.9l.2-.1v.1h-.2zm-.2-.4zm-.1.2l.1.2v.1l-.1-.1v-.2l-.2-.1-.1-.1h.2l.1.2zm-.1-.4zm-.2-.3l-.2.2v-.2h.2l-.2-.1.2.1zm-.7-.4h.5v.1h-.2v.2h-.1l-.1-.1-.1-.2zm.1.5H6.8l.1-.1.1-.1.1.2zm-.4-.3l.1-.1.1.1v.1l-.2-.1zm-.2.6l.2.1.1-.1v-.2H7.1V13.2h-.2l-.2.1h-.2l-.1.2v.1l.1.1.1.1-.2-.1-.1-.1V13.3h-.1v-.1l.3-.1zm-.8-.9l.2-.1H6v.1h.1l.1.1h.1v.1h-.4l-.1.1h-.1V12.2zm-.2.3l.1-.1h.1v.1h-.2zm-.3.1l.1.1v.2l.1.1h.1v.1l-.1.1V13l-.1-.1-.1-.3zm-.4.6l.2-.1.1.2H5l-.2-.1zm-.1-.5zm-.2.6l.1.1-.1-.1zm-.3.4l-.1.1.1-.1zm-.3.5zm-.5-.4zm-.4 1zm0-1.1l.1.1v.1l-.1-.2zm-.6 1.4l.1.1v.1l-.1-.2zm-.3-.6l.1.1v.1l-.1-.2zM2 15v.2h-.1v-.1L2 15zm-.1 1.1zm-.8 2.7zm0-1.5l.1-.2v-.2h.1l.1.1-.1.1.1.1-.3.1zm.2 2.1l-.1-.1.1.1zm.3-1.5l-.1.1V18.3h-.1v-.1h-.1v-.1l.1-.1.2-.1zm.3.8l-.1-.1.1-.1v.2zm.1-1.6h-.2v.2l-.1.1h-.1v-.1h.1v-.1l.1-.1v-.2h-.1H2v.4-.2zm.1.8l.2-.1-.2.1zm.1 1.4v.2-.2zm.3 1.5l-.1.1.1-.1-.2-.1.2.1-.1-.2v-.1l-.1-.1-.2-.1-.1-.1h.2l.1.1.1.1v.1l.1.3zm.2-.3l.1-.1-.1.1zm0-6.2zm.1-.2L3 14h.2l-.1.1H3v.1l-.1.1H3v.1h-.1v-.1l-.1-.2z" transform="translate(41 1)"/><path d="M11.3 20.7h-.1v.1l-.1.2-.2.3-.2.2-.3.2-.2.2-.2.2-.3.2-.2.1-.3.2-.3.1-.2.2-.9.3-.5.2h-.4l-.3.1h-.3l-.6.1h-.3l-.3-.1h-.3l-.3-.1H4h.1l.3.2h.2l.3.1h.3l.3.1.6.1H6.7l.3-.1h.3l.4-.1.3-.1.3-.1.5-.2.3-.1.2-.1.3-.1.3-.2.3-.2.2-.2.2-.2.2-.2.3-.2.2-.2.2-.3.1-.2V21l-.1-.1zM9.6 13.6v.3l.1.4.1.3.1.4.1.4v.2l-.1.2-.1.2h-.1l-.1.1h-.1l-.4.1-.2.1h-.6l-.3.1h-.2l.1.2v.1l.1.1h.2l.3-.1h.4l.3-.1.3-.1h.5l.2-.1h.1l.1-.1v-.1l.1-.1-.1-.3v-.3l-.1-.3-.1-.5-.1-.4v-.6l-.1-.4-.1-.1-.2-.2-.2-.1v.1zM22.7 20.8v-.6l-.1-.4-.1-.4V19l.1-.4-.1-.3v-.1l-.1-.1V18H22V18.6l.1.3v.4l.1.7v.2l.1.3v.5l-.1.1v.1l-.1.1H22l-.1.1h-.1l-.4.1-.2.1h-.3l-3 .2h-.8l-.3.1-.5.1-.9.1h-1.1l-.6.1h-.3l-.2.1v.2l.1.1h1.2l.4-.1h.5l.9-.1h.9l.5-.1.3-.1h.8l2.6-.2.4-.1h.5l.3-.1h.2V21zM16.7 13.9l.1-.1h1l.4-.1h.1v-.5H18l-.3.1h-.4l-.4.1h-.8v.3l.1.4v.3h.5l-.1-.3V14z" transform="translate(41 1)"/><path d="M14 21.8h.5l.7-.1.8-.1h.3l.5-.1h1.1l2.6-.2h.7l.3-.1h.1l.1-.1v-.5l-.1-.4.2-.4v-.3l-.1-.4V18l-.1-.3V17.4l-.1-.1H20.9l-.5.1H19.2V18.5H18.3l-1.1.1-.4.3-.4.1h-.1v-1.4l.1-.1.1-.1h.2l.5-.1H18.4l.3-.1h.1l.1-.1v-.4l-.1-.4v-1l-.1-.3v-.1h-2.5v-.2l-.4-.4v-1.1l.1-.1h.1l.4-.1.9-.1.4-.1.5-.1h.4v.7l.1.2v.1h1.9l.3-.1h.1l.1-.1v-.7L21 12l-.1-.4-.1-.6-.1-.6V10h-.4l-.5.1-.4.1h-.6l-.6.1h-2.3l-.6.1-.9.1-.2.1-.4.1h-.3l-.8.1h-.8l-.3.1h-.1v1l.1.6.1.4.1.3v.1h.4l.3-.1h.4v.2l.1.3v1.7l.1 1.1.1.7.1.4.1.7V19.2l-.1.1h-.1l-.4-.1h-.6v2l.1.3v.1l.1.1h1l.6.1zm6.8-1.8h.2-.2zm-.1 0v.3V20zm-.2-.4zm-.2.9h-.2.2v-.2.2zm-1.1.1v-.2h.2v-.7h-.1l-.1.1h-.1l-.1-.1v-.2l.1-.1h.2l.1-.1.1-.1h-.1l-.1.1-.1.1h-.1v-.1l.1-.1h-.1V19h.1v-.1h.6v-.1h.1v.5h.2v.2H19.8v-.1l.1-.1v-.1h-.1v-.1h-.1l-.1.1v.1l.1.1h.2l.1.1V19.8l-.2.4v.2h.1v.1h.2v.1l-.2-.1h-.1v-.1h-.2l-.2.1-.2.1zm-1.2 0zm.5.2zm0-.4zm.1 0zm.3.5l.1-.2-.1.2zm.2-1.1l-.1.2h-.1.2v-.2zm-.6-.7l.1.2h.1v.4l-.1.1h-.2v.1l-.1.1h-.1l.1-.1v-.1l.1-.1v-.1H18l.5-.5zm-.1.7h.2-.2zm0 .4zm-.3-1.2zm-.1.4h.2v.1l-.2-.1zm0 .8l.2-.1h.1l-.1.1v.2h-.1l-.1-.2zm-.4.2zm0-.4zm-.1-.7h.2l.1.1v.1h-.1l-.2-.2zm-.3 1.4H17.5l-.1.1-.2-.1zm-.4-.5zm-1.5.1v-.2.2zm.4-8.5zm-.3.6l.1-.2h.1l-.2.2zm0 4.5v.2h-.1l.1-.2zm0 1zm-.1-2.4l.1.2-.1-.2zm-.2.8h.2v.1l-.2-.1-.1.2.1-.2zm-.2 2.8l.1.2-.1.1h-.1v-.1l.1-.2zm-.1-2.2zm0-1.6zm-.1-2.6l.1.2h-.2l.1-.2zm-.2-.9zm0 7l.1.2-.1-.2h-.2l-.1-.1.1.1h.2zm-.3-1.5h.2v.2l-.2-.2zm-.6-4.7l.1-.2-.1.2zm0 .6h.2-.2zm-.1 1zm-.1-.4z" transform="translate(41 1)"/><path d="M19.7 14.5v.1h.1l.4.1.3-.1 1-.1h.2l.1-.1h.1v-1.2l-.1-.8-.1-.8-.1-.6-.1-.1-.1-.1h-.2l.1 1.1v.5l.1.5V13.7l-.1.2v.1l-.2.1h-.2l-.3.1h-.7l-.3.1v.2zM17.1 18h.1l.2-.1h.7l.3-.1h.3l.2.1v-.2l.1-.3.1-.1.1-.1h.2l.2-.1V17l-.1-.1v-1l-.1-.3v-.1h-.2l-.1-.1h-.2v.1l.1.3v1.1l-.1.2-.1.1-.1.1v.1h-.2l-.3.1h-1l-.3.1h-.4v.5l.1.2v.2h.2l.2-.1V18.1zM33.7 20.8h.6l.6-.1h.1v-.2l.1-1.1-.1-.6v-2.9l-.1-.6-.1-.6v-1.2l-.1-.6v-.6H35.4l.4-.1h.2v-2.1l-.1-.1H31.5l-.6.1h-.1v.2l-.1.5v1.7H31.9V14.4l.1.5v.6h-.2l-.1-.1h-.1l-.3-.4-.5-.5-.3-.5-.3-.5-1.5-1.7-.6-.9-.3-.4-.4-.4-.1-.1h-3.1l-.6.1-.2.1-.1.2v1.5l.1.5v.2l.1.1h.9l.1.1v.2l.1.5v4.1l.1.6v.5l.1-.3-.1.1h-1.1l-.1.2v1l-.1.5v.5l.1.2.2.1h2.4l1.2-.1.6.1h.6l.2-.1.1-.2v-.5l-.1-.5v-1.2l-.1-.1h-.9l-.1-.1v-2.9l.1-.1h.2l.1.1.1.1.4.4.4.4.3.4.3.5.3.4.4.4.3.4.3.4.3.4.3.4.3.4.4.4h.2l.6.1.8.3zm2.1-9.6zm-.3.4zm-.6-.1v.2h-.1l.1-.2zm-.5-.3zm-.2.6h.2-.2zm-.4-1l.2-.1v.1h-.2zm-5.1 2.6h-.2v-.1l.2.1zm-.7-1l.2.2-.1.2H28v-.4zm-.4-.1h.2l.1.1h-.1l-.2-.1zm0 .3v-.2h.1l.1.2-.1.2-.1-.2zm0-.8l-.2.1v-.1h.2zm-.3.1l.1.2v.1h-.1v-.3zm-.1.6l.2.1-.1.1-.1-.2zm.1.6zm-.4-1h.3l.2.1H27l-.1-.1-.1.2.1-.2zm0 .4l.1.2.1.1-.2-.1v-.2zm.1.7zm-.4-1.1zm.1.6zm-.1-.3zm-1.1 2.3zm-.3 1.3v-.2l.1-.1h.1v.2l-.2.1zm.2 1.7l-.1-.2.1.2zm.3-.9h-.2l-.1-.1v-.1h.2l.1-.1v.3zm0-4.7zm.2 6.1zm.2-1.9h-.2v-.1l.2.1zm0-2.9l-.1-.2.1-.1h.1v.1l-.1.2zm.3-1.7l.1.3v-.1l-.1-.2zm.4 4l-.2.1-.1-.1V15.4l.1.1.2.2zm0-1.7l-.1-.2h-.2l-.1-.1v-.1.2h.1l.1.1.2.1zm.1-.6l.2-.1h.1-.1l-.2.1zm.2 3.1zm.3-2.8H27.1v-.1h.1l.2.1-.1-.2h.1v.2zm.1-.3h.4v.1h-.1l-.3-.1zm.5.3zm-.4 0v-.2h.1l-.1.2zm.5.4V14.4H28l-.2-.1v-.4h.1v.1l.2.1.2-.1-.2.1zm.1-.8l-.1-.2H28v.1h-.2V13l.2.1.2-.1h.2l.1-.1.1-.1V12.5l-.1-.1v-.1l.2.1.1.1-.1.2v.1l-.1.1-.1.1-.1.1v.1h.2v.1h-.1-.3zm.1 1zm.4 0l-.3.3h-.1v-.1l.1-.1h.2l.1-.1h.2-.2zm.2.5l-.1-.2.1-.2v.4zm.3-.7l-.1-.2h.1v.2zm.2.4zm.1 1zm.1.1zm.9.7h-.2v-.1l.1-.1.1.2zm.4 1.3zm.4 1l-.1-.2v-.1h-.1v-.1h.1v.1l.1.1v.2zm.1-2.2h-.5.5zm.5 1H32.2v.2H32l-.1-.2zm0 1.6V18.7v.3zm.1-.7l-.1-.2h.1v.2zm.2 1.5zm.7-6.8zm0 6.8l-.1-.2.1.2zm.1-8.1v-.2.2zm0 .6l.2-.1v.2l-.2-.1z" transform="translate(41 1)"/><path d="M36.8 12.8h.1v-1.1l.1-.5-.1-.4v-.2h-.4V12.2l-.1.2h-.1l-.1.1h-.6l-.4.1v.2l.1.6v1.8l.1.6-.1.6V18.1l.1.6v.5l-.1 1.3v.4l-.2.1-.2.1-.6.1h-.6l-.6-.1h-.3l.3.4.1.1H34.5l.5-.1.6-.1h.1l.1-.2.1-1-.1-.6V16l-.1-.5.1-.7v-.6l-.1-.6V13H36l.4-.1h.3zM28.2 17.9h.5v-.4l-.1-.5v-.5l-.2-.4-.2-.1v.2l.1.5v1zM29.8 19.9v-.7l-.1-.1h-.3V20.9l-.1.2-.1.1H25.1l-.7.1v.2l.1.1.1.1h2.5l1.3-.1.6.1.6-.1h.2l.1-.2v-.5l-.1-.5zM46.1 21.4h1.2l.6.1.6.1 1.1.1H49.9l.1-.1v-2.2l-.1-.1-.1-.1-.1-.1h-.9l-.1-.1v-.5l-.2-.5-.2-.5-.2-.5-.1-.5-.2-.6-.2-.5-.2-.5-.2-.5-.2-.5-.2-.6-.2-.5-.2-.5-.2-.5-.3-1v-.1l-.1-.1h-.2l-1-.1h-1.1l-.5-.1-1-.1-.5-.1h-1.2l-.1.1v.2l-.1.9v1.1l.1.1.1.1h.6l.1.1.1.1v.1l-.3.3-.2.5-.3.5-.3.4-.2.5-.2.5-.3.4-.3.4-.3.5-.3.4-.4.8-.1.1h-1l-.1.1v2.1l.1.1.1.1h.1l1.2.1 1.2.1 1.2.1 1.2.1h.1l.1-.1.1-.1V19l-.1-.1-.1-.1h-.5l-.1-.1-.1-.1v-.2l.1-.2.1-.2.1-.1h1.2l1.2.2h1.3l.1.1.1.1V18.6l.1.2v.4l-.1.1H45l-.2-.2v1l-.1.7v.2l.1.1h.2l.6.1.5.2zm2.1-.7zm-.7-.3v-.2.2zm.3.4zm-.3-1.8h.2v.1l-.2-.1zm-.1.7zm-.3-1.7l.2.1.1.1H47.1V18zm-.4.9zm.2.8zm-.2-2l.1.2h-.1v-.2zm-.4-.5zm-.1-3.2l-.2-.1v-.1l.2.2zm-.1-1.5zm-4.4 2.8zm0 .3H41.4 41.7zm-.3-2.4zm-.1.8l.1.2h-.1V14zm-.1 1.4l.1.2V15.9h-.1v-.5zm-.3-.7zm-.7.6l.1-.2h.2l.1-.1.1.1H41V14.8h.1v.2l-.1.1-.1.3.1.1h.1v.2h-.2v-.2h-.1v-.2l-.2-.1h-.1l-.1.1-.1.1-.1.1v-.2zm.9.6zm-.8.2V15.8 16.1zm.1-.4v-.3h.2v.1l-.2.2zm.1.3l.1-.2h.2-.1l-.2.2zm-.5.5zm.1 0l.2-.1v.1h-.2zm.3.9zm.2-.6l-.2-.1v-.5l.1.1.1.1.1.1-.1.3zm0-.4v-.2h.1-.2l.1.2zm.2.3l.2-.2v-.1l.1-.1v.2l-.1.1v.1h-.2zm.1.4zm.3-.3zm0-.6zm.1.2zm.3-.1h-.2v-.2H41.7l-.1.2zm.2-.2l-.2-.1h-.1v-.2h.1v-.1h.1l.1.1v.3zm.3-.9l-.3.2v.1h-.1V15.2l-.1-.2H41.9l.1-.1h.1v.3zm-.3-.5zm.3-.1h-.2l-.1-.1-.2-.2v-.1l.1-.1v.2l.1.1.3.2zm.1-.6h-.3H42.2zm2.1-2.1l.1.2h-.1v-.2zm.2 1.2zm-.8-1.4h.2-.2zm-.3.4l.1.2h-.1v-.2zm-1.1 1.6zm.2.6zm0-1.1zm2 2.1l-.1.2h-.1l-.5-.1H43l-.1-.1-.1-.1V15l.2-.3.2-.4.2-.4.1-.4.1-.1H43.9l.1.1.1.4.1.4.1.4.1.4v.1l.1.1zm.3-2.8zm.5.4l-.2.1v-.1h.2zm.1-1H45l-.1-.1h.1l.1.1H45.4zm.4 1.9l-.2-.1h-.1l-.1-.1h.1l.1.1.2.1z" transform="translate(41 1)"/><path d="M43.7 13.9l-.1.4-.2.4-.2.4h.4l.3-.5.1-.2-.2-.6zM44.9 18.7h.1l.2-.1v-.1l-.1-.2H44l-1.2-.2h-.5l-.4-.1-.1.2-.1.1.3.1h.2l.1.1 1.1.1h.6l.6.1.1.1zM42.9 19.7l-.1-.1h-.1l-.1-.2v.2l-.1.4v.8l-.1.2v.2l-.1.1-.1.1h-1.6l-1.3-.1-1.2-.2h-.3V21.4l.1.1.1.1h.1l1.2.1 1.2.1.9.1H42.8v-.1l.1-.2v-.7l.1-.4v-.6zM50.6 20.2v-.1h-.1l-.1-.1h-.1v.9l-.1.5V21.7l-.1.1-.1.1H49.7l-.1.1-.6-.1-1.2-.1h-.6l-.6-.1h-.8V22l.1.1h.1l.6.1.6.1h1.2l.6.1.6.1h.8l.1-.1.1-.1v-.5l.1-.5v-1zM47.5 13l-.2-.6-.3-1-.1-.1-.1-.1h-.4l.1.2.2.5.2.5.2.5.5 1.1.2.5.4 1.2.1.6.2.5.2.5.1.6.2.4.2.4h.4l-.3-.9-.2-.5-.1-.6-.2-.5-.2-.5-.2-.6-.2-.6-.5-1zM59.3 15.4H59.6l-.1-.2-.1-.1-.1-.1-.1-.2-.2-.1H58.4l-.4-.1h-.3l-.2-.1-.2-.1h-.1v.3l-.1.3v.2l-.1.3-.1.5v.4l.2.1h.2v-.1l.1-.4v-.2l.1-.2v-.4l.1-.1h.1l.4.1h.4l.3.1h.3zM63.1 22.2l-.2-.1-.1.4v.5l-.1.5-.1.1V23.9l-.1.2h-.9l-.5-.3-.5-.1-.5-.1-1-.1h-.4v.4l.6.2.5.1.5.1h.5l.5.1.5.1.6.2h.5l.1-.1v-.1l.1-.6.1-.5.1-.5v-.6z" transform="translate(41 1)"/><path d="M59.6 23.2l.5.1.5.1.5.1.5.1.5.1.1-.1v-.2l.1-.5.2-1v-.7l-.2-.1-.5-.1-.5-.1h-.1l-.1-.1-.4-.7-.3-.7v-.2l.1-.1.1-.1.6-.2.5-.3.5-.5.3-.5.3-.6.2-.6.1-.5v-.5l-.1-.5-.2-.5-.2-.5-.3-.4-.4-.4-.4-.3-.4-.2-.5-.2-.5-.2-1.5-.3-1-.1-.5-.1-.5-.1-.5-.1-.7.1-1-.2-1-.2h-.1l-.1.1-.1.1v.1l-.1.5-.3.9-.1.5v.2h.1l.3.1.8.1v.9l-.1.4-.1.5-.1.5-.1 1.1-.1.5-.1.5v.6l-.1.5v.2l-.4.1h-.5l-.4-.1h-.1l-.1.5-.2.6-.1.5-.1.5-.1.1v.1l.5.1.5.1 1 .2 1.1.1.5.1.5.1.5.1H56.5v-.1l.1-.4.1-.4.1-.4v-.7h-.1l-.4-.1-.4-.1h-.1l-.1-.1v-.1l.1-.8.1-.2H56.2l.1.1h.3l.2.1.2.1.1.1.5.9.2.5.2.5v.2l-.1.6-.1.6v.2l.1.1.5.2.5.1.7-.2zm1.8-.5zm-.5.3zm-5.6-10.5h.2-.2zm.1 4.1zM54.2 20l-.2-.2v-.1.2l.2.1zm.1-2.4zm.1 2.9l-.1-.2.1-.1v.3zm.1-1.9l-.1-.2v-.1l.1-.1h.1v.2l-.1.2zm.4-.6zm.5.4zm0-.6h-.2.2zm.3-.8zm.2-4.7l-.2.1.2-.1zm3.7 10.3l-.2-.1h-.2v-.1h.4v.2zm.1-2l-.2-.1H59.2h.1l.4.1zm.7 2.1l-.1-.2.1.2zm.6-6h.2-.2zm.4-1.2H61.1v-.1h.1l.2.1zm0 .3zm-.3-.1l.2.2H61l.1-.2zm.2.4zm-.1 1.5zm.2-1l-.2-.2-.1-.1.1.1h.1l.1.2zm.1-1.2v-.2h.1l-.1.2zm-.2-.8l-.2-.1v-.1l.2.2zm.1.4zm.3 1.9zm.4-1zm.1-1.3l.2.4v.1H62.1v.1h.1v.1h-.1l-.1-.1-.1-.1V15h-.2v-.1l.1.1h.2l.1.1h.2v-.2l-.1-.3.1-.2-.1.2zm-.3 0l.1.2-.1.1-.1.1h-.1l.2-.4zm-.3-.4l.2.1v.1l-.2-.2zm-.1.2l.1.3-.1.1v-.1l-.1-.1.1-.2zm0-.7zm-.2.2l.1.2h-.1v-.2zm-.5.2l.3-.1.2.1h-.5zm.1.3l.1.2v.1h-.1V14.4zm0 .4zm-.1.2h.2v.1l-.2-.1.2.1-.2-.1-.2.1V15h.2zm-.1-.3zm-.2-.3zm-.1-.7l.1.2-.1-.2zm0 3.4h-.2.2zm-.2 5zm-.1-.6zm-1.8-8.3zm-.8.1l-.2.1v-.1h.2zm-.4-.4zm-.4-.4l.2-.1v.2l-.2-.1zm.3.9h-.2.2zm1.5 6.3zm-.1-2.7h-.7l-.3-.1H56.6l-.1-.1v-.7l.2-.7.1-.3v-.2l.1-.2.1-.3v-.2h.2l.3.1.2.1.2.1.3.1h1l.3.1.2.1.2.2.1.2.1.2.1.2v.5l-.1.2-.1.2-.1.2-.2.2-.2.1-.2.1h-.2l-.7-.1zm.5 3.3h.2v.1l-.2-.1z" transform="translate(41 1)"/><path d="M63.7 15.9l-.2-.5v.6l-.1.5-.2.7-.2.6-.4.6-.6.6-.5.2-.6.2.2.6.6-.2.5-.4.6-.5.4-.6.2-.6.2-.7.1-.6V16zM57 19.6h-.1l-.2-.2h-.3l-.1.6h.3l.1.1.1-.3v.1h.4zM57.6 21.5l-.1-.1h-.2l-.1.3v.4l-.1.4-.1.2v.2l-.1.1h-.5l-.5-.1h-.5l-.6-.1-.5-.2-1-.1-1.1-.2h-.3v.2l-.1.1.1.1.5.2h.5l1.1.2 1 .1.6.2.5.1h.5l.5.1.2-.1h.1v-.1l.1-.4.1-.4.1-.5v-.6zM22.8 2.6v1l-.1.3-.1.4-.2.3-.3.2-.3.2-.3.2-.3.1-.3.1-.3.1h-.3l-.3.1h-.7V6l.2-.1h1l.3-.2.3-.1.4-.1.2-.1.3-.2.3-.2.3-.2.2-.3.1-.3.1-.4.1-.4-.1-.3v-.3l-.1-.4-.2-.2-.1-.2.1.2zM20.2 7.6v.1h-.1l-.1.1h-.7l-.3.1h-1l-.6.1-.3.1v.1h.1v.1h.4l.3-.1h.7l.6-.1h.3l.3-.1h.7v-.1h.1v-.2l-.1-.4V6.7l-.1-.1h-.2v.2l.1.3V7.4zM19.1 3.7H19.4l-.1-.5v-.1h.1l.1-.1h1v-.1l-.1-.1h-.2l-.1-.1H20l-.3.1H19l.1.7z" transform="translate(41 1)"/><path d="M16.1 2.3l.1.3v.1h.7v.8l.2.6v.6l.1.6V6.2h-.6l-.1.1V6.6l.1.3V7.6h.5l.3-.1.6-.1h.6l.3-.1H19.9V6h-.7v-.6h.1l.5-.1H20.7l.3-.1h.2l.6-.3.3-.2.2-.2.2-.3.1-.3.1-.3V2.7l-.1-.3-.1-.3-.2-.3-.2-.2-.3-.2-.4-.2-.3-.1h-.3l-.3-.1h-.6l-.6.1H16.6l-.3.1v.1l-.2 1zm1.6 2.5l.2-.1v.1h-.2zm.2.3zM18 5zm0 .4zm.2.1l-.2-.2.2.2zm.2-1.1zm-.1.1l-.2-.1.2.1zm-.1.5v.2V5zm.2.9zm0-.7V5v.2zm.2-.4h-.2.2zm.5-.6zm.2.6zm.7-.1l-.2.1.2-.1zm.3-.2zm.9-1.6zm.5-.5zm-.3.7zm-.3-1.4zm-.4.1zm-1.9.9l.2-.1H20.3l.1.1.1.1.1.1.2.1v.4l-.1.1-.1.1-.1.1-.1.1-.1.1H18.9v-.4l-.1-.8zm-.2 1.6zm0 .2zm-.2-.6v.2-.2l-.2.1.2-.1zM18 2.7zm0 .7v-.2.2zm-.1.2l.2.1h.1-.1l-.2-.1-.2.1.2-.1zm-.2.5zm-.1-.5zm-.1 1l.2-.1H18V4.8h.1v-.1.1l-.1-.1h-.1l-.1-.2h-.1V4.8l-.2-.2zM26.2 7.2v.1h-.1l-.1.1H25.1l-.7.1-.8-.1-.1.1v.2H25.6l.7-.1h.1l.1-.1V6.4l-.1-.1-.1-.1h-.1v.9zM27 5.6h.4l.1-.1h.2v-.1l-.1-.1h-1.9l-.1.1v.1H25.9l.1.1h.7z" transform="translate(41 1)"/><path d="M24.4 7.2H26l.1-.1V5.9h-.5v-.6h2.1v.5h-.4V7H30.3V5.7h-.6l-.1-.1.2-.4-.2-.3-.1-.3-.1-.3-.1-.3-.1-.3-.1-.3-.3-.3-.1-.3-.2-.3-.2-.3-.2-.3-.2-.3-.1-.3-.3-.6V.6h-.7l-.6.1H24.3l-.1.1v1.3l.1.1h.5v.2l-.1.3-.1.3-.1.2-.1.3-.1.3-.1.3-.1.3-.1.3-.1.3-.3.2-.2.5v.1h-.7l-.1.1V7.3l.2-.1H24.4zm4.8-.8zm-.1-.9zm-.3-.6zM28.7 6zm-.8-3.4zm-.4-.1zm-.1-.4zm-.3-.6H27.4 27.1zm-.3.1zm-.7 1.8l.1-.2.1-.2.1-.2.1-.2v-.1H26.8v.2l.1.2.1.2.1.2V3.6l-.1.1H26.1l-.1-.1.1-.2zm-1.4.6zm.2.1l-.2.1.2-.1zm-.3.2v-.2.2zm.3.4l-.1-.3v.1l.1.2zm0-.3zm.1.3v-.2.2zm.4-.4zm.1-.1l-.1-.2v-.1h.1V4.2zm.1-.6zm-.1-.6zm-.2.1l.2.1h.1-.1l-.2-.1zm-.1.8zm0 .1l-.1-.2.1.2zm-.7-.2l.2-.1h.4V4h.1v.1h-.1v-.2l-.1-.1v-.1l-.1-.1-.1.1-.3.1z" transform="translate(41 1)"/><path d="M26.6 3.2l.1-.1-.1-.4-.1.1V3l-.1.3-.1.2h.2zM28.2 1.4l.1.3.2.3.3.6.2.3.3.6.1.4.2.3.1.3.1.3.2.2.1.2h.2l-.2-.5-.1-.3-.2-.3-.1-.3-.2-.3-.1-.3-.2-.3-.3-.6-.2-.3-.1-.3-.3-.7-.1-.1H28V1zM30.5 7.2h-1.4l-.3.1h-.6v.1h.1v.1H31.1v-.1h.1V6.2l-.1-.1V6h-.2v1.1h-.1l-.1.1zM31.9 7h2.8V5.7h-.5V4.9H34.9l.1.1.4.5.2.3.2.3V7h.1l.3.1h2.1V5.7H37.4l-.2-.5-.3-.4V4.5l.4-.2.3-.1.2-.3.2-.3.1-.4v-1l-.1-.3-.2-.3-.2-.3-.2-.2-.2-.2-.3-.2-.3-.1-.3-.1-.3-.1h-4.1V1.8l.1.1h.7V5.3H31.9V7zm5.3-.4zm-.5.1H36.4v-.1l.3.1zm0-5zm.2 4.4zm-.1-3.8l-.1-.2h.2l-.1.2zm.3 0zm-.2.2h.2-.2zm.3.4l-.2-.1-.1-.1.3.2zm.1-1.1l.1.2-.1-.2zm.1.3h.2V1.8h.1l.1.2v.1h-.4l-.2.1v-.1h.2zm-.3-.5zm0 .1v.2-.2zm0 .4zm-.1-.3zm-.3-.3h.2-.2zm-.3-.1zm-.1 3.9H36.6h-.3zm-2-2.8v-.6H35.8l.1.1.2.1.1.1.1.1.1.1V3l-.2.1-.1.1-.1.1-.1.1H34.4v-.7l-.1-.2zm0-1zm-.2-.6zm-.3 3.6zm-.1-.4zM33.4.9l.2-.1-.2.1zm-.2.1zm-.1 3.6zm0 .8z" transform="translate(41 1)"/><path d="M35.4 6.2h-.2v.4l-.1.3V7.2H34.5l-.3.1-.4-.1h-1.7v.1l-.1.1.1.1H35.4V6.9l.1-.3v-.1l-.1-.2zM38.5 7.2v.1h-.2l-.3.1-.4-.1h-1.4v.2l.1.1h2.5v-.7l.1-.3v-.1l-.1-.2v-.1h-.1l-.1-.1v.6l-.1.3.1.1zM34.8 5.1h-.1l-.2-.1v.3h.1l.1.1v-.2h.3zM34.5 3.2h.1l.1.1h.1v-.9H36v-.1l-.1-.1h-.1l-.1-.1h-1.2V3.1zM38.2 3.5l-.1.4-.3.4-.3.2-.3.2.1.2.3-.1.3-.2.3-.4.2-.4.1-.4V2.3l-.2-.2.1.3v.3l-.1.5zM45.3 2l.1.3.2.3.2.6.1.3.3.7.1.3.1.3v.4l.1.3.2.2.1.4h.2l-.2-.6-.1-.4-.1-.3-.1-.3-.1-.3-.1-.4-.1-.3-.3-.6-.1-.3-.1-.3-.2-.6-.1-.1v-.1h-.2v.1zM42.9 6.5h-.1v.3l-.1.2v.4l-.1.1-.1.1H41.6l-.8-.1-.7-.1h-.2v.2h.1v.1H40.8l.7.1.5.1H42.9v-.1l.1-.1V6.6zM47.2 7.9V8h-.5l-.8-.1-.3-.1h-.9V8h.1v.1h.7l.4.1h.7l.4.1h.6v-.2l.1-.2v-1h-.1v-.1h-.1v.6l-.1.2v.2l-.1.1zM43.6 6l.4.1h.1l.1-.1h.2v-.1l-.1-.2h-.7l-.7-.1h-.3l-.2-.1-.1.1v.1h.1l.1.2h.1l.7.1zM43.6 3.6v-.5h-.1l-.1.3-.1.2-.1.2h.2z" transform="translate(41 1)"/><path d="M39.3 7.1h.8l.7.2.7.1H42.4l.1-.1V6.2H42V5.9l.1-.1.1-.1.1-.1h.7l.7.1h.7v.4H44V6.7l-.1.4v.1H45.7l.4.1H46.9V6h-.6v-.1l-.1-.3-.1-.3L46 5l-.1-.3-.1-.3-.1-.3.1-.1-.1-.3-.1-.3-.1-.3-.1-.3-.1-.3-.1-.3-.1-.3-.3-.7v-.1h-.1l-.6-.1H43.2l-.6-.1-.3-.1h-.7l-.1.1v1.3h-.2.5v.2l-.1.3-.1.3-.2.3-.2.3-.1.3-.1.3-.2.2-.1.3-.2.3-.2.2-.3.5v.1H39.2l-.1.1v1.3l.2-.1zm6.4-.1zm.1-.7zm-.3-.8zm-.2-.1zm-.4-2.3zm-.5-.6zm.2.5zm-.3-1.1H44.6 44.3zm-.4 0l.1.2h-.1v-.2zm-.4-.1zM43 3.7l.1-.2.1-.2.1-.2.1-.2v-.1H43.7v.1l.1.2v.2l.1.2.1.2V4l-.1.1H43.1L43 4V3.7zm-1.4.4h-.2V4l.1-.1h.1v.2zm.1.1l-.2.1.2-.1zm-.2.1zm.1.5l-.1-.3v.1l.1.2zm0-.2zm.1.1zm.5-.2zm-.1-.4zm.2.3l-.1-.2v-.1h.1V4.4zm.2-.5zm-.1-.7l.2-.1-.2.1zm-.1 0l.2.2.1.1h-.1l-.1-.1h-.1v-.2zM42 4zm-.6-.1l.2-.1h.5V4.1h.1v.1h-.1l-.3-.1v-.2l-.1-.1h-.1l-.2.1z" transform="translate(41 1)"/></g></g></g></svg>
