<svg class="{{ include.css-class }}" width="145" height="50" viewBox="0 0 145 50" xmlns="http://www.w3.org/2000/svg"><title>Por encargo</title><g><g><g><path fill="#fff" d="M121.5 33c2.5-8 5.1-16 7.6-23.8C92.3-3.1 53-3.1 16.3 9.2c2.5 8 5.1 16 7.6 23.8 31.6-10.5 65.9-10.5 97.6 0z"/><path fill="#fff" d="M101.9 37.7C113.5 39 134.5 44 145 50c-4.8-9.5-10.5-18.7-10.5-18.7s4.6-3.8 10-7.6c-4.7-1.8-9.6-3.4-14.4-4.8L124.7 36l-22.8 1.7zM14.9 18.9c-4.9 1.4-9.7 3-14.4 4.8 5.4 3.8 10 7.6 10 7.6S4.8 40.5 0 50c10.6-5.9 31.5-10.9 43.1-12.3L20.3 36l-5.4-17.1zM101.5 38c.2-.3-.3-.2-.1-.4-.2 0-.3-.1-.3 0-.1-.1-.1-.2-.2-.3 0 .2-.2.1-.3.1-.1-.3-.4 0-.6-.2 0 .2-.2.2-.4.1-.5.3-1.7 1.6-.6 2 .1-.1.2-.2.3-.2-.2-1.2 1.3-1.2 1.9-.6.4.9 0 1.7-.8 2.4-.3 0-.6.1-.7.3-.1-.1-.4-.1-.5-.1.1 0-.1.1-.1.1-.2-.1-.4-.2-.7-.3-.1.1 0 .2-.1.2 0-.1-.2 0-.2 0-.1-.5-.6-.3-.9-.3 0-.2-.2-.2-.3-.3-.1 0-.2.1-.3 0-.1-.1-.1-.3-.3-.3-.3 0-.2.3-.5.3-.1 0-.1 0-.1-.1 0-.2.2-.3.1-.5-.2-.1-.2.1-.4.1.1 0 .2-.2 0-.3-.6.1-1.1-.8-1.9-.8 0 .1-.1.3-.2.3 0-.1-.1 0-.1-.1s.3-.2.1-.4c0 .1 0 .2-.1.1.1-.3-.1-.3-.1-.5-.9-.3-1.4-.9-2.4-1 0-.1-.1-.1 0-.2-.6 0-.9-.6-1.6-.6 0-.2-.1-.2-.1-.4-.3-.1-.8-.1-.9-.5-.2 0-.2.1-.4.1 0-.2 0-.3.1-.3-.7-.1-1.5-.4-2.1-.8-.2 0-.2.1-.4.1-.6-.3-1.7-.6-2.3-.4 0-.2.2 0 .2-.2-.2 0-.2-.1-.4 0-.5-.6-1.8-.3-2.6-.3 0 .1-.1.2-.1.2.2 0 .3.3.1.4-.1-.1-.3-.3-.1-.4-.7-.1-1.4.2-2.2.4v.3c-.3-.1-.3.1-.3.2-.1-.1-.1-.2-.2-.2-.2.1 0 .3-.2.5-.2-.1-.2.1-.4.1 0-.1.1-.1 0-.2-.6.4-1 1-1.5 1.4-.4-.4-.9-.7-1.3-1.1 0 .2-.2 0-.2.1 0-.1-.1-.1-.1-.2.1 0 .1-.1.1-.2-.5-.4-1.1-.2-1.5-.7-.6-.2-1.2-.3-1.9-.5 0 .1-.1.4-.2.3.1-.1.2-.2.2-.3-.1 0-.1-.1-.1-.2-.6.1-2-.3-2.5.2-.1 0-.2 0-.1-.2-.5 0-.7.2-1.1.2-.1.1.1.2 0 .3 0-.2-.1-.2-.1-.2-4.2 1-7.3 3.4-10.4 5.1 0 .3-.5.2-.6.5 0-.1-.1-.1-.2-.1-.1.2-.2.3-.3.4-.1 0-.1-.1-.2-.2-.1.4-.4.3-.9.3-.5.6-1.5.6-2.1.7l-.2.2c-.2-.1-.2-.1-.4-.1-.8.5-1.6-.6-2.2-.8-.1-.7-.2-1.6.6-2 0-.2-.2-.2-.1-.4.1.1.1 0 .3 0 .1.1 0 .1 0 .3 1-.2 1.5.3 1.6 1.2.2-.1.3 0 .6 0 .2-.3 0-.8 0-1.1-.1-.1-.1 0-.3 0-.1-.2-.2-.3-.1-.5-1.3-.6-2.6-.4-3.2.8 0 .4-.4.8-.1 1.1-.1 0-.2 0-.2.1.3.8.7 1.8 1.4 1.7 1.9 1.6 5.4-.5 7.2-1.1.1-.4.7-.4.9-.4.1-.3-.2-.2-.2-.4h.5c.1-.2-.2-.3.1-.4.1 0 .1.2.2.1.1 0 0-.3.1-.3.3.4.6-.1.9-.1.1-.2.1-.4.3-.5.5.1.5-.4 1-.3.7-.6 1.6-1 2.6-1.3 1.2-.5 2.9-1.3 3.9-1.3-.1.1.1.2 0 .2s-.1-.1-.2-.2c-.1.1-.2.2-.2.4-.1.1-.1-.1-.2-.1-.2.4-.6.6-.6 1.1-.4 0-.2.6-.5.7.1.4 0 .8 0 1.1.1-.1.2.2.4.2 0 .1-.1.1-.2.1 0 .5 0 .8.3.9-.1.8.5 1.3 1.2 1.5-.1.5.9.3 1.1.7.7-.1 1.1-.1 1.6-.1.2-.3.6-.4 1-.5.3-.4.4-1 .9-1.2-.1-.2.1-.4-.1-.5.3-.1.3-.8 0-1 .2-1.7-2-2.4-3.2-1.7-.2.3-.4.7-.8.8-1.2 1.5 2.2 3.9 2.3 1.6-.1.1-.2-.1-.5 0-.1.4-.9.1-1 0 .1-.3-.2-.6-.2-.9.5 0 .5-.5.8-.7 1.1-.4 1.6.4 2.2 1-.1 0-.1.1-.1.2.1.2.2-.2.2 0-.3 1.6-1.5 2.9-3.3 2.4 0-.3-.4-.2-.5-.5H67c.1-.1.1-.2 0-.3-.2-.1-.3-.1-.4-.1 0-.1.1-.1.1-.2-.2-.2-.3-.6-.4-.9-.1-.1-.3 0-.3-.2.1-.1.1.1.2.1.1-.6.1-1.2 0-1.7.1 0 0 .2.1.1.1-.5.6-.8.7-1.2 0-.1-.1.1-.1 0 0-.2.1-.2.2-.3.1 0 .2.1.2.2.6-.4 1.4-.7 1.9-.9.2.5.8.1 1.1.4.1-.1.2-.2.3-.1v-.3c.1 0 .1.1.1 0-.2.4.6.7.9.5.1.2.6.4.9.3v.3c.3.1.5 0 .8.1 0 .7 1 .7 1.2 1.2.1.3 0 .3 0 .5-.3.1-.2.5-.4.7 0 .2.2-.1.1.2-.1.1 0-.1-.2 0 0 .1-.1.1-.2.2 0 .2.1.2.1.4 0 0-.3-.1-.3 0 0 .5.1 1 0 1.4.2.3.5.4.6.7.3-.1.5 0 .7.2 1.2-.2 1.9-1.2 1.4-2.5H76c.4-.5-.3-1-.6-1.3.2-.2.2-.5.5-.6 0-.2-.2-.2 0-.3 0 .1.1.2.2.2.3-.5.9-.7 1.2-1.2.1.1.2 0 .3 0 .3-.5 1-.3 1.4-.7.3 0 1 0 1.1-.3.2 0 .1.2.3.2.8-.4 1.6.2 2.4.3 0 .1-.1 0-.1.1 1 .6 1.4 2.1 1.5 3.4-.1 0-.1.1-.1.1.1 0 .1.1.1.2-.2.3-.5.4-.6.8 0 .1.2.2.2.4-.3-.1-.3.1-.5 0 0 .6-1.1.4-1.1.9-.3-.1-1-.2-1.4-.3-.1-.2-.3-.4-.7-.3-.2-.6-.4-1.1-.6-1.7.2-.2.4-.4.3-.7.1-.1.2 0 .3-.1.3-1.1 2.3-.6 2.2.6-.2.1-.3.3-.1.5-.3.1-.4.1-.7.3-.2-.1-.5-.2-.7-.2-.1.1-.3.2-.3.3 0 .2.1.2.1.5.2.2.8 0 1 .2.6-.2 1.1-.5 1.3-1 0 .1 0 .1.1.1v-.1c-.1-.1-.2-.6.1-.8-.3-.3-.3-.8-.5-1.1-.5-.4-1.3-.9-2.1-.5-.1-.1-.2-.2-.4-.1-.7.6-1.2 1.2-1.4 2.2.1.3.1.7 0 .9.7 1 1.6 2 3.2 1.9 0-.2 0-.2.1-.3 0 .3.4.2.5.3.1-.1.2-.3.5-.2.3-.3.5-.6.9-.6 1.5-1.6.8-4.4 0-6 .2.5.9.6 1.2.6-.1 0-.1-.3 0-.2.2.1.2 0 .4 0 .1.2-.1.2-.1.3.3.3.9 0 1.1.5 1-.1 1.4 1 2.5 1-.1.4.3.2.3.5 1 .1 1.6.7 2.5 1.1 0-.1.1-.1.2-.1.4.5 1 .7 1.7 1-.1.1 0 .1 0 .2.5-.1.5.4.9.2.2.4 1 .8 1.2.4.2.1.3.6.8.6.1-.2-.2-.1-.1-.3.2 0 .3.1.4.2l-.1.1c.1.1.3.3.5.1.1.1.2.3.3.4.2 0 .1-.2.3-.2.1 0 .1.2.2.2.5-.1 1.1 0 1.5.1.5-.2 1-.3 1.6-.5.2-.4.4-.7.8-.9.2-.6.1-1.2.3-1.7-.5-.2-.2-1.2-.8-1.1zm-25.6 1.2c0 .2-.2.3-.2.4.1.2.2.3.2.5-.4.3-.9.4-1.2.4 0-.3-.3-.6-.1-1 0-.1-.1-.2-.1 0 0-.2.3-.5.5-.6 0-.1-.2-.1-.1-.3.1 0 .1.1.1.2.1-.1.1-.2.3-.1.2.1.3.5.6.5z"/></g><g><path d="M13.4 24.6l-.1-.2-.1-.3-.1-.4-.1-.4-.1-.3-.1-.3v-.5l-.1-.3-.1-.1-.1-.1h-.1l-.2.1v.5l.1.3.1.4.2.6.1.2.1.4v.7l-.1.1v.1h-.1l-.1.1-.4.1-.2.1-.3.1-2.9.7-.2.1-.6.1-.3.1-.4.1-.9.3H6l-.8.3-.6.1-.3.1-.3.1.1.2v.1h.2l.7-.1.2-.1.3-.1h.4l.4-.2.9-.2.9-.2.4-.2.4-.1.5-.1h.3l2.5-.7.3-.1.3-.1h.2l.3-.1.1-.1.1-.1v-.2l-.1-.3zM6.2 18.6h.1l.4-.2H7l.2-.1.4-.1h.2l-.1-.3V17.6l-.1.1h-.2l-.3.1-.4.2-.4.1H6l-.5.2.1.2.1.4.1.3H6l.2-.1v-.4zM10.5 16.3l.1.6.1.5v.1l.1.2-.1.1v.2l-.2.1h-.1l-.3.2-.7.1-.3.1.1.2v.1h.5l.4-.1.9-.2.2-.2h.1l.1-.1V18l-.1-.2v-.5l-.1-.3-.2-.7-.3-.8-.2-.7h-.1v-.1H10.1l.3 1.1zM9.1 21.6l.1-.1.2-.1.2-.1-.1-.1v-.1l-.1-.3-.1-.7-.2-.3-.1-.1h-.2l-.1.1V20.1l.2.7.1.3v.1l-.1.2v.2l-.1.1h-.1l-.1.1-.3.1H8l-.2.1h-.2l-.3.1-.3.1-.3.1-.1.1v.2l.1.2.1.2.1.2.1-.1h.2v-.5l.2-.1h.1l.3-.1H8l.2-.1.3-.1H9v-.5z" transform="translate(27 1)"/><path d="M4.9 26.9l.5-.1.7-.2.8-.2.3-.1.4-.2.3-.1.3-.1.5-.1 2.5-.7.3-.1h.2l.2-.1.3-.1.1-.1.1-.1v-.2l-.1-.3-.1-.4v-.2l-.1-.3-.1-.4-.1-.4-.1-.3v-.4l-.1-.3-.1-.1-.1-.1H11l-.1.1-.4.2h-.3l-.4.1-.3.1h-.2v.5l.1.2.1.2V22.9h-.2l-.4.1-.3.1-1 .3-.5.1-.4.1h-.2v-.2l-.1-.3-.1-.2-.1-.2-.1-.3v-.2l.1-.1.1-.1.2-.1.5-.2.2-.1.3-.1h.7l.3-.1.1-.1.1-.1v-.4l-.2-.3-.1-.3-.1-.3v-.4l-.1-.3-.1-.1h-.2l-.4.1h-.2l-.2.1-.3.1-.3.1-.2.1-.2.1h-.5v-.1l-.1-.1-.1-.3-.1-.5-.1-.3V18.1h.1l.4-.1.9-.2.4-.1.5-.2.4-.1H8V18l.1.2.1.1H8.8l.4-.1.3-.1.3-.1.4-.1.2-.1.1-.1V17.4l-.1-.5-.2-.8-.1-.4-.2-.8-.4-.5v-.1h-.2l-.3.1-.4.2-.3.1-.5.1-.5.2-.5.1h-.2l-.6.2-.2.1h-.9l-.5.1-.9.2-.2.1-.5.2-.3.1-.8.3H.9l-.3.1-.1.1V17.2l.1.4.1.5.1.4.1.3v.1h.4l.3-.1h.5l.1.1.1.3.1.4.2.6.1.4.3 1.1.2.6.2.4.2.6.1.4v.8l-.1.1-.2.1h-.3l-.2.1-.1.1V25.5l.1.4.1.6.1.4.1.3.1.1H3.9l.5-.1.5-.3zm5.9-2.4H10.5 10.8l-.1-.2.1.2zm.5-.7h.2-.2zm-.2 0l.1.3h-.1V23.8zm-.2-.3zm-1.3-.1l.2-.1h.4v-.1h.1l.1.1v.4h.2v.2H10.3v-.1l.1-.1h-.1v-.1.1-.1h-.1v.1l.1.1.1.1h.2l.1.1v.2l.1.1-.1.1v.2h.2v.1h.2v.1H10.8v-.1h-.2l-.1.1H10.2v-.2h.2v-.1.1H10.7v-.4h-.1V23.9h-.1v.1H10.2V23.7h.1l.1-.1.1-.1v-.1h-.1v.1l-.1.1h-.1v-.2h-.6zm.8.3zm-1.8 1.4zm.2-.6l.2-.1.1.1h-.3zm0-.3l.2-.1v.1h-.2zm.2.5zm.1.4l-.1.2.1-.2zm.1-.6zm.3.6l-.2.1h-.1V25l.3.1zm-.1-1zm-.5-.6l.2.1v.5h-.2v.1H9v.1l-.1.1h-.2l.1-.1V24h-.1l.2-.5zm-.2.9V24.7h-.2v-.1l.2-.2zm-.3-1zm0 .5h.2l.1.1-.3-.1zm-.2 1zm-.1-.4zm-.2-.7h.2l.1.1v.1H8l-.1-.2zm-.1 1.4H8.1l-.1.1-.2-.1zm-.4-.3zm-1.5.1v.2-.2zm-.5-3.2l.1.1v.2h-.1V21.8zm.2 1.1zm-.3 1.2l.2.1v.1l-.1.1h-.1V24.1zm-.1-2.8l-.2.1v.1-.2h.2zm-.2-.7v-.2.2zm-.1-4l.1.1-.1-.1-.1.1.1-.1zm-.2.7V17h.1l-.1.3zm.2 4.5l-.1.1.1-.1zm-.3 1.9l.2.1H5.1v.1-.1h-.2l-.3-.1zm-.1-3.4zm-.2 2.1l.1-.1h.1v.2h-.1l-.1-.1zm-1.5-3.2zm.1-1.3v-.2.2zm.1.7l.1-.1h.1v.1H3zm.2 1l.1-.1-.1.1zm.3-1.3zM4 18l-.1-.2.1.2zM20.2 22.8l-.1-.5-.1-.4v-.2h-.4v.4l.1.5.1.5v.4l-.1.1-.2.1h-.2l-.7.2h-.5l-1.2.4-1.3.2-.7.1.1.2.1.2h.2l.6-.1.6-.1 1.2-.2 1.2-.3h.7l.6-.1.2-.1v-.3l-.1-.5zM18.4 19.2v-.1l-.3-.3-.2-.1.1.3.1.4.1.6v.5l.1.2.4-.1-.1-.3-.1-.5zM26 21.1l-.1-.6-.2-1.2-.1-1.2-.2-.5-.1-.6-.1-.6v-.5l-.2-.7-.1-.6v-.1H25.2l.3-.1.4-.1v-.1h.1v-.6l-.1-.5-.1-.5-.1-.4-.1-.2H25.3v.4l.1.5.1.6V13.8l-.1.1-.1.1H25l-.3.1-.3.1v.2l.2.8v.5l.1.6.1.5.2.6v.6l.1.5.2 1.3.1.5.1.6.2 1.2v.4l-.2.1-.2.1-.6.2-.6.1h-.6l-.3.1.4.3h.8l.6-.2.5-.1.5-.2h.2v-1.3z" transform="translate(27 1)"/><path d="M24 22.6l.6-.1.5-.2.1-.1V22l-.1-1.1-.1-.6-.1-.5-.2-1.1-.1-1.1-.1-.6-.1-.6-.1-.6-.1-.6-.2-.6-.1-.4H24.2l.4-.1.4-.1h.2v-.6l-.1-.5-.2-.7-.1-.5-.1-.1h-.2l-.6.1-.6.1-.6.1-.6.1-1.2.1-.6.1-.6.2-.1.1v.1-.1.5l.1.5.1.5.1.5v.2l.1.1h.2l.3-.1.5-.1v.2l.1 1v.3l.1.3.2.5.1.2.1.3v.1l-.1.1h-.1l-.1-.1h-.2l-.4-.4-.4-.4-.4-.5-.4-.4-1.7-1.4-.7-.8-.4-.4-.4-.4h-.2l-.6.1-1.8.3-.6.1-.6.2-.2.1v.7l.1.5.1.5.2.5.1.2.1.1h.2l.2-.1.4-.1h.2l.1.2.1.5v.6l.1.5.1.5.1.5.1.5.1.5.1.5.1.5.1.5v.2l-.1.1h-.1l-.4.1h-.4l-.2.1v.2l.1.5.1.5v.5l.1.5.1.1h.2l.6-.1.6-.1 1.2-.2 1.2-.3h.6l.6-.1.2-.1.1-.2-.1-.5-.1-.5-.1-.5-.1-.5v-.1l-.1-.1-.9.1h-.1v-.1l-.1-.8-.1-.5-.1-.5-.2-1 .1-.1h.2l.1.1.1.1.4.4.4.3.4.4.4.4.4.4.4.4.4.4.4.4.4.4.4.4.4.4.4.4h.8l.5-.1zm.7-9.8zm-.3.5zm-.6-.1l.1.2h-.1v-.2zm-6.6 2.1l.2.2-.1.2h-.1v-.4zm-.4-.1l.2.1h.1-.1l-.2-.1zm0 .2l.2.2-.1.2v-.2l-.1-.2zm-.2-.8zm-.2 1.9l-.2-.1v-.1h.2v.2zm-.2-.1zm0-.3zm.2 0zm.2-.4v-.2h-.1v-.1l.3.2-.2.1zm-.2-.9l.1.2h-.1v-.2zm-.4.4l.3-.1.2.1-.2.1-.1.1h-.1l-.1-.2c0 .1 0 0 0 0zm.1.4l.2.2.1.1h-.2l-.1-.3zm-.1.2zm-.6.5l.1.2v.1l-.1-.1h-.1l.1-.2zm-.5-.8v-.2.2zm.2 3.7l-.2-.2v-.1h.1v.1l.1.2zm.1-1.2zm.2 3l-.1-.2.1.2zm.1-1l-.2.1-.1-.1v-.1h.1l.2.1v-.2.2zm.1-5l-.1-.2.1.2zm.1.6zm.1 3.7zm.2 2l-.1-.2h.1v.2zm.1-4.4H15.8v-.1h.1v.1h.2l.2.1-.2-.1zm.4 1.8l-.2.1h-.1v-.2h-.1v-.1h.1l.1.1.2.1zm.3-2H16.5v-.1h.1v-.1h.1v-.1h.1l.1.1-.1.2zm.1 2.7zm-.1-3.1l-.1-.2h.1v.2h.4v.1l-.1.1h-.2l-.1-.2zm.5.3zm-.2 0l-.2.1v-.1h.2v-.2l.1-.1v.1l-.1.2zm.4.4V17.3h-.2v-.2l-.1-.1v-.1h-.1.1v.1h.3zm.1-.9l-.2-.1-.1-.1-.1.1v.1H17l-.1-.1v-.1h.2l.1-.1h.2l.1-.1.1-.1V15.3l-.1-.1-.1-.1.2.1.2.1-.1.2v.1l-.1.1v.1l-.1.1.1.2zm.2 1zm0-1zm.4.9l-.2.3-.1.1h-.1v-.1l.1-.1h.2l.1-.2h.2-.2zm.3.5l-.2-.1.1-.2v.1l.1.2zm0-.8l.2-.1v.2l-.2-.1zm.6 1.3zm.1.1zm.1-1.1zm.9 1.6H20v-.1l.1-.1.1.2zm.7 1.3zm.2-1.3h-.5.5zm.3 2.2l-.1-.2h-.1v-.1h.1v.1l.1.2zm.5-7.3l.1.2.1.1-.2-.3zm.2 1.6zm-.1 6.1l-.2-.1.1-.1v-.1l.1.1v.2zm-.1-.7zm.2-.8l-.2.1v-.1h-.1v-.1l.3.1zm.2-5.4h-.2v-.1l.1-.1.1.2zm.2 7.6zm.4-9.2l.2-.1-.2.1zm.2 9l-.1-.2h.1v.2zm.2-8.1zM31.8 21.7l.6.1h1.5l.3-.1.6-.2.6-.1.5-.2.5-.3.2-.2.2-.2.4-.3.4-.4.1-.1v-.2h-.1l-.2-.3-.4-.3-.2-.2-.2-.2-.3-.3-.3-.2-.1-.1H35.6l-.2.2-.3.2-.3.2-.3.2-.3.1-.3.1-.3.1H33l-.6-.1-.9-.3-.3-.1-.2-.2-.2-.1-.2-.2-.1-.3-.1-.2-.1-.3-.1-.3-.1-.3V15.7l.1-.3.1-.3.1-.3.1-.3.1-.3.2-.2.2-.2.2-.2.2-.2.3-.1.3-.1.3-.1h1.2l.3.1h.2v.1l.1.1v1l.1.4.1.1h2.1l.3-.1h.1l.1-.1.1-.1v-.5l-.2-.3-.1-.3v-2l-.1-.1-.4-.3-.4-.3-.5-.2-.5-.2-.5-.1H32l-.6.1-.6.2-.5.2-.5.3-.5.3-.4.4-.4.4-.4.4-.2.2-.2.3-.1.2-.4 1.1-.1.6-.1.6v.6l.1.6.1.6.1.3.1.3.2.5.3.5.3.5.4.4.4.4.5.4.5.3.5.2.6.1.7.4zm.8-9zm.5-.6zm.5-.1zm.7.6l-.2-.2.1-.2h.1l.1.1v.1l-.1.2zm.4.1l-.2-.1-.1-.1H34.7v.2zm0-.2l-.2-.2.1-.2.1.1.1.1-.1.2zm-.1-.6zm.3.2v.2h.1v.1l-.2-.1.1-.2zm0-.3zm.1 1.1zm.5-.2l-.3.1h-.1l.2-.1h.2zm.3.6l.1-.2-.1.2zm0-.9l.2-.1v.1h-.2zm-.1.4zm-.1-.8zm-.1.2l.1.2-.1-.2-.2-.2h.2v.2zm-.2-.4zm-.1-.5l.1.2v.1H35v-.2l.2-.1zm-.6-.3H34.9l.1.1h.1v.1h-.2v.1H34.6V11zm0 .6H34.3 34.6zm-.4-.4h.2v.1l-.2-.1zm-.1.6h.2v-.2H34.6V11.9h-.2l-.1.1h-.2l-.1.2v.1l.1.1.1.1-.4.1-.1-.1.1-.1v-.2h-.1v-.1l.4-.3zm-.3-.6l.2-.1v.1h-.2zm-.5-.4l.2-.1h.1v.1h.1l.1.1h.1v.1H33.6l-.1.1h-.1V11l-.1-.2zm-.3.3l.2-.1v.1H33zm-.3.1l.1.3.1.1v.1l-.1.1v-.1l.1-.1-.1-.1-.1-.3zm-.4.5l.2-.1.1.2h-.1l-.2-.1zm-.1-.5zm-.3.6zm-.3.4zm-.3.4zm-.4-.4zm-.6 1zm.1-1.1l.1.2-.1-.2zm-.1.3H30.6 30.3l-.1.2h.1v.1l-.1-.1.1-.2-.2.1.2-.1zm-.8.4v.2-.2zm-.2 1.3zm0 2.1l-.2.1.2-.1zm-.2 1.6zm0-3.6zm.2-.9zM28.1 17zm.2.6zm-.1-2.1l.1-.2v-.1h.1l.1.1-.1.1.1.1h-.3zm.4.8v.2h-.1l.1-.2-.3.1.3-.1.2-.1-.2.1zm.3.7zm0-1.5h-.2v-.1l.2.1v-.2l.1-.1V15H29.3v.4l-.4.1zm.5 3.5l-.1-.2h.1v-.1l-.1-.1-.1-.1-.2-.1h.1l.1.1.1.1v.1l.1.1v.2zm.2-.3zm.1-5.3zm.2-.8l.2-.1-.2.1z" transform="translate(27 1)"/><path d="M30.8 15.8l.1-.3.1-.2.1-.2.1-.4.2-.1.1-.2.2-.2.2-.2.2-.1.2-.1h.3l.3-.1h.5l.2-.1h.1v-.3h-1.1l-.3.1-.3.1h-.2l-.2.1-.2.2-.2.2-.2.2-.1.2-.2.2-.1.2-.1.6-.1.3v.8l.1.2.2.5.1.3.2.2.1.2.1.1v-.1l-.1-.1-.1-.2-.1-.3-.1-.2v-.3l-.1-.2V16zM38.1 19.8l-.1-.1v.1l-.1.2-.3.3-.2.2-.2.2-.2.1-.3.2-.2.2-.3.1-.3.2-.3.1-.3.1-.8.2-.6.2h-.7l-.3.1-.6-.1h-.6l-.3-.1-.3-.1h-.3l-.2-.1.1.1.3.1.3.1.2.1.3.1h.3l.6.2H33.9l.4-.1h.3l.3-.1.5-.1.3-.1.3-.1.3-.1.3-.2.2-.1.3-.2.2-.2.3-.2.2-.2.2-.2.2-.2.2-.2v-.1l-.1-.1zM37.2 14.5v.2l-.1.1-.2.2h-.2l-.4.1h-.8l-.3.1H35v.2l.1.1v.1h.8l.2-.1h.8l.2-.1h.3l.1-.1h.1v-.1l.1-.1v-.4l-.1-.3-.1-.3V12.7l-.1-.4-.1-.1-.2-.2-.1-.1v1l.1.4v.2l.1.3v.6zM45.5 13.7l-.1.4-.2.4-.1.3h.4l.2-.4.1-.2-.2-.6z" transform="translate(27 1)"/><path d="M48.4 21H52.2l.1-.1v-2.1l-.1-.1-.1-.1v-.1h-.9l-.1-.1-.3-.4-.2-.5-.2-.5-.2-.5-.2-.5-.2-.5-.2-.5-.2-.5-.2-.5-.4-.6-.3-.5-.3-.5-.2-.5-.2-.6-.4-1v-.4l-.1-.1h-1.2l-1.1.1h-.5l-1-.1h-1.6l-.1.1v2.2l.1.1h.8l.2.1.1.1v.1l-.2.5-.2.5-.2.5-.2.5-.2.5-.2.5-.2.5-.2.5-.6.5-.2.5-.4.8h-1.1l-.1.2-.1.1v2.1l.1.1h1.4l1.2.1h2.5l.1-.1.1-.1V18.9l-.1-.1-.1-.1h-.5l-.1-.1V18.3l.1-.2.1-.2.1-.2.2-.2h1l1.2.1h1.3l.1.1.1.1v.1l.1.2.1.2v.4l-.1.1h-.5l-.1.1V20.8l.1.1h.8l.3.1zm2.1-.9zm-.4.1zm-.4-.3v-.2.2zm0-1.4h.2v.1l-.2-.1zm-.1.7zm-.4-1.7l.2.1.1.1H49.2v-.2zM49 19zm0-.6zm-.2-1.1zm-4.6-4.2zm-.5.9l.2-.1v.1l-.1.2-.1-.2zm-.1-.4zm-.1.5l.3.2.2.1v.1h-.2l-.1-.2h-.2v-.2zm.3.6zm-.4.5zm0 .3l.2.1v.1h-.1l-.1-.2zm-.2-2.3zm-.1.8l.1.2h-.1V14zm0 1.4l.1.2V15.9h-.1v-.5zm-.3-.6zm-.8 1.8zm.1-1.2l.1-.2h.2l.1-.1h.4V14.8h.1v.2l-.1.4-.1.1.1.1h.1v.2h-.2v-.2l-.1-.1v-.1l-.2-.1h-.1l-.1.1h-.2v.2-.2zm.9.5zm-.7.3V15.9 16.2zm.1-.4h-.2v-.1l.1-.2h.2v.1l-.1.2zm0 .2l.1-.2h.2-.1l-.2.2zm-.2.6v-.2h.1l-.1.2zm.2.8zm.3-.5l-.2-.1v-.5l.1.1.1.1.1.1-.1.3zm-.1-.4v-.2h.2l-.2.2zm.2.3l.1-.2.1-.2v-.2.2l-.1.1v.1l-.1.2zm.2.3zm.2-.3H43h.2zm.1-.4zm.2-.1h-.2v-.2H43.6l-.1.2zm.2-.2l-.2-.1h-.1v-.2h.1v-.1h.1l.1.1v.3zm.3-.9l-.2.1v.1h-.1v-.2l-.1-.1h.2l.2.1V15h.1l-.1.2zm2.4-3.1zm-.1.8zm-.3-1.2l.1.2H46v-.2zm-.7-.2h.2-.2zm-.3.4l.1.2h-.2l.1-.2zm1.4 3.1l-.2.2H44.8l-.1-.1v-.2l.2-.3.2-.4.1-.4.1-.4.1-.1H45.7l.1.1.1.4.1.4.2.4.2.4zm.6-2.4l-.2.1v-.1h.2zm0-1H46.7l-.1-.1h.2l.2.1zm.6 1.9l-.2-.1h-.1l-.1-.1h.1l.1.1.2.1zm.2-1.2zm.2 1.4l-.2-.2v-.1h.1l.1.3zm.4 3.1z" transform="translate(27 1)"/><path d="M50 14l-.5-1-.3-.5-.2-.6-.4-.9-.1-.1-.1-.1H48l.1.2.3.5.2.5.3.5.5 1 .2.5.5 1.2.2.5.2.5.2.6.2.5.2.4.2.3h.4l-.3-.8-.2-.5-.3-.6-.2-.5-.2-.5-.2-.6zM47.1 18.4l.3-.1-.1-.1V18H44l-.1.2v.1h.4l.2.1h1.6l.6.1h.2l.1-.1zM53.1 19.6l-.1-.2v-.1h-.1l-.1-.1h-.1V20.8l-.1.2-.1.1-.1.1h-.1l-.1.1h-4l-.1.1.1.1v.1l.1.1h.7l.6.1h.6l.6-.1h.6l.6.1h.8l.1-.1h.1l.1-.1v-1.9zM45.2 20.3v-.6l-.1-.1-.1-.2-.1-.1h-.1V21l-.1.2-.2.1h-.4l-1.2.1h-1.2l-1.3-.1h-.2v.4l.1.1h4.8v-.1l.1-.1v-.5l.1-.4zM65.7 20.5v-.1l-.2-.1h-.2v.4l-.1.5v.7l-.1.2v.1l-.2.1h-.7l-.6-.1-.4-.1-.5-.1h-1.4V22.3l.1.1.5.1.6.1h1l.4.1h.5l.6.1h.5l.1-.1V22.1l.1-.5v-.5l.1-.2-.1-.3zM59.3 18.2H59l-.3-.1v.5l.2.1h.2v-.2h.4l-.2-.2zM61.5 13.6l-.1-.1-.2-.1-.1-.1H59.9l-.3-.1h-.2l-.2-.1h-.1v.3l-.1.2v.5l-.1.5v.5l.2.1h.2V15l.1-.4v-.4l.1-.4v-.1h.1l.1-.1.3.1h.7l.3.1H61.6z" transform="translate(27 1)"/><path d="M62.2 21.7h.5l.5.1.5.1.5.1h.5l.1-.1v-.2l.1-.5.1-1v-.7h-.1l-.5-.1h-.6l-.1-.1-.4-.6-.5-.7v-.2l.1-.1.1-.2.6-.3.5-.3.4-.5.3-.5.2-.6.1-.6v-1l-.2-.5-.2-.5-.2-.5-.3-.4-.4-.3-.5-.3-.5-.2-.5-.1-.5-.1-1.6-.2h-1.5l-.6-.2h-.5l-.5-.1-1-.1-1-.1H55l-.1.1-.1.1v.1l-.1.5-.1 1v.6l.1.1.3.1h.8V13.9l-.1.6-.1.5v1.1l-.1.6-.1.5v.6l-.1.6v.2H54.7l-.6-.3H54l-.1.1-.1.5V20l-.1.6v.1l.1.1.5.1h.5l1.1.1H57l.5.1.5.1h1.2l.1-.1v-.9l.1-.4v-.5l-.1-.1-.1-.1h-.1l-.3-.2h-.6v-.1l.1-.8v-.2H59.2l.2.1.1.1.6.9.3.4.2.5v.2l-.1.6-.1.6v.2l.1.1.5.1h.5l.7.1zm1.6-.7zm-.3.3zm-.6-.4l.1.3-.1.1h-.1l.1-.4zm-6.4-4.3zm-.2-5.1zm.3 7.3l-.2-.2v-.1l.1.1.1.2zm.1-1.3l-.1-.2v-.2h.1v.4zm0 1.8V19 19.3zm.4-2.3zm0-5.5zm.2-.3l.2-.2h.1-.1l-.2.2zm.1 4.3zm0 1.2h.2v.1l-.2-.1zm.2.6zm.2-1.4zm4.8 4.1zm.1.6zm.2-7l-.1-.2v-.1h.2v.1h-.1v.2l.2-.1-.2.1zm-.1-.4zm.3-.4V13.1v-.3zm0 .5zm0 .9V14v.2h.2-.2zm.2.1zm.1-.3zm-.1-.3l-.2.1H63v-.1H63.3zm-.2 1.4h.2-.2zm.2.8zm.2-1.1l-.2-.2-.1-.1.1.1h.1l.1.2zm0-1.2l-.2-.1.1-.1h.1v.2zm.2 1.6zm.2-1.1zm-.2-1.2l.2.2-.1.1-.1.1h-.1l.1-.4zm0 .5l.2.1h.1V13l-.1-.1v-.2l.1.1.2.3v.1h-.1l-.1.1h-.1v.1h.1v.1h-.1l-.2.3-.1-.1v-.1l.1-.2-.2.1h-.1v-.1l.1.1.2-.1zm-.3-.8l.2.1-.2-.1zm0 .1l.1.2-.1.1V12.7zm-.1.5zm0-1.1zm-.2.2l.1.2h-.1v-.2zm-.3.1h.2l.2.1-.2.1H62.7l-.1-.1.2-.1zm0 .4zm-.1.2zm-.3-.2zm.1 2.7l-.2.1.2-.1zm-.3-3.4l.1.2-.1-.2zm0 8.9h-.4v-.1h.2l.2.1zm-.1-2l-.2-.1H61.6l.5.1zM60 11.8zm-.3.4zm-.4-.1l-.1-.2h.1v.2zm-.4-.5zm-.5-.3l.2-.1v.1h-.2zm.1.8h.2l.1.1h-.1l-.2-.1zm2.3 6zm.6.6zm.1-3.3l-.2.1-.2.1h-2.5v-2.4l.1-.1h2.1l.3.1.2.1.2.2.1.2.1.2.1.2v.7l-.1.2h.1l-.1.2-.2.2z" transform="translate(27 1)"/><path d="M60.1 20.2v-.1H60l-.2-.1-.1.4v.4l-.1.4V21.5l-.1.1v.1h-1.6l-.5-.1h-.5l-1.1-.1-1.1-.1h-.2v.2l-.1.2.1.1.5.1h.5l1.1.1h1.1l.5.1h.5l.5.1h.6l.1-.1h.1v-.1l.1-.4v-.5l.1-.4v-.5zM64.1 17.2l-.5.4-.4.2.2.4.5-.2.5-.3.5-.6.4-.6.2-.6.1-.8V14l-.1-.1-.2-.4.1.5-.1.6-.1.8-.2.6-.4.7zM69.2 22.5l.5.2.6.2.6.1.6.1.5.1.5.1h.6l1.1-.1.5-.1.2-.1.5-.2.4-.3.4-.4.2-.3.1-.6V21l.3-1.6.1-.4.1-.2V17.9h-.2l-.4-.1-1.2-.2-.5-.1-.4-.1H74l-.5-.1-.7-.1-.5-.1h-.7v.1l-.1.2.2.4v.3l-.1.2V18.9l.1.1.1.1.3.1h.4l.7.1h.5l.4.1.1.1v.7h-.1l-.5.2h-1.9l-.3-.1-.3-.1-.3-.1-.1-.2-.3-.2-.2-.2-.2-.2-.2-.2-.1-.3-.1-.3-.1-.3v-1.1l.1-.3.1-.4.1-.3.1-.3.1-.3.2-.2.2-.2.2-.2.2-.2.3-.2.3-.1.3-.1H72.6l.7.1.7.3.4.2h.1v.4l-.1.3v.4h.2l.3.1h.2l.6.1.3.1.4.1h.5l.1-.1.1-.1.1-.3v-.7l.1-.3V14.1l-.2-.2-.4-.4-.4-.4-.2-.2-.2-.2-.5-.3-.5-.2-.3-.1-.5-.2-.6-.1h-2.4l-.6.1-.8.4-.3.1-.3.1-.2.1-.5.3-.4.5-.2.2-.2.2-.2.2-.2.2-.1.3-.2.5-.2.7-.1.6-.1.6V19l.1.3.2.5.1.3.1.4.1.3.3.5.4.5.4.4.5.3h.5zm6.5-1.7l.1.1-.1-.1zm-.2.1l.1.2-.1-.2zm-2.2 1.5h-.2v-.1l.2.1zm.9-1l.1.1-.1-.1zm.1.8zm1-.8l-.1.2v-.1l.1-.1zm-.4.4h.4v.1l-.2.1h-.2v-.2zm-.1-.3l.2-.1h.1v.1h-.3zm.4-1.4zm-.1.6l.2-.1.1.2v.3l-.1-.1-.1-.1-.1-.2zm0 .4h-.2.2zm-.2-.3zm-.1-.3zm-.2.7zm-.1.3V22.3H74.8l.1-.1h.1l-.1.2-.1.1-.1.1-.1.1v-.1l-.1-.1h-.1v-.2h.2v-.1h-.1v-.7zm-.2.1zm0-.7l.2-.1h.1v.2h-.1l-.2-.1zm-.1.1l.1.1-.1-.1zm-.1 1.1l-.2.1v-.1h.2zm-.1-.6zm-.4-.2h.2v.1H74.1 74l-.1.1-.1.1V21.3h-.2zm-.2.2zm-.3.5v-.4.4zm-.3-.4l.2.1v.2-.2l-.2-.1zm-.1.4zm-.5.2l.1.1-.1-.1zm-.2-.9zm-2.2-.5zm-.1-.4zm-.1.5zm5.8-5l-.1-.2h.1v.2zm.5-2l.2.1v.1H76l-.1-.2zm-.3.7zm-.4.5l.2-.1v.1l-.1.1-.1-.1zm-.1-.5zm-.2-1.3l.2-.1h.1-.1l-.2.1zm-.6 0l.2.1.1.1-.1.1h-.1l-.1-.3zm-.7-.1zm-6 4l-.2.1v-.1h.2zm1.5 2.4l-.2-.1v-.1h.2v.2zm.2-.2zm0 .7zm-.1-.3zm0 .6zm.2 1zm.1-1l-.2-.1v-.1h.1l.1.2zm-.5-5.3zm-.1.4l.1-.2h.1l.1-.1.1.1h-.1v.1h-.1v-.1h-.2l.2.1-.2.1zm-.2 1zm0-.4zm-.2-.7zm-.2.4zm-.2 1.2l.1-.2v-.1h.1v.2l.1.1v.1l-.1.1-.1.1-.1-.3zm-.3-.6h.2-.2zm.4 2H67.9V18l.1-.1h.2V17.6h.1v.1l-.1.1v.1l-.1.1v.2l.1.2zm.1.6zm.1-.2zm.1-.8v-.2h-.1.2l-.1.2zm.1 1.7l.1.2-.1-.2zm0 .7z" transform="translate(27 1)"/><path d="M77.7 18.7H77.4l-.1.2L77 21v.2l-.1.6-.1.1v.1l-.1.1-.1.2-.5.4-.2.2-.5.2-.6.3-.3.1h-.8l-.3.1H71.7l-.6-.1-.6-.2-.5-.1-.6-.2-.3-.2-.3-.1-.1-.1v.1l.2.2.8.4.3.2.3.1.4.1.6.1.6.1.6.2h.6l.6-.2h.2l.6-.1.6-.1.3-.1.3-.1.3-.1.3-.2.4-.4.3-.2.2-.2v-.1l.1-.2v-.3l.4-2.4.1-.3V18.8zM78.1 15.3H78l-.1-.3-.2-.2v.5l-.1.3v.4l-.1.3-.1.3v.2l-.1.1-.1.1h-.1l-.1.1h-.5l-.3-.1H76l-.6-.1-.2-.1v.2l.2.1.7.1.5.1.4.1.1.1h.2v.1l.1.1h.1l.1-.1h.1v-.1l.1-.3v-.5l.1-.2v-.3l.1-.3v-.1l.1-.4zM72.3 20.1l.6.1h.8l.1-.1v-.2l-.2-.1h-.4l-.7-.1h-.2V20zM70.2 17.2l.1-.3.2-.4.1-.3.2-.2.1-.2.2-.1.3-.2.2-.1.2-.1h.3l.2-.1h.6l.6.1.3.1.3.2h.1V15.3l-.2-.1-.4-.2-.3-.2-.6-.1h-.8l-.3.1-.2.2-.3.1-.2.2-.2.1-.1.2-.2.2-.1.3-.2.2-.1.2v.3l-.1.3v.3l-.1.3v.3l.1.2.1.2v.3l.2.2v.1-.1h-.1v-.6l-.1-.2.1-.3zM91.5 21.5v-.9l-.1-.4V20l-.2-.8.1.7v.6l-.1.6-.1.6-.1.5-.2.7-.3.7-.3.6-.5.6-.5.5-.5.4-.5.3-.8.4-.9.2H85l-.9-.1-.6-.2-.5-.1-.6-.3-.7-.3-.5-.3-.6-.5.7.7.4.4.3.2.7.4.6.2.5.1.6.2.9.1.5.1.5-.1h.5l.9-.2.8-.3.5-.3.5-.5.5-.5.5-.5.3-.6.3-.7.2-.7.1-.5.1-.6v-.1z" transform="translate(27 1)"/><path d="M81.1 24.8l.9.6.4.2.5.2.5.2.5.1.5.1h2l.5-.1.5-.2.4-.2.5-.3.4-.3.7-.7.4-.4.2-.5.2-.5.2-.4.2-.5.1-.5.1-.5.1-.5V20l-.1-.5-.1-.5v-.5l-.2-.5-.2-.4-.3-.5-.3-.4-.4-.4-.5-.3-.4-.2-.4-.3-.5-.2-.6-.2-.4-.1-.5-.1-.5-.1h-1.6l-.6.1-.5.1-.5.2-.4.2-.5.2-.3.2-.5.4-.3.3-.3.5-.3.4-.3.5-.2.5-.2.5-.1.5-.1.5v1.6l.1.5.2.5.3.5.2.5.3.4.4.4.4.3.4.2zm.1-.9l.1.2h.1l.1.1h-.1l-.1-.1-.1-.2V23.6h.2v.1l.1.1h.1v-.1h.2v.2l-.1-.1h-.4l-.1.1zm.3-.5h-.2.2zm-.1-.6zm.3 1.9zm0-.8zm.4.7l-.2-.1v-.1l.2.2zm-.1-.9l.1.2-.1-.2zm.3-.7zm.2.2l-.2.1v-.1h.2zm0 .4zm-.3 0zm0 .5l.2-.1h.1-.2l-.1.1zm.2.9l-.1-.2h.1v.2zm.1-1.3zm.2.8l.1-.1-.1.1zm.1-.4zm.5.3l-.1-.1.1.1zm.1-.3l-.2-.1.2.1zm.3 0zm.7.5l-.1-.2h.1v.2zm.1.4zm.5.5l-.2.1V25.3h.1l.1.2zm0-1h-.2v-.1h.1l.1.1zm.4.4zm.9.4l-.1.1v.1l-.1.1v-.1l.1-.1.1-.1-.1-.1v-.1l.1.2zm.2-.4l-.2.1v-.1h.2zM82 20.1l.1-.5.1-.4.2-.4.2-.3.2-.3.2-.2.4-.3.5-.2.6-.1h.7l.5.1.7.2.4.3.5.5.3.5.2.5.1.6-.1.7-.1.5-.2.6-.3.5-.4.5-.4.3-.5.3-.6.2h-.6l-.6-.1-.6-.2-.5-.3-.4-.4-.4-.5-.2-.4-.1-.4-.1-.4v-.3l.2-.6zm-.5-2.1l.1.2v.1-.1l-.1-.2zm-.3-.4l.1.1v.1-.1l-.1-.1zm0 4.4l.1-.1-.1.1.1.1V22.4l-.1-.1V22zm-.2-2.6v.2h-.1l.1-.2zm-.2 2.1v-.2.2zm0 .3l.2-.1h.1v.1H80.8zm-.3 0zm-.7.5l-.1-.1.1.1zm0-1.6v-.2.2zm.2.3zm.3 1.8l-.1-.1.1.1zm-.1-2.7l-.1-.2.1.2.1-.1-.1.1zm.1-.7v-.2.2zm.4 3.8l-.2-.1V23l.1-.1-.1-.1v-.2h.1v-.1l.1-.1H81v-.1h.1v.2H81l-.1-.1h-.1V22.7l.1.1h.2-.1v.1h.1l.1-.1.1-.1h-.1v-.1l.1-.1h.1l.1-.1.1.1.1-.1v-.5h.1V22.2h.1v.1l.1.2h-.2v-.2h-.2.2v-.1h-.2v.1h-.1v.1H81.2h.1v.2l-.1.1v.1h-.1l-.1-.1H80.7v.1l.1.1h.2H80.7V23.2zm.2-.7z" transform="translate(27 1)"/><path d="M82.3 21.5l.1-.5.1-.5.3-.7.3-.6.4-.5.5-.3.5-.3.6-.1h.7l.6.1.6.2.1.1-.5-.4-.3-.2-.5-.2-.6-.1h-.6l-.4.1-.5.3-.5.2-.3.5-.3.4-.2.7-.1.4-.1.6.1.6zM38 3.5H38.3l-.1-.5.1-.1h1.2v-.1h-.1l-.1-.1-.1-.1h-1l-.2.1v.6z" transform="translate(27 1)"/><path d="M35.1 2.1l.1.3v.1h.7v.8l.1.6v.6l.1.6V6H35.4l-.1.1v.4l.1.3V7.5H38.7V6.4l.1-.2v-.1h-.7v-.8h.1l.5-.1H39.6l.1-.1.3-.1.6-.3.3-.2.2-.2.2-.2.1-.3.1-.3V2.6l-.1-.3-.1-.3-.2-.3-.2-.2-.3-.2-.2-.2-.3-.1-.3-.1-.3-.1H35.6l-.5.3v1zm1.5 2.5l.1-.2h.1v.1l-.2.1zm.1.3l-.1-.2.1.2zm.2-.1zm0 .4zm.2.1l-.2-.2h.1l.1.2zm.2-1.1zm-.1.1zm-.1.5V5v-.2zm.1.9zm.1-.7l-.1-.2.1.2zm.2-.4h-.2.2zM38 4zm.2.6zm.7 0l-.2.1.2-.1zm.3-.2zm.9-1.6zm.6-.5zm-.3.7zm-.3-1.4zm-.4 0zm-1.9 1l.2-.1H39.3l.1.1.1.1.1.1.1.1v.4l-.1.1-.1.1-.1.1-.1.1-.1.1H37.8V2.6zm-.3 1.5zm0 .2zm-.3-.5zm-.3-1.3zm0 .7V3v.2zm-.1.2l.2.1h.1-.1l-.2-.1-.2.1.2-.1zm-.2.5zm-.1-.5zm0 1l.2-.1h.1v-.2V4.4h.1v-.1.1h-.1l-.1-.1-.2.1v-.2.5l-.1-.1.1-.2z" transform="translate(27 1)"/><path d="M41.7 2.5l.1.3v.7l-.2.4-.1.3-.2.3-.3.3-.3.1-.3.2-.3.1-.3.1-.3.1H38.6l-.4.1v.2H38.8l.5-.1h.7l.3-.2.3-.1.3-.1.3-.2.3-.3.2-.3.1-.3.2-.4v-.6l-.1-.3-.1-.4v-.1l-.1-.2-.1-.1v.2zM39.3 7.9v-.2l.1-.1-.1-.4v-.7H39v.2l.1.3V7.3l-.1.1v.1l-.1.1h-.2l-.3.1H37.5l-.7.1H35.9V8l.1.1h.4l.3-.1H38l.3-.1H39.2zM44.8 4.5l.1.3v.1-1l.1-.4.2-.3.2-.3.3-.2.3-.2.4-.1H47.2l-.3-.1-.3-.1H46l-.4.1-.2.2-.3.2-.2.2-.1.3-.1.3v.7zM49.9 2.9l.1.4v.3l.1.3-.1.5v.4l-.1.4-.2.4-.2.4-.2.4-.3.2-.4.3-.4.3-.3.1-.3.1-.3.1-.5.1h-.7l-.4-.1-.5-.1h-.3l-.4-.2.5.3.3.1.2.1.5.1h1l.5-.1h.3l.3-.1.3-.1.5-.3.4-.3.3-.3.2-.3.2-.4.2-.5V5l.1-.4V3.5l-.1-.1-.1-.3v-.2l-.1-.2-.1-.1-.2-.4.1.3z" transform="translate(27 1)"/><path d="M42.7 4.5l.1.3v.3l.1.3.1.3.2.2.2.2.2.2.2.2.3.2.3.1.4.2.6.2.3.1h1.2l.3-.1.3-.1.3-.1.3-.1.3-.1.3-.2.2-.2.2-.3.2-.2.3-.5.1-.3v-.6l.1-.3V3l-.1-.3-.1-.3-.2-.3-.1-.2-.2-.3-.2-.2-.3-.3-.2-.2-.3-.2-.3-.2-.3-.1-.3-.1-.4.1h-1.6l-.3.1-.3.1-.3.1-.3.1-.3.2-.2.2-.3.3-.2.2.1.4-.1.2-.2.4V3l-.1.3v1.2zm2.2 2l-.1.2h-.2l-.1-.1v-.1h.4zm-.2-.3zm.4.8zm0-.5zm0-.2zm.1-.3zm.1.8l-.2-.1.2.1zm.1-.4l-.2.1h-.1.1l.2-.1zm.2.6zm0-.6zm.3-.1zm.2-.1zm.4.1zm.4 0zm.2.5zm.7-.3v.2-.2zm.1-.3zm-3.4-2.6v-.3l.1-.2.1-.2.1-.2.2-.3.3-.2.2-.1.4-.1h.7l.4.1.3.2.2.2.2.3.2.3.1.4v.7l-.1.3-.2.3-.2.3-.2.2-.3.2-.3.1h-.8l-.3-.1-.3-.1-.3-.2-.2-.2-.1-.2-.1-.2-.1-.2v-.5-.3zm-.1 1.8zm-.3-.3l-.1.2.1-.2zm0 .2h.2-.2zm-.1.4l.1.2h.1V5.6h.2l.1-.1v-.1.2l.1.1H44.3h.1v.1l-.1.1H44h.1-.2l.1-.2h-.2.2zm-.2-2.6l.1.2-.1-.2zm0 .8zm-.1-1zm-.2 1.5zm-.1-.3zM53.7 3.6h.2v-.8l.1-.1h.5l.2.1h.5l-.1-.1-.1-.1v-.1h-1l-.2-.1h-.1V2.7l-.1.1v.8zM57.6 6.8v.3l-.1.3V7.7l-.1.1h-.5l-.3-.1h-1.4v.2l.3.1h1.6l.3.1h.3l.1-.1v-.7l.1-.2v-.2l-.1-.1v-.1l-.1-.1h-.1z" transform="translate(27 1)"/><path d="M50.9 7.2h2.8V5.9h-.5V5.1H53.9l.1.1.4.5.2.4.2.2v.9h.1l.3.1h2.1V5.9l-.1-.1H56.4l-.3-.4-.2-.4v-.4l.4-.2.3-.2.2-.3.2-.3.1-.4v-1l-.1-.3-.2-.3v.1l-.2-.2-.2-.2-.3-.2-.3-.1-.3-.1-.3-.1-.9-.1h-2.4l-.6-.2h-.2V1.9l-.2.1h.7V5.5H50.8l-.1.3V7l.2.2zm5.2-.2zm-.2-.5zm0-4.2l-.1-.2h.1v.2zm0 .4zm.2.3zm.1-.3zm.1.7l-.2-.1-.1-.1.3.2zm.2-1.2l.1.2-.1-.2zm0 .3l.2.1V2.3h.1v.2H56.5l-.2.1v-.1h.2zm-.2-.5zm-.1.1v.2-.2zm0 .5zm-.1-.4zm-.2-.3l.2.1-.2-.1zm-.3 5.2H55.3V7l.3.1zm-.1-5.3zm0 4.1zm-2-3.6l.3-.1H55l.1.1.1.1.1.1.1.1.1.1v.6l-.1.1-.1.1-.1.1-.1.1H53.6V2.6l-.1-.3zm-.1-.5zm-.2-.6zm-.3 3.7zm-.1-.5l-.1.1.1-.1zm-.2-3.2l.2-.1-.2.1zm-.2.2zm-.1 4.7zm-.1-1.2zm-.1.7z" transform="translate(27 1)"/><path d="M56.8 4.7l-.3.2-.3.2.2.2.3-.1.3-.2.3-.3.2-.5.1-.3.1-.5v-.3l-.1-.3-.1-.3v.7l-.1.4-.1.4-.2.4zM54.2 7.9l.1-.1h.1v-.6l.1-.2V6.7l-.1-.1h-.1l-.1-.1V7l-.1.2V7.5l-.1.1h-.9l-.3-.1H51v.2h.1l.3.1h1.9l.3.1h.3zM53.9 5.4h-.4v.3H53.8v-.1h.2z" transform="translate(27 1)"/></g></g></g></svg>
